<svg width="344" height="228" viewBox="0 0 344 228" fill="none" xmlns="http://www.w3.org/2000/svg">
<path d="M168.379 211C184.827 211 198.161 209.581 198.161 207.83C198.161 206.079 184.827 204.66 168.379 204.66C151.931 204.66 138.598 206.079 138.598 207.83C138.598 209.581 151.931 211 168.379 211Z" fill="#CCCACA"/>
<path d="M274.112 211C290.56 211 303.894 209.581 303.894 207.83C303.894 206.079 290.56 204.66 274.112 204.66C257.664 204.66 244.33 206.079 244.33 207.83C244.33 209.581 257.664 211 274.112 211Z" fill="#CCCACA"/>
<path d="M85.4373 173.348C96.7742 173.348 105.965 172.365 105.965 171.152C105.965 169.94 96.7742 168.957 85.4373 168.957C74.1005 168.957 64.9102 169.94 64.9102 171.152C64.9102 172.365 74.1005 173.348 85.4373 173.348Z" fill="#CCCACA"/>
<path d="M37.3924 173.348C48.7293 173.348 57.9196 172.365 57.9196 171.152C57.9196 169.94 48.7293 168.957 37.3924 168.957C26.0556 168.957 16.8652 169.94 16.8652 171.152C16.8652 172.365 26.0556 173.348 37.3924 173.348Z" fill="#CCCACA"/>
<path d="M268.686 114.453C287.498 114.453 302.747 99.1846 302.747 80.3497C302.747 61.5148 287.498 46.2461 268.686 46.2461C249.875 46.2461 234.625 61.5148 234.625 80.3497C234.625 99.1846 249.875 114.453 268.686 114.453Z" fill="url(#paint0_linear)"/>
<path d="M287.607 64.7204C287.016 67.6465 285.659 71.6526 282.528 75.1361C280.371 77.5397 278.735 78.1319 278.144 78.3409C275.709 79.1421 273.064 78.759 271.36 77.7836C267.672 75.6935 265.932 69.5276 268.402 63.1876C270.838 62.7696 274.039 62.4561 277.761 62.7348C281.797 62.9786 285.172 63.8843 287.607 64.7204Z" fill="#EFEFEF"/>
<path d="M246.419 62.5703C251.569 62.8838 256.718 63.1973 261.867 63.5109C261.728 65.7403 261.136 69.9554 258.179 73.7176C257.17 75.0065 255.361 77.2708 252.403 77.9675C251.708 78.1416 250.351 78.4203 248.855 77.863C248.855 77.863 247.428 77.3404 246.245 75.8077C244.471 73.5086 244.471 68.3878 246.419 62.5703Z" fill="#EFEFEF"/>
<path d="M233.722 34.0412C233.026 31.7072 234.557 29.5126 234.661 29.4081C236.296 27.1787 239.114 27.0742 239.706 27.0742C241.793 27.0045 244.786 27.8754 245.586 30.07C245.934 31.0454 245.934 32.5085 245.203 33.1007C244.368 33.7625 243.22 32.8916 241.724 33.5535C240.958 33.9019 240.506 34.4941 240.228 34.8772C240.541 35.0863 240.958 35.3649 241.55 35.6785C242.698 36.2707 243.463 36.41 243.533 36.8977C243.568 37.1764 243.359 37.4202 243.289 37.5247C242.037 39.0575 235.774 38.0124 234.07 34.8424C233.861 34.4592 233.757 34.1457 233.722 34.0412Z" fill="#EFEFEF"/>
<path d="M273.235 202.308H272.922C270.278 202.274 267.634 202.204 265.024 202.169C263.876 202.274 262.902 201.821 262.658 201.089C262.484 200.636 262.658 200.079 262.658 200.044C262.867 199.382 263.319 199.347 263.459 198.79C263.598 198.302 263.424 197.745 263.111 197.397C262.554 196.804 261.615 196.909 261.475 196.944C259.771 197.188 258.622 199.626 258.24 201.333C258.135 201.786 257.335 205.722 259.771 207.603C260.501 208.161 261.301 208.37 261.858 208.474H276.366C278.002 208.474 279.324 207.15 279.324 205.513V205.235C279.324 203.667 278.106 202.413 276.575 202.308" fill="#222222"/>
<path d="M275.398 79.0398C273.449 79.0398 271.814 78.5173 270.492 77.5071C268.926 76.3227 268.3 74.7551 267.952 73.919C266.526 70.4355 267.187 67.1262 267.709 64.6877C268.196 62.4234 268.996 60.194 270.144 58.069C270.214 57.9297 270.388 57.8949 270.527 57.9645C270.666 58.0342 270.701 58.2084 270.631 58.3477C269.518 60.403 268.718 62.5976 268.265 64.8271C267.778 67.1958 267.117 70.4007 268.474 73.7449C268.822 74.5809 269.414 76.0091 270.84 77.089C272.336 78.2386 274.319 78.6915 276.72 78.4128C281.173 77.9251 285.383 72.6998 287.157 65.4192C287.192 65.2799 287.331 65.1754 287.505 65.2102C287.644 65.2451 287.749 65.3844 287.714 65.5586C285.87 73.0481 281.486 78.4476 276.824 78.9701C276.302 79.005 275.85 79.0398 275.398 79.0398Z" fill="#222222"/>
<path d="M250.877 78.5158C249.763 78.5158 248.302 78.3068 247.015 77.2966C246.597 76.9482 245.797 76.147 245.206 74.5795C243.64 70.3644 245.275 64.7211 246.041 62.4916C246.075 62.3523 246.249 62.2826 246.388 62.3175C246.528 62.3523 246.597 62.5265 246.562 62.6658C245.797 64.8256 244.231 70.2947 245.727 74.3704C246.249 75.7987 246.98 76.5302 247.363 76.8437C249.033 78.2023 251.225 77.9585 252.025 77.8888C255.713 77.5056 259.331 73.0119 261.279 66.4629C261.314 66.3235 261.488 66.219 261.627 66.2887C261.766 66.3235 261.871 66.4977 261.801 66.637C259.783 73.3951 255.956 78.0281 252.06 78.4461C251.851 78.481 251.399 78.5158 250.877 78.5158Z" fill="#222222"/>
<path d="M288.374 65.5132C288.305 65.5132 288.235 65.5132 288.166 65.4783C285.591 65.0254 282.982 64.6421 280.407 64.3633C275.571 63.8755 270.665 63.7012 265.794 63.8755C265.203 63.9103 264.681 63.4225 264.646 62.7953C264.611 62.1681 265.099 61.6802 265.725 61.6454C270.7 61.4712 275.71 61.6105 280.651 62.1332C283.295 62.412 285.974 62.7953 288.583 63.2831C289.175 63.3876 289.592 63.98 289.488 64.5724C289.383 65.1647 288.896 65.5132 288.374 65.5132Z" fill="#222222"/>
<path d="M270.451 59.3987C270.138 59.3987 269.79 59.3987 269.477 59.3638C268.711 59.2941 267.946 59.1896 267.18 58.9806C266.589 58.8413 266.241 58.2143 266.38 57.6221C266.519 57.0299 267.146 56.6815 267.737 56.8208C268.363 56.995 269.024 57.0995 269.651 57.1344C273.095 57.3782 276.018 55.9848 277.827 54.7307C278.349 54.3824 279.01 54.5217 279.358 55.0443C279.705 55.5668 279.566 56.2287 279.044 56.577C277.131 57.9007 274.104 59.3987 270.451 59.3987Z" fill="#222222"/>
<path d="M258.559 59.4185C254.906 59.4185 251.914 57.9206 249.966 56.5968C249.444 56.2485 249.34 55.5518 249.653 55.0641C250.001 54.5416 250.696 54.4371 251.184 54.7506C253.027 56.0046 255.915 57.3981 259.36 57.1542C260.021 57.1194 260.647 57.0149 261.273 56.8407C261.865 56.7013 262.456 57.0497 262.63 57.6419C262.769 58.2341 262.421 58.8263 261.83 59.0005C261.064 59.2095 260.299 59.314 259.534 59.3837C259.22 59.3837 258.907 59.4185 258.559 59.4185Z" fill="#222222"/>
<path d="M267.289 60.5525C267.289 60.5525 267.254 60.5525 267.289 60.5525C266.976 60.5525 265.48 60.3783 264.54 59.0194C263.775 57.8695 263.949 56.6151 264.018 56.2666C264.053 56.1272 264.192 56.0227 264.332 56.0575C264.471 56.0924 264.575 56.2318 264.54 56.3711C264.471 56.6847 264.332 57.6953 264.958 58.6709C265.758 59.8556 267.115 59.9602 267.254 59.9602C267.393 59.9602 267.532 60.0996 267.498 60.2389C267.532 60.4132 267.428 60.5525 267.289 60.5525Z" fill="#222222"/>
<path d="M261.304 64.2236C261.269 64.2236 261.235 64.2236 261.235 64.2236C258.138 63.9797 255.007 63.8403 251.876 63.7706C249.231 63.7009 246.552 63.7009 243.943 63.7706C243.943 63.7706 243.943 63.7706 243.908 63.7706C243.317 63.7706 242.83 63.2828 242.795 62.6904C242.795 62.0632 243.282 61.5754 243.873 61.5405C246.552 61.4709 249.231 61.4709 251.91 61.5405C255.042 61.6102 258.243 61.7845 261.374 61.9935C262 62.0284 262.452 62.5859 262.383 63.1783C262.383 63.7706 261.896 64.2236 261.304 64.2236Z" fill="#222222"/>
<path d="M250.938 68.5112C252.13 68.5112 253.095 67.1699 253.095 65.5154C253.095 63.8608 252.13 62.5195 250.938 62.5195C249.747 62.5195 248.781 63.8608 248.781 65.5154C248.781 67.1699 249.747 68.5112 250.938 68.5112Z" fill="#222222"/>
<path d="M253.412 65.4933C253.412 66.1902 252.995 66.6084 252.925 66.6781C252.299 66.2948 251.673 65.9115 251.012 65.4933C251.638 65.11 252.264 64.6919 252.925 64.3086C252.995 64.4131 253.412 64.8313 253.412 65.4933Z" fill="#EFEFEF"/>
<path d="M241.581 38.6583C240.259 38.6583 238.693 38.2751 237.684 37.9268C236.641 37.5436 235.318 37.0907 234.344 36.185C234.17 36.0108 234.17 35.767 234.344 35.5928C234.518 35.4186 234.762 35.4186 234.936 35.5928C235.771 36.394 236.919 36.812 237.963 37.1604C240.259 37.9616 242.729 38.0661 243.112 37.4042C243.181 37.2649 243.216 37.0559 243.147 36.8817C243.042 36.6727 242.764 36.5682 242.138 36.3592C241.72 36.2198 241.233 36.0457 240.642 35.8018C240.328 35.6625 240.015 35.5231 239.737 35.349C239.633 35.2793 239.528 35.1748 239.528 35.0354C239.528 34.8961 239.563 34.7568 239.667 34.6871C240.363 34.0601 241.129 33.6072 241.964 33.3285C242.659 33.1195 243.251 33.0498 243.703 33.015C244.33 32.9802 244.643 32.9453 244.921 32.6666C245.512 32.1093 245.373 30.9946 245.373 30.89C245.095 28.8696 242.242 27.8942 241.929 27.7897C241.372 27.6155 238.45 26.7795 236.119 28.7303C234.762 29.8798 233.857 31.6913 233.927 33.2588C233.927 33.5027 233.753 33.6769 233.544 33.6769C233.335 33.6769 233.127 33.5027 233.127 33.2937C233.057 31.4474 234.031 29.3921 235.597 28.0684C238.276 25.839 241.546 26.7795 242.172 26.9885C242.764 27.1975 245.826 28.3122 246.173 30.7507C246.243 31.1339 246.347 32.4576 245.478 33.2588C244.956 33.7465 244.364 33.7814 243.738 33.851C243.286 33.8859 242.764 33.9207 242.172 34.1297C241.616 34.3039 241.129 34.5826 240.642 34.9309C240.746 34.9658 240.85 35.0354 240.955 35.0703C241.511 35.3141 241.998 35.4883 242.381 35.5928C243.112 35.8366 243.668 36.0108 243.912 36.603C244.086 36.9862 244.051 37.4739 243.842 37.8571C243.46 38.4144 242.59 38.6583 241.581 38.6583Z" fill="#222222"/>
<path d="M239.676 32.9408C239.502 32.9408 239.362 32.8363 239.293 32.6969C239.189 32.4878 239.293 32.2439 239.502 32.1394C240.685 31.5819 241.937 31.2683 243.224 31.1986C244.094 31.1289 244.964 31.1986 245.799 31.3728C246.008 31.4077 246.182 31.6167 246.112 31.8606C246.077 32.0697 245.869 32.2439 245.625 32.1742C244.825 32.0349 244.025 31.9652 243.259 32.0349C242.076 32.1045 240.928 32.3833 239.85 32.906C239.78 32.9408 239.745 32.9408 239.676 32.9408Z" fill="#222222"/>
<path d="M239.068 31.367C238.894 31.367 238.755 31.2625 238.685 31.1231C238.581 30.914 238.685 30.6701 238.894 30.5656C239.938 30.1126 241.051 29.8338 242.165 29.6596C243.278 29.4854 244.391 29.4505 245.539 29.5899C245.783 29.6248 245.922 29.8338 245.922 30.0429C245.887 30.2868 245.679 30.4262 245.47 30.4262C244.426 30.3217 243.348 30.3565 242.304 30.4959C241.26 30.6701 240.216 30.9489 239.242 31.367C239.173 31.367 239.103 31.367 239.068 31.367Z" fill="#222222"/>
<path d="M238.482 29.7627C238.343 29.7627 238.169 29.6581 238.1 29.5188C237.995 29.3097 238.1 29.0658 238.308 28.9612C239.178 28.5431 240.083 28.2295 241.022 28.0553C241.892 27.8811 242.831 27.7765 243.701 27.8114C243.945 27.8114 244.119 28.0204 244.119 28.2295C244.119 28.4734 243.945 28.6476 243.701 28.6476C242.866 28.6128 242.031 28.7173 241.196 28.8916C240.326 29.0658 239.491 29.3445 238.691 29.7278C238.621 29.7627 238.552 29.7627 238.482 29.7627Z" fill="#222222"/>
<path d="M272.788 68.8198C273.979 68.8198 274.945 67.4785 274.945 65.824C274.945 64.1694 273.979 62.8281 272.788 62.8281C271.597 62.8281 270.631 64.1694 270.631 65.824C270.631 67.4785 271.597 68.8198 272.788 68.8198Z" fill="#222222"/>
<path d="M275.258 65.841C275.258 66.5379 274.841 66.956 274.771 67.0257C274.145 66.6424 273.518 66.2591 272.857 65.841C273.484 65.4577 274.11 65.0395 274.771 64.6562C274.841 64.7608 275.258 65.1789 275.258 65.841Z" fill="#EFEFEF"/>
<path d="M260.018 87.4994C259.775 87.4994 259.496 87.3949 259.287 87.2208C254.764 83.2495 249.685 81.6471 247.18 83.4237C246.623 83.8418 246.136 84.4339 245.823 85.27C245.579 85.8274 244.953 86.106 244.362 85.8622C243.805 85.6183 243.527 84.9913 243.77 84.3991C244.257 83.1799 244.988 82.2742 245.893 81.6123C249.302 79.2087 255.286 80.7762 260.749 85.5835C261.201 86.0015 261.271 86.6982 260.853 87.1511C260.61 87.3949 260.296 87.4994 260.018 87.4994Z" fill="#222222"/>
<path d="M254.894 87.3894C254.824 87.3894 254.789 87.3545 254.72 87.3197C252.458 85.5426 249.953 84.9851 248.631 85.9607C248.283 86.2046 248.005 86.5531 247.831 87.0409C247.761 87.1803 247.622 87.25 247.483 87.1803C247.344 87.1106 247.274 86.9712 247.344 86.8319C247.587 86.2743 247.9 85.8562 248.318 85.5426C249.884 84.3927 252.597 84.9502 255.102 86.9015C255.207 87.0061 255.241 87.1803 255.137 87.2848C255.067 87.3545 254.963 87.3894 254.894 87.3894Z" fill="#222222"/>
<path d="M274.701 205.373C274.144 205.373 273.657 204.92 273.587 204.363L267.185 120.932C267.151 120.305 267.603 119.783 268.194 119.748C268.786 119.713 269.343 120.166 269.377 120.758L275.779 204.188C275.814 204.815 275.362 205.338 274.77 205.373C274.77 205.373 274.735 205.373 274.701 205.373Z" fill="#222222"/>
<path d="M312.484 132.277C297.594 132.277 280.998 115.033 277.658 111.41C277.24 110.958 277.275 110.261 277.727 109.843C278.18 109.425 278.876 109.46 279.293 109.912C282.703 113.605 300.377 131.998 314.781 129.908C316.172 129.699 318.503 129.35 320.765 127.713C326.61 123.428 327.027 113.849 327.341 106.847C327.445 104.618 327.41 102.353 327.236 100.124C327.201 99.4967 327.654 98.9742 328.28 98.9394C328.906 98.9045 329.428 99.3574 329.463 99.9844C329.637 102.284 329.672 104.618 329.567 106.951C329.254 114.406 328.802 124.578 322.087 129.525C319.373 131.51 316.625 131.928 315.129 132.137C314.224 132.242 313.354 132.277 312.484 132.277Z" fill="#222222"/>
<path d="M229.435 61.0559C229.192 61.0559 228.983 60.9862 228.774 60.8469C221.399 55.2384 218.789 45.7284 222.86 39.2143C226.095 34.0238 232.358 33.0484 234.202 32.8743C234.828 32.8046 235.35 33.2574 235.42 33.8845C235.489 34.5115 235.037 35.034 234.411 35.1037C232.81 35.2431 227.418 36.0791 224.704 40.3987C221.746 45.1711 222.929 53.6709 230.062 59.0703C230.549 59.4535 230.653 60.1502 230.27 60.6379C230.097 60.9166 229.783 61.0559 229.435 61.0559Z" fill="#222222"/>
<path d="M330.054 100.947C331.446 101.261 332.35 101.47 334.786 101.992C335.934 102.097 336.804 102.724 336.908 103.49C336.978 103.978 336.734 104.466 336.699 104.501C336.386 105.093 335.934 105.058 335.656 105.58C335.447 106.033 335.482 106.591 335.725 107.009C336.143 107.705 337.117 107.74 337.256 107.775C338.961 107.88 340.561 105.685 341.257 104.083C341.431 103.665 342.997 99.972 340.979 97.638C340.352 96.9413 339.622 96.593 339.1 96.384L328.384 94.2938C326.784 93.9803 325.253 95.0254 324.94 96.6278L324.905 96.9065C324.627 98.2999 325.427 99.763 326.679 100.181" fill="#222222"/>
<path d="M324.249 103.024C324.527 102.989 329.364 102.432 331.799 105.776C332.182 106.299 333.469 108.04 332.912 110.27C332.321 112.708 330.059 113.719 329.781 113.823C328.703 112.883 327.659 111.942 326.58 111.001C326.441 112.046 326.302 113.057 326.197 114.102C324.841 113.684 324.006 112.987 323.623 112.604C321.849 110.827 321.57 108.11 322.127 106.194C322.196 105.95 322.266 105.776 322.301 105.672" fill="#EFEFEF"/>
<path d="M326.154 114.523C326.119 114.523 326.084 114.523 326.05 114.523C324.971 114.209 324.032 113.652 323.301 112.921C321.387 111.005 321.109 108.113 321.701 106.128C321.77 105.884 321.84 105.675 321.909 105.57C321.979 105.361 322.222 105.257 322.466 105.326C322.675 105.396 322.779 105.64 322.71 105.884C322.675 105.988 322.605 106.163 322.536 106.372C322.014 108.148 322.257 110.656 323.927 112.363C324.449 112.886 325.11 113.339 325.876 113.617L326.189 111.039C326.224 110.9 326.293 110.761 326.467 110.691C326.606 110.621 326.78 110.656 326.885 110.761L329.877 113.408C330.538 113.095 332.103 112.119 332.556 110.238C332.869 108.88 332.521 107.486 331.512 106.093C329.216 102.923 324.554 103.48 324.345 103.515C324.136 103.55 323.892 103.376 323.892 103.167C323.858 102.923 324.032 102.714 324.24 102.714C324.449 102.679 329.598 102.087 332.173 105.64C333.356 107.242 333.739 108.88 333.356 110.482C332.73 113.025 330.433 114.14 329.981 114.349C329.842 114.418 329.668 114.384 329.529 114.279L326.919 111.98L326.641 114.279C326.641 114.384 326.571 114.523 326.467 114.558C326.328 114.523 326.258 114.523 326.154 114.523Z" fill="#222222"/>
<path d="M331.133 113.438C330.959 113.438 330.82 113.334 330.75 113.194C330.402 112.463 329.985 111.801 329.498 111.174C328.767 110.233 327.828 109.467 326.784 108.875C326.575 108.77 326.505 108.491 326.645 108.317C326.749 108.108 327.027 108.039 327.201 108.178C328.349 108.84 329.324 109.676 330.124 110.686C330.646 111.348 331.133 112.08 331.481 112.881C331.585 113.09 331.481 113.334 331.272 113.438C331.237 113.403 331.168 113.438 331.133 113.438Z" fill="#222222"/>
<path d="M332.416 111.895C332.277 111.895 332.138 111.826 332.034 111.686C331.582 110.85 331.025 110.084 330.399 109.387C329.668 108.621 328.833 107.924 327.928 107.367C327.72 107.262 327.65 106.984 327.789 106.809C327.894 106.6 328.172 106.531 328.346 106.67C329.32 107.262 330.225 107.994 330.99 108.83C331.686 109.561 332.277 110.398 332.73 111.303C332.834 111.512 332.764 111.756 332.556 111.861C332.556 111.861 332.486 111.895 332.416 111.895Z" fill="#222222"/>
<path d="M332.911 109.421C332.772 109.421 332.668 109.351 332.563 109.246C332.042 108.549 331.45 107.887 330.789 107.33C330.163 106.807 329.502 106.319 328.806 105.936C328.597 105.831 328.528 105.588 328.632 105.379C328.736 105.169 328.98 105.1 329.189 105.204C329.954 105.622 330.65 106.11 331.311 106.703C332.007 107.295 332.668 107.992 333.19 108.758C333.329 108.933 333.294 109.211 333.085 109.351C333.085 109.421 332.981 109.421 332.911 109.421Z" fill="#222222"/>
<path d="M326.817 111.668C326.713 111.668 326.608 111.633 326.504 111.528C326.156 111.145 325.738 110.831 325.321 110.553C324.869 110.274 324.416 110.1 323.929 109.96C323.72 109.89 323.581 109.681 323.651 109.438C323.72 109.228 323.929 109.089 324.173 109.159C324.729 109.298 325.286 109.542 325.773 109.856C326.295 110.169 326.747 110.518 327.165 110.971C327.339 111.145 327.304 111.389 327.165 111.563C327.026 111.633 326.921 111.668 326.817 111.668Z" fill="#222222"/>
<path d="M323.862 106.143C323.653 106.143 323.409 106.073 323.235 105.934C320.8 104.262 318.26 102.694 315.686 101.301C311.685 99.141 307.475 97.3296 303.126 95.9362C302.534 95.762 302.221 95.135 302.43 94.5428C302.604 93.9506 303.23 93.637 303.822 93.8461C308.275 95.3091 312.624 97.1554 316.729 99.3848C319.408 100.813 322.018 102.416 324.488 104.157C324.975 104.506 325.114 105.202 324.766 105.69C324.558 105.969 324.21 106.143 323.862 106.143Z" fill="#222222"/>
<path d="M275.435 47.4749C275.365 47.4749 275.295 47.4749 275.261 47.4401C275.052 47.3356 274.982 47.0918 275.087 46.8827C278.148 40.7866 277.348 33.7151 273.173 30.127C270.425 27.7582 266.98 27.5144 265.136 27.5841C264.928 27.5841 264.719 27.4099 264.719 27.166C264.719 26.9222 264.893 26.748 265.101 26.748C267.05 26.6783 270.738 26.9222 273.695 29.5C278.148 33.3667 279.053 40.8214 275.817 47.2659C275.748 47.3704 275.574 47.4749 275.435 47.4749Z" fill="#222222"/>
<path d="M289.459 53.8525C289.424 53.8525 289.354 53.8525 289.32 53.8176C289.111 53.748 289.007 53.5041 289.076 53.2951C289.285 52.7029 291.303 47.4428 296.626 46.1539C299.096 45.5617 301.288 46.0494 302.68 46.5719C302.889 46.6416 302.993 46.8854 302.923 47.0944C302.854 47.3034 302.61 47.408 302.401 47.3383C301.114 46.8506 299.096 46.3977 296.835 46.9551C291.964 48.1395 290.085 53.0164 289.876 53.5738C289.772 53.748 289.633 53.8525 289.459 53.8525Z" fill="#222222"/>
<path d="M278.981 48.492C278.912 48.492 278.842 48.492 278.807 48.4572C278.599 48.3527 278.529 48.1088 278.633 47.8998C279.399 46.4019 279.921 44.8343 280.269 43.2319C281.347 37.9021 280.721 33.6174 278.32 30.4474C275.398 26.5807 270.109 24.7344 264.508 25.6053C264.299 25.6401 264.056 25.5008 264.021 25.2569C263.986 25.0131 264.125 24.8041 264.369 24.7692C270.249 23.8287 275.85 25.8143 278.947 29.9249C281.452 33.269 282.182 37.7976 281.034 43.3712C280.686 45.0433 280.13 46.7154 279.329 48.2482C279.26 48.4223 279.121 48.492 278.981 48.492Z" fill="#222222"/>
<path d="M286.851 51.9982C286.817 51.9982 286.747 51.9982 286.712 51.9633C286.504 51.8937 286.399 51.6498 286.469 51.4408C286.886 50.2913 288.521 46.4246 292.766 44.5086C298.368 42.0005 303.482 45.0311 304.039 45.3795C304.247 45.484 304.282 45.7627 304.178 45.9369C304.073 46.1459 303.795 46.1807 303.621 46.0762C303.099 45.7627 298.298 42.941 293.114 45.275C289.148 47.0516 287.617 50.6744 287.234 51.7195C287.199 51.8937 287.025 51.9982 286.851 51.9982Z" fill="#222222"/>
<path d="M284.401 50.7832C284.366 50.7832 284.331 50.7832 284.296 50.7832C284.088 50.7135 283.949 50.5045 284.018 50.2607C284.088 49.982 285.932 43.433 292.264 41.5867C296.23 40.4371 299.64 41.7957 300.927 42.4576C301.136 42.5621 301.205 42.8059 301.101 43.0149C300.997 43.224 300.753 43.2936 300.544 43.1891C299.361 42.5969 296.16 41.308 292.507 42.3879C286.627 44.0948 284.923 50.2258 284.853 50.4697C284.749 50.6787 284.575 50.7832 284.401 50.7832Z" fill="#222222"/>
<path d="M281.801 49.6133C281.731 49.6133 281.661 49.6133 281.627 49.5784C281.418 49.4739 281.348 49.2301 281.453 49.0211C285.593 40.7651 284.862 31.5338 279.678 27.0749C278.252 25.8557 275.712 24.3578 271.676 24.1139C271.433 24.1139 271.259 23.9049 271.293 23.6611C271.293 23.4172 271.502 23.243 271.746 23.2779C276.025 23.5217 278.704 25.1241 280.235 26.413C285.767 31.1855 286.567 40.6258 282.218 49.3694C282.114 49.5436 281.975 49.6133 281.801 49.6133Z" fill="#222222"/>
<path d="M176.872 172.348C195.683 172.348 210.933 157.079 210.933 138.244C210.933 119.409 195.683 104.141 176.872 104.141C158.06 104.141 142.811 119.409 142.811 138.244C142.811 157.079 158.06 172.348 176.872 172.348Z" fill="url(#paint1_linear)"/>
<path d="M176.319 112.77C177.849 113.989 179.867 115.313 182.337 116.462C183.799 117.159 185.19 117.681 186.443 118.064C186.582 121.06 186.269 125.345 183.973 129.525C182.198 132.73 180.494 133.636 180.076 133.845C177.049 135.378 174.022 134.298 173.605 134.123C169.917 132.73 168.595 129.142 168.386 128.55C166.542 123.499 169.499 117.995 172.631 115.138C174.022 113.919 175.414 113.188 176.319 112.77Z" fill="#EFEFEF"/>
<path d="M195.377 123.062C196.629 123.968 198.195 124.978 200.039 125.919C201.987 126.894 203.796 127.556 205.327 128.044C205.675 129.542 206.162 132.677 204.979 136.195C204.457 137.763 202.857 142.57 198.438 143.929C198.195 143.998 194.159 145.183 191.341 142.744C190.019 141.595 189.532 140.132 189.288 139.296C187.479 133.269 192.385 126.825 193.776 124.944C194.472 124.108 195.029 123.446 195.377 123.062Z" fill="#EFEFEF"/>
<path d="M193.772 181.432C193.876 181.885 194.085 182.964 193.528 184.01C192.797 185.507 190.954 186.343 188.936 186.065C189.075 186.971 188.831 187.423 188.657 187.632C187.787 188.677 185.213 188.259 183.821 187.005C181.977 185.368 181.734 181.989 183.369 180.003C184.795 178.262 187.161 178.262 187.822 178.262C191.267 178.297 193.424 181.014 193.772 181.432Z" fill="#EFEFEF"/>
<path d="M184.934 80.6285C185.142 79.897 185.595 78.7126 186.534 77.563C186.882 77.1102 188.969 74.5672 192.275 74.4627C192.762 74.4627 196.276 74.3234 197.146 76.518C197.667 77.8069 197.076 79.5835 196.032 80.2802C195.232 80.8027 194.571 80.3847 193.214 80.8375C192.101 81.2207 191.335 81.8826 190.848 82.4051C190.987 82.4051 191.822 82.3703 192.449 82.9973C192.831 83.3805 193.284 84.1469 193.04 84.6346C192.623 85.4706 190.396 85.0526 189.735 84.9133C188.482 84.6694 186.534 84.3211 185.525 82.649C185.073 81.9174 184.968 81.1162 184.934 80.6285Z" fill="#EFEFEF"/>
<path d="M152.893 202.523H145.239C143.638 202.523 142.316 203.812 142.316 205.45C142.316 207.052 143.604 208.376 145.239 208.376H153.867C155.468 208.376 156.79 207.087 156.79 205.45C156.79 204.718 156.511 204.056 156.059 203.568" fill="#222222"/>
<path d="M181.631 202.558C180.1 202.628 178.848 203.882 178.848 205.45C178.848 207.052 180.135 208.376 181.77 208.376H193.495C195.095 208.376 196.418 207.087 196.418 205.45C196.418 203.847 195.13 202.523 193.495 202.523H184.971" fill="#222222"/>
<path d="M186.989 188.74C185.667 188.74 184.136 188.113 183.162 187.103C181.318 185.257 181.77 182.609 181.875 182.087C182.118 180.902 182.605 179.962 183.371 179.265C184.449 178.255 186.05 177.732 187.929 177.767C190.086 177.837 192.173 178.673 193.356 179.927C193.495 180.101 193.495 180.345 193.321 180.519C193.147 180.659 192.904 180.659 192.73 180.484C191.686 179.37 189.842 178.638 187.894 178.568C186.224 178.534 184.832 178.952 183.928 179.823C183.301 180.415 182.884 181.216 182.675 182.226C182.571 182.679 182.223 184.943 183.719 186.476C184.589 187.347 185.98 187.904 187.128 187.869C187.615 187.835 187.998 187.695 188.207 187.451C188.45 187.173 188.485 186.685 188.346 186.023C188.311 185.884 188.346 185.744 188.45 185.675C188.52 185.57 188.659 185.535 188.798 185.535C191.025 185.675 192.939 184.908 193.495 183.55C193.6 183.341 193.843 183.236 194.052 183.341C194.261 183.445 194.365 183.689 194.261 183.898C193.6 185.431 191.686 186.406 189.355 186.406C189.32 186.406 189.32 186.406 189.285 186.406C189.355 187.242 189.146 187.73 188.903 188.009C188.555 188.427 187.963 188.671 187.233 188.705C187.094 188.74 187.024 188.74 186.989 188.74Z" fill="#222222"/>
<path d="M186.844 188.757C186.74 188.757 186.67 188.722 186.601 188.653C186.218 188.339 185.696 187.817 185.487 187.015C185.139 185.726 185.731 184.333 186.983 183.427C187.157 183.288 187.436 183.323 187.575 183.532C187.714 183.706 187.679 183.985 187.47 184.124C186.531 184.821 186.044 185.901 186.287 186.841C186.427 187.399 186.809 187.782 187.088 188.026C187.262 188.165 187.296 188.444 187.157 188.618C187.088 188.722 186.983 188.757 186.844 188.757Z" fill="#222222"/>
<path d="M184.239 187.907C184.065 187.907 183.925 187.802 183.856 187.663C183.612 187.106 183.264 185.956 183.577 184.632C184.065 182.682 185.63 181.741 186.083 181.497C186.291 181.393 186.535 181.462 186.639 181.671C186.744 181.88 186.674 182.124 186.465 182.229C186.082 182.438 184.76 183.204 184.378 184.841C184.099 185.956 184.413 186.862 184.586 187.35C184.691 187.559 184.586 187.802 184.378 187.907C184.343 187.872 184.273 187.907 184.239 187.907Z" fill="#222222"/>
<path d="M182.223 184.839C182.188 184.839 182.153 184.839 182.119 184.839C181.91 184.769 181.771 184.525 181.84 184.316C182.119 183.376 182.571 182.505 183.162 181.739C183.754 180.972 184.485 180.31 185.285 179.823C185.494 179.718 185.737 179.753 185.841 179.962C185.946 180.171 185.911 180.415 185.702 180.519C184.972 180.972 184.311 181.564 183.789 182.261C183.267 182.958 182.849 183.724 182.606 184.595C182.571 184.7 182.397 184.839 182.223 184.839Z" fill="#222222"/>
<path d="M191.514 85.7915C190.609 85.7915 189.6 85.5825 188.869 85.3038C187.408 84.7813 186.26 84.0846 185.529 83.2137C185.39 83.0395 185.39 82.7609 185.564 82.6215C185.738 82.4822 186.017 82.4822 186.156 82.6564C186.817 83.3879 187.826 84.0149 189.148 84.5026C190.679 85.0252 192.418 85.0948 192.662 84.6071C192.766 84.4329 192.662 84.0149 192.453 83.7014C192.175 83.3182 191.757 83.2137 191.374 83.144C190.992 83.0395 190.539 82.935 190.435 82.4822C190.261 81.6461 191.722 80.9494 192.349 80.6708C193.253 80.2876 193.984 80.2179 194.541 80.1831C195.167 80.1134 195.619 80.0786 196.106 79.6954C196.28 79.556 196.698 79.1728 196.872 78.5458C197.185 77.5704 196.698 76.6647 196.524 76.4209C195.863 75.3758 194.68 75.0971 194.053 74.9578C190.957 74.2262 188.208 76.4209 187.895 76.6647C187.234 77.1872 186.051 78.1974 185.564 79.4864C185.495 79.6954 185.251 79.7999 185.042 79.7302C184.834 79.6605 184.729 79.4167 184.799 79.2077C185.355 77.7098 186.678 76.6299 187.373 76.0377C187.93 75.5848 190.818 73.3554 194.227 74.1566C194.923 74.3307 196.384 74.6791 197.22 76.0028C197.463 76.4209 198.02 77.5356 197.637 78.7896C197.393 79.5909 196.872 80.0786 196.593 80.3224C195.932 80.8798 195.271 80.9146 194.61 80.9843C194.053 81.0191 193.427 81.0888 192.662 81.4371C192.001 81.7158 191.514 82.0642 191.34 82.2383C191.409 82.2732 191.514 82.2732 191.583 82.308C192.036 82.4125 192.697 82.5867 193.149 83.2137C193.497 83.6666 193.706 84.433 193.392 84.9903C193.079 85.6173 192.349 85.7915 191.514 85.7915Z" fill="#222222"/>
<path d="M190.685 76.976C190.545 76.976 190.406 76.9063 190.302 76.7669C190.197 76.5579 190.267 76.3139 190.476 76.2094C190.893 75.9655 191.346 75.7564 191.798 75.5822C192.876 75.1292 194.025 74.7808 195.208 74.5717C195.451 74.5369 195.66 74.6762 195.695 74.9202C195.729 75.1292 195.59 75.3731 195.347 75.408C194.233 75.6171 193.155 75.9307 192.111 76.3836C191.694 76.5579 191.276 76.7669 190.859 76.976C190.824 76.976 190.754 76.976 190.685 76.976Z" fill="#222222"/>
<path d="M191.127 78.6224C190.953 78.6224 190.814 78.5179 190.744 78.3437C190.675 78.1346 190.779 77.8907 190.988 77.821C191.927 77.4726 192.866 77.1241 193.806 76.7757C194.78 76.4272 195.789 76.1485 196.798 75.8697C197.007 75.8 197.25 75.9394 197.32 76.1485C197.389 76.3575 197.25 76.6014 197.041 76.6711C196.067 76.9499 195.058 77.2286 194.084 77.5771C193.145 77.8907 192.205 78.2392 191.301 78.5876C191.196 78.6225 191.162 78.6224 191.127 78.6224Z" fill="#222222"/>
<path d="M191.899 80.1551C191.725 80.1551 191.585 80.0506 191.516 79.9112C191.446 79.7021 191.516 79.4582 191.759 79.3537C192.42 79.0749 193.081 78.831 193.742 78.6219C194.925 78.2386 196.108 77.925 197.326 77.6811C197.535 77.6463 197.778 77.7857 197.813 77.9947C197.848 78.2038 197.709 78.4477 197.5 78.4825C196.317 78.7265 195.169 79.0052 194.021 79.3885C193.36 79.5976 192.734 79.8415 192.072 80.0854C192.003 80.1551 191.933 80.1551 191.899 80.1551Z" fill="#222222"/>
<path d="M206.441 128.669C206.372 128.669 206.302 128.669 206.233 128.669C203.484 128.182 200.875 127.206 198.474 125.813C196.978 124.942 195.621 123.897 194.334 122.712C193.882 122.294 193.882 121.598 194.299 121.145C194.717 120.692 195.412 120.692 195.865 121.11C197.013 122.19 198.265 123.131 199.588 123.897C201.745 125.151 204.11 126.022 206.615 126.475C207.207 126.579 207.624 127.171 207.52 127.764C207.416 128.286 206.963 128.669 206.441 128.669Z" fill="#222222"/>
<path d="M189.003 119.611C188.898 119.611 188.794 119.611 188.689 119.576C186.602 118.949 184.549 118.182 182.601 117.277C179.992 116.057 177.486 114.594 175.155 112.852C174.668 112.504 174.564 111.807 174.912 111.285C175.26 110.797 175.956 110.693 176.478 111.041C178.669 112.678 181.07 114.072 183.54 115.221C185.419 116.092 187.333 116.824 189.316 117.416C189.907 117.59 190.255 118.217 190.081 118.809C189.942 119.297 189.49 119.611 189.003 119.611Z" fill="#222222"/>
<path d="M196.625 127.137C195.79 128.426 195.373 130.586 196.486 131.561C196.973 132.014 197.599 132.049 197.843 132.049C199.409 132.049 200.522 130.273 200.905 129.088C201.044 128.635 201.566 127.033 200.696 126.023C200.626 125.953 200.209 125.465 199.513 125.361C197.947 125.152 196.764 126.928 196.625 127.137Z" fill="#222222"/>
<path d="M196.318 144.564C194.16 144.564 191.69 143.798 190.194 141.986C187.063 138.224 188.176 130.003 195.483 122.688C195.587 122.583 195.761 122.583 195.865 122.688C195.97 122.792 195.97 122.966 195.865 123.071C188.872 130.038 187.689 138.12 190.577 141.603C192.351 143.728 195.622 144.32 197.918 143.798C203.206 142.613 205.677 135.124 205.398 130.177C205.363 129.341 205.224 128.47 205.016 127.669C204.981 127.53 205.085 127.356 205.224 127.321C205.363 127.286 205.537 127.391 205.572 127.53C205.781 128.401 205.92 129.272 205.955 130.142C206.233 135.089 203.902 142.997 198.057 144.32C197.535 144.495 196.944 144.564 196.318 144.564Z" fill="#222222"/>
<path d="M176.69 135.007C173.906 135.007 170.914 133.44 169.21 131.036C165.73 126.124 168.618 119.088 171.819 115.639C173.002 114.35 174.463 113.305 176.133 112.504C176.272 112.434 176.446 112.504 176.516 112.643C176.585 112.783 176.516 112.957 176.377 113.026C174.776 113.793 173.385 114.803 172.236 116.022C169.175 119.332 166.357 126.09 169.662 130.723C171.471 133.266 174.707 134.764 177.525 134.415C182.952 133.753 185.736 126.473 186.258 122.049C186.397 120.76 186.397 119.436 186.188 118.147C186.153 118.008 186.258 117.869 186.431 117.834C186.571 117.799 186.71 117.903 186.745 118.078C186.919 119.436 186.953 120.795 186.814 122.118C186.292 126.891 183.37 134.276 177.594 135.007C177.281 134.973 177.003 135.007 176.69 135.007Z" fill="#222222"/>
<path d="M199.724 131.652C200.246 131.199 200.28 130.606 200.28 130.502C199.585 130.293 198.854 130.049 198.158 129.84C198.297 130.572 198.402 131.303 198.541 132.07C198.645 132.035 199.237 132.07 199.724 131.652Z" fill="#EFEFEF"/>
<path d="M179.823 118.223C178.988 119.512 178.57 121.672 179.683 122.647C180.17 123.1 180.797 123.135 181.04 123.135C182.606 123.135 183.719 121.358 184.102 120.174C184.241 119.721 184.763 118.119 183.893 117.109C183.824 117.039 183.406 116.551 182.71 116.447C181.179 116.238 179.962 118.014 179.823 118.223Z" fill="#222222"/>
<path d="M182.923 122.753C183.445 122.3 183.48 121.708 183.48 121.603C182.784 121.394 182.053 121.15 181.357 120.941C181.497 121.673 181.601 122.405 181.74 123.171C181.844 123.171 182.436 123.171 182.923 122.753Z" fill="#EFEFEF"/>
<path d="M186.116 146.323C185.837 146.323 185.524 146.219 185.316 145.975C184.272 144.86 183.019 143.954 181.662 143.327C180.097 142.561 178.392 142.143 176.618 142.073C175.991 142.038 175.539 141.551 175.539 140.924C175.574 140.297 176.061 139.844 176.687 139.844C178.775 139.913 180.758 140.401 182.602 141.307C184.202 142.073 185.663 143.118 186.916 144.442C187.333 144.895 187.333 145.592 186.881 146.01C186.672 146.219 186.394 146.323 186.116 146.323Z" fill="#222222"/>
<path d="M168.549 141.984C168.41 141.984 168.306 141.88 168.271 141.74L167.332 134.077C167.297 133.937 167.436 133.798 167.575 133.763C167.714 133.728 167.853 133.868 167.888 134.007L168.828 141.671C168.828 141.845 168.723 141.984 168.549 141.984C168.584 141.984 168.549 141.984 168.549 141.984Z" fill="#222222"/>
<path d="M165.637 140.48C165.498 140.48 165.394 140.376 165.359 140.237L164.419 132.573C164.385 132.434 164.524 132.294 164.663 132.259C164.802 132.224 164.941 132.364 164.976 132.503L165.916 140.167C165.916 140.306 165.811 140.446 165.637 140.48Z" fill="#222222"/>
<path d="M162.67 138.977C162.531 138.977 162.427 138.872 162.392 138.733L161.453 131.069C161.418 130.93 161.557 130.79 161.696 130.755C161.835 130.721 161.975 130.86 162.009 130.999L162.949 138.663C162.984 138.802 162.844 138.942 162.67 138.977C162.705 138.977 162.67 138.977 162.67 138.977Z" fill="#222222"/>
<path d="M159.741 137.449C159.602 137.449 159.497 137.345 159.462 137.205L158.523 129.542C158.488 129.402 158.627 129.263 158.767 129.228C158.906 129.193 159.045 129.333 159.08 129.472L160.019 137.136C160.019 137.31 159.915 137.449 159.741 137.449Z" fill="#222222"/>
<path d="M202.155 157.707C202.016 157.707 201.911 157.602 201.876 157.463L200.937 149.799C200.902 149.66 201.041 149.521 201.181 149.486C201.32 149.451 201.459 149.59 201.494 149.73L202.433 157.393C202.433 157.568 202.329 157.707 202.155 157.707Z" fill="#222222"/>
<path d="M199.2 156.203C199.061 156.203 198.956 156.099 198.921 155.959L197.982 148.295C197.947 148.156 198.086 148.017 198.226 147.982C198.365 147.947 198.504 148.086 198.539 148.226L199.478 155.89C199.513 156.029 199.408 156.168 199.2 156.203C199.234 156.203 199.234 156.203 199.2 156.203Z" fill="#222222"/>
<path d="M196.278 154.699C196.139 154.699 196.034 154.595 195.999 154.455L195.06 146.792C195.025 146.652 195.164 146.513 195.304 146.478C195.443 146.443 195.582 146.583 195.617 146.722L196.556 154.386C196.556 154.525 196.452 154.664 196.278 154.699C196.313 154.699 196.278 154.699 196.278 154.699Z" fill="#222222"/>
<path d="M193.323 153.172C193.184 153.172 193.079 153.067 193.044 152.928L192.105 145.264C192.07 145.125 192.209 144.986 192.349 144.951C192.488 144.916 192.627 145.055 192.662 145.195L193.601 152.858C193.636 153.032 193.531 153.172 193.323 153.172C193.358 153.172 193.358 153.172 193.323 153.172Z" fill="#222222"/>
<path d="M190.118 120.591C190.014 120.591 189.875 120.591 189.736 120.557C189.597 120.522 189.492 120.417 189.492 120.243C189.527 120.104 189.631 119.964 189.805 119.999C190.118 120.034 190.466 119.999 190.745 119.93C192.484 119.442 193.632 116.725 193.702 112.997C193.702 112.858 193.806 112.719 193.98 112.719C194.12 112.719 194.259 112.858 194.259 112.997C194.189 117.003 192.902 119.86 190.884 120.452C190.64 120.557 190.397 120.591 190.118 120.591Z" fill="#222222"/>
<path d="M154.081 205.136C154.011 205.136 153.977 205.136 153.907 205.136C153.315 205.031 152.898 204.474 153.002 203.847L159.23 165.18C159.334 164.587 159.891 164.169 160.517 164.274C161.109 164.378 161.526 164.936 161.422 165.563L155.194 204.23C155.09 204.752 154.638 205.136 154.081 205.136Z" fill="#222222"/>
<path d="M183.855 204.71C183.403 204.71 182.986 204.431 182.812 204.013L171.887 176.981C171.643 176.424 171.922 175.762 172.513 175.553C173.07 175.309 173.731 175.588 173.94 176.18L184.864 203.212C185.108 203.77 184.829 204.431 184.238 204.64C184.134 204.675 183.994 204.71 183.855 204.71Z" fill="#222222"/>
<path d="M200.663 183.914C198.471 183.914 196.036 183.636 193.461 183.078C192.87 182.939 192.487 182.347 192.626 181.754C192.765 181.162 193.357 180.779 193.948 180.918C201.672 182.625 207.343 181.302 208.178 179.107C208.77 177.505 206.995 174.439 203.621 171.304C201.289 169.109 198.297 167.577 194.992 166.88C194.401 166.741 194.018 166.148 194.157 165.556C194.296 164.964 194.888 164.581 195.479 164.72C199.167 165.521 202.507 167.228 205.151 169.701C207.622 172.035 211.588 176.425 210.266 179.908C209.257 182.486 205.638 183.914 200.663 183.914Z" fill="#222222"/>
<path d="M156.862 115.295C156.757 115.295 156.653 115.295 156.549 115.261C155.957 115.086 155.609 114.459 155.783 113.867C157.592 107.736 161.419 98.7487 169.491 90.8063C173.91 86.4519 179.059 82.9336 184.765 80.3209C185.321 80.0771 185.982 80.3209 186.226 80.8783C186.47 81.4356 186.226 82.0975 185.669 82.3414C180.207 84.8147 175.267 88.1937 171.022 92.3739C163.298 100.003 159.61 108.607 157.871 114.494C157.766 114.982 157.349 115.295 156.862 115.295Z" fill="#222222"/>
<path d="M201.676 115.108C201.502 115.108 201.328 114.968 201.258 114.794C201.189 114.585 201.328 114.341 201.571 114.307C203.033 113.958 210.408 111.833 213.053 105.772C213.54 104.622 214.444 102.532 213.992 99.8848C213.818 98.9791 213.366 96.1922 210.826 94.5898C208.495 93.0919 205.955 93.5796 205.224 93.7886C205.016 93.8583 204.772 93.7189 204.703 93.4751C204.633 93.2661 204.772 93.0222 205.016 92.9526C206.059 92.6739 208.738 92.2559 211.243 93.8583C214.096 95.6697 214.618 98.7352 214.792 99.7106C215.279 102.602 214.305 104.901 213.818 106.016C211.035 112.46 203.311 114.655 201.78 115.038C201.745 115.108 201.71 115.108 201.676 115.108Z" fill="#222222"/>
<path d="M197.231 111.736C197.023 111.736 196.849 111.597 196.814 111.388C196.779 111.179 196.918 110.935 197.162 110.9C204.99 109.507 210.661 105.745 210.974 101.739C211.148 99.5441 210.417 98.1855 209.756 97.454C208.33 95.8168 205.755 95.2594 203.042 95.9909C202.833 96.0606 202.589 95.9213 202.52 95.7122C202.45 95.5032 202.589 95.2594 202.833 95.1897C205.86 94.3885 208.747 95.0504 210.383 96.9315C211.148 97.8024 212.018 99.3351 211.809 101.808C211.461 106.198 205.512 110.273 197.301 111.736C197.266 111.736 197.231 111.736 197.231 111.736Z" fill="#222222"/>
<path d="M191.027 107.341C190.818 107.341 190.609 107.167 190.609 106.958C190.609 106.714 190.783 106.54 190.992 106.54C194.193 106.4 200.142 105.843 204.178 103.788C206.753 102.464 207.24 101.21 207.309 100.722C207.344 100.478 207.414 99.8165 207.101 99.1894C206.37 97.7612 204.317 97.6915 204.213 97.6915C203.969 97.6915 203.795 97.4825 203.795 97.2735C203.795 97.0296 204.004 96.8555 204.213 96.8555C204.491 96.8555 206.857 96.9948 207.797 98.8062C208.214 99.6423 208.179 100.443 208.11 100.862C207.97 101.628 207.344 103.091 204.526 104.519C200.421 106.609 194.332 107.202 191.027 107.341C191.062 107.341 191.062 107.341 191.027 107.341Z" fill="#222222"/>
<path d="M89.3013 80.7066C101.118 80.7066 110.698 71.1149 110.698 59.283C110.698 47.4511 101.118 37.8594 89.3013 37.8594C77.484 37.8594 67.9043 47.4511 67.9043 59.283C67.9043 71.1149 77.484 80.7066 89.3013 80.7066Z" fill="url(#paint2_linear)"/>
<path d="M81.1254 54.8675C82.5519 54.7978 84.2567 54.7978 86.1702 55.0417C87.9446 55.2507 89.5102 55.6339 90.8323 56.0171C91.0759 54.972 91.2498 53.4741 91.0063 51.7323C90.9019 51.0356 90.7627 50.4086 90.554 49.8512C89.7886 49.4681 87.9098 48.632 85.4744 48.8759C83.4217 49.0849 81.9604 49.9209 81.2298 50.3738C80.9862 51.0705 80.7427 52.1155 80.8471 53.4044C80.8819 53.9618 80.9862 54.4843 81.1254 54.8675Z" fill="#EFEFEF"/>
<path d="M93.6352 50.039C93.4612 51.084 93.3569 52.4774 93.6004 54.0798C93.7048 54.8462 93.8787 55.5429 94.0875 56.1003C95.2356 55.7519 96.5577 55.4036 98.0885 55.1597C99.9673 54.881 101.637 54.8114 103.029 54.8114C103.099 53.836 103.064 52.6168 102.751 51.2234C102.577 50.457 102.368 49.7603 102.159 49.2029C100.837 49.0636 99.1323 48.9591 97.184 49.2377C95.7923 49.4119 94.6094 49.7254 93.6352 50.039Z" fill="#EFEFEF"/>
<path d="M77.7112 84.4906C77.6068 84.6997 77.2241 85.466 77.4677 86.3369C77.572 86.7898 77.8156 87.1033 77.9548 87.3123C77.3633 87.5561 76.911 88.0438 76.8762 88.5664C76.8414 89.2979 77.572 89.8204 77.8156 89.9598C78.9289 90.6913 80.8077 90.6565 81.921 89.6114C83.3823 88.1832 82.7908 85.6402 81.6427 84.3513C81.5383 84.2468 80.251 82.8186 78.9637 83.2366C78.1983 83.4804 77.8156 84.2468 77.7112 84.4906Z" fill="#EFEFEF"/>
<path d="M94.792 64.8811C91.5563 64.8811 88.3555 64.2193 85.433 62.9652C83.0671 61.955 80.91 60.5616 78.9965 58.8198C78.7182 58.576 78.6834 58.1231 78.9617 57.8444C79.2052 57.5658 79.6575 57.5309 79.9359 57.8096C81.745 59.4468 83.763 60.7706 85.9896 61.7111C89.1905 63.1045 92.7741 63.6967 96.3576 63.4529C96.7403 63.418 97.0882 63.7316 97.0882 64.1148C97.123 64.4979 96.8099 64.8463 96.4272 64.8463C95.9053 64.8463 95.3487 64.8811 94.792 64.8811Z" fill="#222222"/>
<path d="M94.2351 66.49C93.4696 66.49 92.7042 66.4552 91.9388 66.3855C90.7211 66.2461 89.4686 66.0371 88.2856 65.7235C88.1813 65.6886 88.1465 65.6189 88.1465 65.5144C88.1813 65.4099 88.2857 65.375 88.3552 65.375C89.5382 65.6886 90.7559 65.9325 91.9736 66.0371C92.9825 66.1416 93.9915 66.1764 94.9657 66.1416C95.0701 66.1416 95.1396 66.2113 95.1396 66.3158C95.1396 66.4204 95.0701 66.49 94.9657 66.49C94.7221 66.49 94.4786 66.49 94.2351 66.49Z" fill="#222222"/>
<path d="M78.1966 58.3258C78.127 58.3258 78.0923 58.2909 78.0575 58.2561C77.9879 58.1864 78.0227 58.0819 78.0923 58.0122C78.4054 57.7683 78.8229 57.594 79.2056 57.5243C79.9014 57.4198 80.4233 57.6289 80.7016 57.7683C80.7712 57.8031 80.806 57.9076 80.7712 58.0122C80.7364 58.0819 80.6321 58.1167 80.5277 58.0819C80.2841 57.9773 79.8318 57.8031 79.2404 57.8728C78.8229 57.9425 78.475 58.1167 78.2662 58.2909C78.2662 58.3258 78.2314 58.3258 78.1966 58.3258Z" fill="#222222"/>
<path d="M79.6331 90.5645C79.5983 90.5645 79.5635 90.5645 79.5287 90.5645C78.5545 90.5296 77.0237 90.0768 76.7453 89.0317C76.6062 88.4744 76.8497 87.9518 76.9193 87.8822C77.1281 87.499 77.4064 87.2551 77.6499 87.1506C77.3368 86.6978 77.1628 86.1752 77.1628 85.6527C77.1628 85.5134 77.2672 85.374 77.4064 85.374C77.5456 85.374 77.6499 85.4785 77.6847 85.6179C77.7195 86.1404 77.8935 86.6629 78.2762 87.0461C78.3458 87.1158 78.3458 87.1855 78.3458 87.29C78.3458 87.3945 78.2414 87.4293 78.1718 87.4642C77.9978 87.499 77.6151 87.6732 77.4064 88.0912C77.3716 88.126 77.1976 88.5092 77.2672 88.8924C77.4412 89.6239 78.7285 90.0071 79.5635 90.042C79.7374 90.042 81.477 90.0768 82.2772 88.7879C82.7295 88.0563 82.6947 87.29 82.6252 86.8371C82.5208 85.4089 81.5814 84.0851 80.3985 83.5626C80.2245 83.4929 80.0158 83.4233 79.7722 83.3884C79.4591 83.3884 79.1112 83.4581 78.7981 83.6323C78.6589 83.702 78.5197 83.6671 78.4501 83.5278C78.3806 83.3884 78.4154 83.2491 78.5545 83.1794C78.972 82.9356 79.3895 82.8311 79.807 82.8659C80.0506 82.8659 80.3289 82.9356 80.6072 83.0749C81.9641 83.6671 83.0079 85.165 83.147 86.7674C83.1818 87.2551 83.2514 88.1608 82.6947 89.0666C81.8249 90.46 80.1549 90.5645 79.6331 90.5645Z" fill="#222222"/>
<path d="M78.8893 90.5021C78.7849 90.5021 78.6806 90.4324 78.6458 90.3279C78.611 90.1885 78.6806 90.0491 78.7849 89.9794C79.0285 89.8749 79.3764 89.7006 79.6199 89.3522C80.1766 88.5159 79.6547 87.5054 79.6547 87.5054C79.5851 87.366 79.6547 87.2266 79.7591 87.157C79.8983 87.0873 80.0374 87.157 80.107 87.2615C80.1418 87.3312 80.7681 88.5508 80.0374 89.631C79.7243 90.1188 79.272 90.3627 78.9589 90.4672C78.9589 90.5021 78.9241 90.5021 78.8893 90.5021Z" fill="#222222"/>
<path d="M80.6351 90.4593C80.5655 90.4593 80.5307 90.4244 80.4611 90.3896C80.3567 90.2851 80.3219 90.1457 80.4263 90.0063C80.6698 89.6927 80.8438 89.3094 80.9482 88.9261C81.1221 88.0898 80.8786 87.3929 80.7046 87.0445C80.6351 86.9051 80.7046 86.7657 80.809 86.696C80.9482 86.6263 81.0873 86.696 81.1569 86.8006C81.3657 87.2187 81.644 88.0201 81.4353 89.0306C81.3309 89.4836 81.1221 89.9366 80.809 90.3199C80.7742 90.4244 80.7046 90.4593 80.6351 90.4593Z" fill="#222222"/>
<path d="M81.9615 89.5975C81.9267 89.5975 81.8919 89.5975 81.8571 89.5626C81.718 89.4929 81.6484 89.3536 81.718 89.2142C81.8919 88.7612 81.9615 88.3082 81.9615 87.8204C81.9615 87.3325 81.8571 86.8447 81.6484 86.4266C81.5788 86.2872 81.6484 86.1478 81.7876 86.0781C81.9267 86.0084 82.0659 86.0781 82.1355 86.2175C82.379 86.7402 82.4834 87.2629 82.5182 87.8204C82.5182 88.3779 82.4486 88.9006 82.2399 89.4232C82.1703 89.5278 82.0659 89.5975 81.9615 89.5975Z" fill="#222222"/>
<path d="M78.2712 88.7822C78.2364 88.7822 78.2016 88.7822 78.2016 88.7822C78.0624 88.7474 77.9928 88.5732 78.0276 88.4686C78.0624 88.3293 78.0972 88.155 78.0624 88.0157C78.0276 87.7717 77.9233 87.5627 77.8189 87.4581C77.7145 87.3536 77.7493 87.1794 77.8537 87.0748C77.958 86.9703 78.132 87.0051 78.2364 87.1097C78.3756 87.2839 78.5495 87.5627 78.5843 87.946C78.6191 88.1899 78.5843 88.3989 78.5147 88.6429C78.4799 88.7126 78.4103 88.7822 78.2712 88.7822Z" fill="#222222"/>
<path d="M90.7953 56.265C90.7605 56.265 90.7605 56.265 90.7953 56.265C90.6562 56.2302 90.6214 56.1605 90.6214 56.056C91.0041 54.1749 90.9693 52.2938 90.5866 50.4475C90.2734 48.9148 89.682 47.4517 88.847 46.128C88.8122 46.0583 88.8122 45.9538 88.9166 45.8841C88.9862 45.8493 89.0905 45.8493 89.1601 45.9538C89.9951 47.3124 90.5866 48.8103 90.9345 50.3779C91.352 52.2938 91.352 54.2097 90.9693 56.1257C90.9345 56.1953 90.8649 56.265 90.7953 56.265Z" fill="#222222"/>
<path d="M91.2004 56.385C91.1656 56.385 91.1656 56.385 91.1308 56.385C88.4171 55.4442 85.4946 54.9564 82.4677 55.0261C81.4239 55.0261 80.3801 55.1306 79.3016 55.27C79.1972 55.27 79.1276 55.2003 79.0928 55.1306C79.0581 55.0609 79.1624 54.9564 79.232 54.9216C80.3106 54.7822 81.3543 54.7125 82.4329 54.6776C85.4945 54.6428 88.4518 55.0958 91.2004 56.0714C91.3048 56.1063 91.3396 56.2108 91.3048 56.2805C91.3396 56.3502 91.27 56.385 91.2004 56.385Z" fill="#222222"/>
<path d="M88.3197 54.8532C89.3052 54.6886 89.9197 53.4476 89.6922 52.0812C89.4646 50.7148 88.4811 49.7406 87.4955 49.9051C86.5099 50.0697 85.8954 51.3108 86.123 52.6772C86.3506 54.0435 87.3341 55.0178 88.3197 54.8532Z" fill="#222222"/>
<path d="M85.9167 52.9252C85.9863 53.4479 86.369 53.7266 86.4385 53.7615C86.856 53.3782 87.3083 53.0297 87.7258 52.6464C87.204 52.4374 86.6821 52.2283 86.1602 51.9844C86.0906 52.0541 85.8471 52.4025 85.9167 52.9252Z" fill="#EFEFEF"/>
<path d="M99.9427 54.4626C100.928 54.298 101.543 53.0569 101.315 51.6906C101.088 50.3242 100.104 49.3499 99.1186 49.5145C98.133 49.6791 97.5185 50.9202 97.7461 52.2865C97.9736 53.6529 98.9571 54.6271 99.9427 54.4626Z" fill="#222222"/>
<path d="M97.5391 52.4682C97.6087 52.9908 97.9914 53.2696 98.061 53.3044C98.4785 52.9211 98.9308 52.5727 99.3483 52.1894C98.8264 51.9803 98.3046 51.7713 97.7827 51.5273C97.6783 51.6319 97.4348 51.9803 97.5391 52.4682Z" fill="#EFEFEF"/>
<path d="M87.1761 47.112C85.4713 47.112 83.8013 46.3455 83.349 46.1364C83.001 45.9622 82.8619 45.544 83.0358 45.1956C83.2098 44.8471 83.6273 44.7077 83.9752 44.882C84.1144 44.9517 87.3152 46.4848 88.8809 45.1956C89.02 45.0562 89.1592 44.9168 89.2984 44.7426C89.5071 44.429 89.9594 44.3244 90.2725 44.5684C90.5857 44.7774 90.69 45.2304 90.4465 45.544C90.2377 45.8228 90.029 46.0667 89.7507 46.2758C88.9852 46.903 88.0807 47.112 87.1761 47.112Z" fill="#222222"/>
<path d="M102.964 54.9962C102.964 54.9962 102.929 54.9962 102.964 54.9962C102.859 54.9962 102.79 54.8917 102.79 54.7872C102.929 53.4286 102.894 51.3385 101.92 49.109C101.363 47.855 100.563 46.7402 99.5541 45.7649C99.4846 45.6952 99.4846 45.5907 99.5541 45.521C99.6237 45.4513 99.7281 45.4513 99.7977 45.521C100.841 46.5312 101.676 47.6808 102.268 48.9697C103.312 51.2688 103.346 53.3938 103.172 54.822C103.103 54.9265 103.033 54.9962 102.964 54.9962Z" fill="#222222"/>
<path d="M93.0466 50.4146C92.7335 50.4146 92.4552 50.2055 92.3856 49.8919C92.2812 49.5086 92.5247 49.1253 92.9074 49.0556C95.6212 48.3936 98.4045 48.1148 101.118 48.289C101.605 48.3239 102.127 48.3587 102.614 48.4284C102.997 48.4633 103.275 48.8117 103.206 49.195C103.171 49.5783 102.823 49.8571 102.44 49.7874C101.988 49.7177 101.501 49.6828 101.049 49.648C98.4741 49.4738 95.8648 49.7177 93.2554 50.3797C93.151 50.4146 93.0814 50.4146 93.0466 50.4146Z" fill="#222222"/>
<path d="M80.7075 50.6946C80.3944 50.6946 80.1161 50.4855 80.0465 50.2068C79.9421 49.8235 80.1509 49.4402 80.4988 49.3356C83.2473 48.4994 86.0307 48.2554 88.7792 48.569C89.4055 48.6387 90.0665 48.7433 90.6928 48.8826C91.0755 48.9523 91.319 49.3356 91.2147 49.7189C91.1451 50.1022 90.7624 50.3461 90.3797 50.2416C89.7882 50.1022 89.1967 49.9977 88.6053 49.928C86.0655 49.6144 83.4561 49.8583 80.8815 50.6597C80.8467 50.6946 80.7771 50.6946 80.7075 50.6946Z" fill="#222222"/>
<path d="M93.605 56.4312C93.5354 56.4312 93.4658 56.3964 93.431 56.3267C93.3962 56.2222 93.431 56.1525 93.5354 56.1176C95.6577 55.3162 97.9887 54.8632 100.389 54.689C101.503 54.6193 102.651 54.6193 103.799 54.689C103.903 54.689 103.973 54.7935 103.973 54.8632C103.973 54.9677 103.869 55.0374 103.799 55.0374C102.686 54.9677 101.538 54.9677 100.424 55.0374C98.0583 55.1768 95.7621 55.6646 93.6746 56.4312C93.6746 56.4312 93.6398 56.4312 93.605 56.4312Z" fill="#222222"/>
<path d="M101.407 45.4288C101.198 45.4288 100.99 45.3243 100.851 45.15C99.7372 43.6169 98.102 42.7806 96.9191 43.1639C96.5712 43.2684 96.2232 43.5123 95.9449 43.8259C95.7014 44.1047 95.2491 44.1395 94.9707 43.8956C94.6924 43.6517 94.6576 43.1987 94.9011 42.9199C95.3534 42.3973 95.9101 42.0488 96.5016 41.8398C98.276 41.2474 100.468 42.2579 101.964 44.3138C102.173 44.6274 102.138 45.0455 101.825 45.2894C101.686 45.3591 101.546 45.4288 101.407 45.4288Z" fill="#222222"/>
<path d="M94.0602 56.3128C93.9906 56.3128 93.921 56.2779 93.8862 56.2083C93.3644 54.8148 93.1208 53.3518 93.1556 51.8539C93.1904 50.983 93.2948 50.1121 93.5035 49.2761C93.5383 49.1716 93.6079 49.1367 93.7123 49.1367C93.8167 49.1716 93.8514 49.2412 93.8514 49.3457C93.6427 50.1818 93.5383 51.0178 93.5035 51.8539C93.4687 53.2821 93.7123 54.7103 94.1994 56.0689C94.2342 56.1734 94.1994 56.2431 94.095 56.2779C94.095 56.3128 94.095 56.3128 94.0602 56.3128Z" fill="#222222"/>
<path d="M81.0859 55.0841C81.0163 55.0841 80.9468 55.0144 80.912 54.9447C80.6684 53.9693 80.5988 52.9591 80.7032 51.9837C80.7728 51.2174 80.9468 50.4858 81.1903 49.7543C81.2251 49.6498 81.3295 49.6149 81.3991 49.6498C81.5034 49.6846 81.5382 49.7891 81.5034 49.8588C81.2599 50.5555 81.0859 51.287 81.0163 52.0186C80.912 52.9591 80.9816 53.9345 81.2251 54.8751C81.2599 54.9796 81.1903 55.0492 81.0859 55.0841Z" fill="#222222"/>
<path d="M133.487 34.3119C132.652 34.9041 131.851 35.4963 131.016 36.1233C130.842 36.2278 130.251 36.5762 129.416 36.5413C128.581 36.4717 128.024 36.0188 127.885 35.8795L125.624 33.7197C124.823 33.023 124.58 32.0476 125.032 31.4206L126.18 29.8878C126.598 29.2956 127.572 29.226 128.442 29.7137C130.042 30.5845 131.643 31.4554 133.278 32.2915C133.765 32.5005 134.078 32.9882 134.043 33.4759C134.008 33.9635 133.521 34.2771 133.487 34.3119Z" fill="#61788E"/>
<path d="M129.62 36.6655C129.55 36.6655 129.481 36.6655 129.411 36.6655C128.576 36.5958 128.019 36.1778 127.776 35.934L125.514 33.7742C124.679 33.0078 124.401 31.9279 124.888 31.2661L126.036 29.7333C126.523 29.0714 127.567 28.9669 128.541 29.5243L133.377 32.1021C133.934 32.3111 134.282 32.8685 134.247 33.4258C134.212 34.0529 133.69 34.4012 133.586 34.4361L131.151 36.2475C130.838 36.3868 130.316 36.6655 129.62 36.6655ZM127.254 29.4895C126.836 29.4895 126.489 29.6288 126.28 29.9075L125.132 31.4402C124.749 31.9976 124.992 32.8685 125.688 33.4955L127.95 35.6553C128.159 35.8643 128.68 36.2127 129.376 36.2823C130.072 36.352 130.594 36.0733 130.872 35.8991L133.308 34.1225C133.343 34.0877 133.76 33.8439 133.795 33.3562C133.83 32.9381 133.551 32.5201 133.134 32.3459L128.298 29.7333C127.985 29.594 127.602 29.4895 127.254 29.4895Z" fill="#222222"/>
<path d="M127.88 29.3681C127.637 29.2287 127.254 28.9501 126.941 28.4624C126.802 28.2185 126.419 27.7308 126.454 27.069C126.454 26.4768 126.767 26.0587 126.906 25.8497C127.532 24.944 128.68 23.3068 130.246 21.2863C130.42 21.0425 130.733 20.52 130.698 19.8233C130.698 19.6491 130.664 19.4749 130.594 19.3007C130.385 18.813 129.759 18.3602 129.759 18.3253C129.237 17.9422 128.715 17.559 128.193 17.1758C125.758 20.4851 123.357 23.7945 120.922 27.1038C121.131 27.1735 121.722 27.4173 122.105 28.0444C122.801 29.1242 122.209 30.3435 122.174 30.448C123.079 31.1099 123.984 31.7717 124.888 32.4336C124.853 32.3639 124.784 32.1897 124.784 31.9459C124.819 31.7717 124.888 31.6324 124.923 31.5627C125.375 30.9705 125.828 30.3435 126.28 29.7513C126.384 29.6468 126.523 29.5423 126.732 29.4726C127.219 29.1591 127.706 29.3333 127.88 29.3681Z" fill="#8296AD"/>
<path d="M124.853 32.5745C124.818 32.5745 124.784 32.5745 124.749 32.5396L122.035 30.554C121.965 30.5192 121.931 30.4147 121.965 30.345C122 30.3102 122.557 29.1258 121.896 28.1156C121.548 27.593 121.061 27.3492 120.817 27.2447C120.782 27.2098 120.713 27.175 120.713 27.1402C120.713 27.0705 120.713 27.0357 120.748 27.0008L128.019 17.0728C128.089 17.0031 128.193 16.9683 128.263 17.038L129.828 18.1875L129.863 18.2224C130.107 18.4314 130.524 18.8146 130.733 19.2326C130.837 19.4764 130.837 19.6506 130.872 19.8248C130.907 20.4867 130.629 21.044 130.385 21.3924C128.437 23.9353 127.358 25.5378 127.045 25.9558C126.906 26.1648 126.628 26.548 126.628 27.1053C126.593 27.6975 126.941 28.1852 127.08 28.3942C127.323 28.7426 127.602 29.0213 127.984 29.2651C128.054 29.3 128.089 29.4045 128.054 29.4741C128.019 29.5438 127.915 29.5786 127.845 29.5786C127.636 29.509 127.219 29.4045 126.767 29.5786C126.628 29.6483 126.488 29.718 126.384 29.8225L125.062 31.6339C125.027 31.7036 124.957 31.8081 124.957 31.9474C124.923 32.1216 124.992 32.2958 125.027 32.3654C125.062 32.4351 125.062 32.5396 124.992 32.5745C124.923 32.5745 124.888 32.5745 124.853 32.5745ZM122.348 30.345L124.575 31.9823C124.575 31.9474 124.575 31.9126 124.575 31.8778C124.61 31.7036 124.644 31.5642 124.749 31.4249L126.106 29.5786C126.28 29.4045 126.419 29.3 126.628 29.2303C126.836 29.1258 127.045 29.0909 127.254 29.0909C127.08 28.9168 126.941 28.7774 126.801 28.5684C126.628 28.3246 126.245 27.7672 126.28 27.0705C126.314 26.4435 126.628 25.9558 126.767 25.7468C127.045 25.3287 128.158 23.7263 130.107 21.1834C130.315 20.9047 130.559 20.417 130.524 19.8596C130.524 19.7203 130.489 19.5461 130.42 19.3719C130.315 19.0933 130.037 18.7797 129.654 18.4662L129.62 18.4314L128.193 17.3863L121.165 27.0008C121.478 27.1402 121.896 27.4189 122.209 27.9066C122.835 28.8819 122.522 29.9618 122.348 30.345Z" fill="#222222"/>
<path d="M128.893 29.8878C129.624 28.9124 129.798 27.6235 129.345 26.5784C128.858 25.4985 127.884 25.0805 127.641 24.976C127.815 24.6625 128.023 24.3838 128.197 24.0703C128.371 24.14 130.111 24.767 130.702 26.6133C131.329 28.7034 129.902 30.3058 129.833 30.4103C129.519 30.2013 129.206 30.062 128.893 29.8878Z" fill="#61788E"/>
<path d="M129.833 30.5266C129.798 30.5266 129.763 30.5266 129.763 30.4917L128.824 30.004C128.789 29.9692 128.754 29.9344 128.72 29.8995C128.72 29.8647 128.72 29.795 128.754 29.7602C129.45 28.8196 129.624 27.6352 129.172 26.625C128.754 25.6845 127.885 25.2316 127.537 25.0923C127.502 25.0574 127.467 25.0226 127.432 24.9878C127.398 24.9529 127.432 24.8833 127.467 24.8484L128.024 23.9427C128.059 23.873 128.163 23.8382 128.233 23.873C128.441 23.9427 130.251 24.6046 130.842 26.5205C131.503 28.7151 130.007 30.3872 129.937 30.4569C129.903 30.5266 129.868 30.5266 129.833 30.5266ZM129.137 29.795L129.763 30.1434C130.077 29.7602 131.051 28.3668 130.494 26.625C130.007 25.0574 128.685 24.4304 128.233 24.2562L127.85 24.8833C128.302 25.0923 129.068 25.58 129.45 26.4857C129.972 27.5307 129.833 28.7848 129.137 29.795Z" fill="#222222"/>
<path d="M126.467 26.9883C127.197 27.3019 127.963 27.5806 128.693 27.8943C128.415 28.3472 128.137 28.8351 127.858 29.2881C127.65 29.1835 127.197 28.9048 126.85 28.3472C126.467 27.7549 126.467 27.1974 126.467 26.9883Z" fill="#43515B"/>
<path d="M127.851 29.4439C127.817 29.4439 127.782 29.4439 127.782 29.409C127.469 29.2348 127.051 28.9561 126.703 28.4334C126.355 27.8759 126.286 27.3183 126.321 26.935C126.321 26.8654 126.355 26.8305 126.39 26.7957C126.425 26.7608 126.494 26.7608 126.564 26.7957L128.791 27.7016C128.826 27.7365 128.86 27.7713 128.895 27.8062C128.895 27.841 128.895 27.9107 128.895 27.9455L128.06 29.3393C127.956 29.409 127.886 29.4439 127.851 29.4439ZM126.634 27.2138C126.668 27.4926 126.738 27.8759 126.982 28.2592C127.225 28.6425 127.538 28.8864 127.782 29.0606L128.443 27.9804L126.634 27.2138Z" fill="#222222"/>
<path d="M122.248 28.3414C124.161 25.7636 126.04 23.151 127.954 20.5732C127.989 20.5384 128.441 19.9462 128.197 19.2146C127.989 18.5876 127.397 18.3786 127.327 18.3438C125.205 21.2699 123.048 24.1612 120.926 27.0874C121.1 27.157 121.413 27.2964 121.726 27.5751C122.004 27.8538 122.143 28.1673 122.248 28.3414Z" fill="#61788E"/>
<path d="M122.234 28.5065C122.2 28.5065 122.2 28.5065 122.234 28.5065C122.165 28.5065 122.095 28.4717 122.06 28.402C121.956 28.1233 121.782 27.8795 121.573 27.7053C121.365 27.4963 121.121 27.357 120.843 27.2525C120.773 27.2176 120.738 27.1828 120.738 27.148C120.738 27.1131 120.738 27.0435 120.773 27.0086L127.175 18.265C127.21 18.1953 127.314 18.1953 127.384 18.1953C127.488 18.2301 128.114 18.474 128.358 19.1707C128.636 19.9719 128.114 20.6686 128.079 20.7034L122.408 28.4717C122.339 28.4717 122.269 28.5065 122.234 28.5065ZM121.156 27.0086C121.399 27.1131 121.608 27.2525 121.817 27.4266C121.991 27.6008 122.13 27.775 122.269 27.984L127.801 20.4596C127.836 20.4248 128.253 19.9022 128.01 19.2752C127.871 18.8572 127.557 18.6482 127.384 18.5785L121.156 27.0086Z" fill="#222222"/>
<path d="M134.631 32.0705C134.213 33.0113 132.613 33.0113 132.508 33.0462C131.082 33.0462 129.308 32.0357 129.342 30.6767C129.377 29.5617 130.63 28.5512 131.813 28.5512C133.656 28.5163 135.153 30.8858 134.631 32.0705Z" fill="#EFEFEF"/>
<path d="M132.479 33.2663C131.47 33.2663 130.357 32.8134 129.696 32.1167C129.278 31.6638 129.035 31.1762 129.07 30.6536C129.104 29.4692 130.427 28.2848 131.818 28.25C132.966 28.25 133.941 29.0512 134.462 29.8176C135.019 30.6536 135.158 31.5245 134.915 32.1515C134.393 33.2314 132.688 33.2663 132.479 33.2663ZM131.853 28.7725H131.818C130.74 28.8074 129.626 29.7131 129.592 30.6536C129.592 31.1413 129.835 31.5245 130.079 31.7335C130.635 32.3257 131.644 32.7089 132.514 32.7089C132.514 32.7089 134.045 32.7089 134.393 31.9077C134.602 31.4548 134.428 30.7581 134.01 30.0963C133.558 29.4692 132.792 28.7725 131.853 28.7725Z" fill="#222222"/>
<path d="M131.599 33.044C131.564 33.044 131.529 33.044 131.495 33.0092C131.355 32.9395 131.286 32.8001 131.355 32.6607C131.703 31.8593 132.19 31.1624 132.817 30.57C133.165 30.2564 133.547 29.9428 133.965 29.6989C134.104 29.6292 134.243 29.6641 134.313 29.8034C134.382 29.9428 134.348 30.0822 134.208 30.1519C133.826 30.361 133.478 30.6397 133.165 30.9533C132.608 31.5108 132.156 32.1381 131.842 32.8698C131.808 32.9743 131.703 33.044 131.599 33.044Z" fill="#222222"/>
<path d="M130.21 32.309C130.176 32.309 130.141 32.309 130.106 32.309C129.967 32.2742 129.897 32.1 129.967 31.9606C130.176 31.4031 130.454 30.8455 130.802 30.3577C131.289 29.6608 131.915 29.0336 132.611 28.5458C132.715 28.4761 132.889 28.4761 132.959 28.6155C133.028 28.72 133.028 28.8942 132.889 28.9639C132.228 29.4169 131.672 30.0093 131.184 30.6713C130.871 31.1243 130.593 31.647 130.419 32.1697C130.419 32.2393 130.315 32.309 130.21 32.309Z" fill="#222222"/>
<path d="M128.508 25.8962C127.743 25.1993 125.725 25.722 125.447 26.8719C125.342 27.2552 125.412 27.7778 125.76 28.0914C126.56 28.7883 128.717 27.9521 128.856 26.837C128.891 26.4886 128.752 26.1401 128.508 25.8962Z" fill="#EFEFEF"/>
<path d="M126.566 28.5744C126.183 28.5744 125.835 28.4699 125.592 28.2608C125.174 27.8775 125.105 27.2503 125.209 26.7973C125.383 26.205 125.975 25.6823 126.775 25.4384C127.54 25.2293 128.306 25.299 128.723 25.7171C129.036 25.9959 129.21 26.4489 129.141 26.867C129.036 27.5988 128.271 28.1563 127.61 28.4002C127.262 28.5047 126.914 28.5744 126.566 28.5744ZM127.54 25.8565C127.331 25.8565 127.123 25.8914 126.879 25.9611C126.253 26.1353 125.801 26.5186 125.696 26.9716C125.627 27.2503 125.661 27.7033 125.905 27.9124C126.183 28.1563 126.775 28.1563 127.401 27.9472C128.062 27.7033 128.549 27.2503 128.584 26.8322C128.619 26.5883 128.514 26.3095 128.34 26.1353C128.166 25.9262 127.888 25.8565 127.54 25.8565Z" fill="#222222"/>
<path d="M77.8433 163.015C77.8085 163.015 77.7737 163.015 77.7389 163.015C77.3562 162.98 77.0778 162.631 77.1474 162.248L87.8633 79.2709C87.8981 78.8877 88.246 78.609 88.6287 78.6787C89.0114 78.7135 89.2898 79.0619 89.2202 79.4451L78.5043 162.422C78.4695 162.771 78.1912 163.015 77.8433 163.015Z" fill="#222222"/>
<path d="M88.0474 162.787H88.0126C87.6299 162.752 87.3516 162.439 87.3516 162.056L92.6051 83.99C92.6399 83.6068 92.953 83.3281 93.3358 83.3281C93.7185 83.363 93.9968 83.6765 93.9968 84.0597L88.7432 162.125C88.7084 162.508 88.4301 162.787 88.0474 162.787Z" fill="#222222"/>
<path d="M98.3451 168.533C96.0836 168.463 94.4136 167.871 93.4047 167.418C92.187 166.861 91.1084 166.373 90.2386 165.224C89.2644 163.9 89.1253 162.437 89.1253 161.74C88.4642 161.671 87.8032 161.601 87.1421 161.531C86.829 164.632 86.5159 167.767 86.168 170.867C87.0726 170.867 87.9772 170.867 88.8817 170.902C89.0557 170.379 89.2297 169.857 89.4036 169.334C89.6472 169.509 90.0647 169.752 90.6213 170.031C92.8828 171.146 95.0399 171.215 96.3968 171.285C96.8491 171.285 97.5449 171.285 98.3799 171.25C98.3451 170.345 98.3451 169.439 98.3451 168.533Z" fill="#222222"/>
<path d="M68.8977 168.533C69.6631 168.429 70.8113 168.185 72.0638 167.593C73.1075 167.105 74.2556 166.583 75.2298 165.398C76.3084 164.04 76.5867 162.611 76.6563 161.88C77.3173 161.775 78.0132 161.671 78.6742 161.566C78.535 164.736 78.3611 167.906 78.2219 171.042C77.4565 171.042 76.6911 171.007 75.9257 171.007C75.9604 170.484 76.03 169.962 76.0648 169.404C75.6473 169.683 75.1602 169.962 74.6036 170.206C72.3421 171.251 70.185 171.251 68.8281 171.111C68.8629 170.275 68.8629 169.404 68.8977 168.533Z" fill="#222222"/>
<path d="M78.0239 85.2533C76.8062 85.2185 75.6233 85.114 74.4403 84.9398H74.4055C70.9611 84.3476 67.0297 83.6858 66.1251 81.1776C64.803 77.4154 71.3439 72.4688 72.1093 71.9115C72.9443 71.2844 73.8489 70.7619 74.7883 70.2742C75.1362 70.1 75.5537 70.2394 75.7276 70.5877C75.9016 70.9361 75.7624 71.3541 75.4145 71.5283C74.5447 71.9463 73.7097 72.4688 72.9443 73.0262C71.1351 74.3499 66.6122 78.3211 67.4472 80.6899C68.0734 82.4317 71.6918 83.0587 74.6491 83.5464H74.6839C75.7972 83.7206 76.9453 83.8251 78.0587 83.8599C78.4414 83.8599 78.7545 84.1734 78.7545 84.5566C78.7197 84.9398 78.4066 85.2533 78.0239 85.2533Z" fill="#222222"/>
<path d="M113.026 61.8093C112.817 61.8093 112.608 61.7048 112.469 61.5306C112.26 61.2171 112.33 60.7991 112.643 60.5553C117.166 57.3156 120.923 53.0309 123.498 48.1539C125.829 43.7299 127.255 38.7484 127.603 33.7322C127.638 33.349 127.951 33.0703 128.334 33.0703C128.717 33.1051 128.995 33.4187 128.995 33.8019C128.647 38.9923 127.186 44.1827 124.75 48.781C122.071 53.8669 118.175 58.3258 113.478 61.67C113.339 61.7745 113.165 61.8093 113.026 61.8093Z" fill="#222222"/>
<path d="M71.731 46.291C70.4785 46.291 69.1912 45.9427 68.0083 45.246C67.8691 45.1763 67.8343 45.0021 67.9039 44.8976C67.9735 44.7583 68.1475 44.7235 68.2518 44.7931C70.4089 46.082 73.0183 46.082 75.0015 44.7931C77.1586 43.3997 77.6804 41.1006 77.8196 40.4387C77.8196 40.3691 77.8892 40.2994 77.9588 40.2646C78.0284 40.2297 78.0979 40.2297 78.1675 40.2297C83.4211 42.1457 89.0574 40.8568 92.2234 36.99C95.0416 33.5762 94.798 29.4657 94.5893 27.8284C94.5545 27.6891 94.6589 27.5497 94.798 27.5497C94.9372 27.5149 95.0764 27.6194 95.0764 27.7587C95.3199 29.4308 95.5286 33.7155 92.6061 37.3036C89.3705 41.2748 83.6298 42.6682 78.2371 40.8219C78.0284 41.7973 77.3325 43.9223 75.245 45.246C74.236 45.9427 73.0183 46.291 71.731 46.291Z" fill="#222222"/>
<path d="M81.6126 40.9272C79.6295 40.9272 78.203 40.5092 77.8899 40.4395C77.7507 40.4047 77.6811 40.2653 77.7159 40.126C77.7507 39.9867 77.8899 39.917 78.029 39.9518C78.6553 40.1608 84.3959 41.7284 89.0928 37.8617C92.4328 35.1097 93.1287 31.3824 93.2679 29.8845C93.2679 29.7451 93.407 29.6406 93.5462 29.6406C93.6853 29.6406 93.7897 29.78 93.7897 29.9193C93.6506 31.452 92.8851 35.3884 89.406 38.2449C86.7966 40.3698 83.8741 40.9272 81.6126 40.9272Z" fill="#222222"/>
<path d="M80.0445 40.3043C79.0703 40.3043 78.3049 40.1998 77.8874 40.1301C77.7482 40.0953 77.6438 39.956 77.6786 39.8166C77.7134 39.6773 77.8526 39.5728 77.9917 39.6076C79.2442 39.8166 83.5932 40.3043 87.3855 37.413C89.9949 35.4274 91.0735 32.8147 91.491 31.4213C91.5258 31.282 91.6649 31.2123 91.8041 31.2472C91.9433 31.282 92.0129 31.4213 91.9781 31.5607C91.5258 32.9889 90.4124 35.7409 87.6987 37.831C85.0197 39.8515 82.0972 40.3043 80.0445 40.3043Z" fill="#222222"/>
<path d="M78.0976 40.1448C78.028 40.1448 77.9932 40.1448 77.9584 40.1448C77.8192 40.1448 77.7148 40.0403 77.7148 39.8661C77.7148 39.7268 77.8192 39.6223 77.9932 39.6223C79.6284 39.6223 82.8292 39.3436 85.7518 37.1141C87.1434 36.0342 88.2916 34.7105 89.1614 33.1081C89.2309 32.9688 89.3701 32.9339 89.5093 33.0036C89.6484 33.0733 89.6832 33.2474 89.6137 33.3519C88.7091 35.024 87.5261 36.4174 86.0649 37.5322C83.0728 39.7964 79.8371 40.1448 78.0976 40.1448Z" fill="#222222"/>
<path d="M71.938 44.9088C70.8246 44.9088 69.8852 44.6301 69.3286 44.3863C69.1894 44.3166 69.1198 44.1773 69.1894 44.0379C69.259 43.8986 69.3982 43.8289 69.5373 43.8986C70.3027 44.2121 71.7988 44.6301 73.5384 44.1424C76.3565 43.3412 77.4699 40.7634 77.6786 40.2409C77.7134 40.1015 77.8874 40.0319 78.0265 40.1016C78.1657 40.1364 78.2353 40.3106 78.1657 40.4499C77.9569 41.0073 76.7392 43.7941 73.6776 44.6649C73.0861 44.8391 72.4946 44.9088 71.938 44.9088Z" fill="#222222"/>
<path d="M71.6879 43.6009C71.3748 43.6009 71.0617 43.5661 70.8529 43.5661C70.7137 43.5661 70.6094 43.4267 70.6094 43.2873C70.6094 43.1479 70.7485 43.0434 70.8877 43.0434C71.7923 43.1479 73.5667 43.1479 75.3063 42.0677C76.2109 41.4754 77.0111 40.674 77.5677 39.7331C77.6373 39.5938 77.8113 39.5589 77.9157 39.6286C78.0548 39.6983 78.0896 39.8725 78.02 39.977C77.4286 41.0224 76.5936 41.8935 75.5846 42.5207C74.1929 43.3919 72.7317 43.6009 71.6879 43.6009Z" fill="#222222"/>
<path d="M35.4321 120.605C47.2494 120.605 56.8291 111.013 56.8291 99.1814C56.8291 87.3495 47.2494 77.7578 35.4321 77.7578C23.6149 77.7578 14.0352 87.3495 14.0352 99.1814C14.0352 111.013 23.6149 120.605 35.4321 120.605Z" fill="url(#paint3_linear)"/>
<path d="M23.752 88.8031C24.6217 92.8788 25.4568 96.9545 26.3266 101.03C30.7451 100.786 35.1289 100.577 39.5474 100.334C40.1041 99.184 40.626 98.0344 41.1827 96.9197C41.6002 98.0692 42.0177 99.2188 42.4352 100.368C45.81 100.543 49.1848 100.682 52.5596 100.856C53.0815 96.7803 53.6381 92.7046 54.16 88.6289C44.0008 88.6637 33.8764 88.7334 23.752 88.8031Z" fill="#EFEFEF"/>
<path d="M22.8323 121.828C22.5192 122.63 22.6932 123.326 22.7975 123.64C23.1107 124.789 23.9805 125.382 24.224 125.556C24.1544 125.625 23.7369 126.043 23.8065 126.601C23.9109 127.193 24.5719 127.472 24.7459 127.541C25.7548 127.959 27.1117 127.437 27.8771 126.566C28.9557 125.382 29.0601 123.396 28.1207 122.037C27.1117 120.574 24.9894 119.947 23.8065 120.644C23.1455 120.992 22.8671 121.724 22.8323 121.828Z" fill="#EFEFEF"/>
<path d="M30.8003 167.379H27.5647C26.5557 167.379 25.7207 168.215 25.7207 169.226C25.7207 170.236 26.5557 171.072 27.5647 171.072H32.192C33.2009 171.072 34.036 170.236 34.036 169.226C34.036 168.459 33.5837 167.832 32.9226 167.553" fill="#222222"/>
<path d="M38.9903 167.902C38.6423 168.25 38.4336 168.703 38.4336 169.226C38.4336 170.236 39.2686 171.072 40.2776 171.072H47.2011C48.2101 171.072 49.0451 170.236 49.0451 169.226C49.0451 168.215 48.2101 167.379 47.2011 167.379H41.1474" fill="#222222"/>
<path d="M35.6722 86.9127C35.3591 86.9127 35.046 86.9127 34.7677 86.8778C33.9326 86.8081 33.1324 86.6688 32.3322 86.4248C31.9495 86.3203 31.7408 85.937 31.8451 85.5537C31.9495 85.1704 32.3322 84.9613 32.7149 85.0659C33.4108 85.2749 34.1414 85.4143 34.872 85.4492C35.9854 85.5189 37.0987 85.4492 38.1772 85.1704C38.56 85.0659 38.9427 85.3098 39.0123 85.6931C39.1166 86.0764 38.8731 86.4597 38.4904 86.5294C37.5858 86.8081 36.6464 86.9127 35.6722 86.9127Z" fill="#222222"/>
<path d="M45.4567 86.8825C44.6217 86.8825 43.7867 86.778 42.9865 86.5689C42.6038 86.4644 42.3951 86.0811 42.4994 85.7327C42.6038 85.3494 42.9865 85.1403 43.3344 85.2448C44.3434 85.4887 45.3524 85.5933 46.3613 85.4539C46.8832 85.3842 47.4051 85.2797 47.927 85.1403C48.2749 85.0357 48.6924 85.2448 48.7968 85.5933C48.9011 85.9766 48.6924 86.3599 48.3445 86.4644C47.753 86.6386 47.1267 86.778 46.5353 86.8477C46.1526 86.8825 45.8047 86.8825 45.4567 86.8825Z" fill="#222222"/>
<path d="M24.135 93.0095C24.1002 93.0095 24.1002 93.0095 24.135 93.0095L11.6447 92.5565C11.3664 92.5565 11.1228 92.3126 11.1576 91.999C11.1576 91.7202 11.436 91.4763 11.7143 91.5111L24.1698 91.9641C24.4481 91.9641 24.6916 92.2081 24.6569 92.5217C24.6221 92.7656 24.4133 93.0095 24.135 93.0095Z" fill="#222222"/>
<path d="M26.2204 101.581C25.9769 101.581 25.7681 101.407 25.6986 101.163L23.2283 88.7968C23.1587 88.5181 23.3675 88.2394 23.6458 88.1698C23.9242 88.1001 24.2025 88.3091 24.2721 88.5878L26.6727 100.536L39.3022 99.944L40.5547 96.6347L40.659 88.971C40.659 88.6923 40.9026 88.4484 41.1809 88.4484C41.4593 88.4484 41.7028 88.6923 41.7028 88.971L41.5984 96.7392C41.5984 96.8089 41.5984 96.8785 41.5636 96.9134L40.1372 100.606C40.0676 100.815 39.8936 100.919 39.6849 100.954L26.2204 101.581C26.2552 101.581 26.2552 101.581 26.2204 101.581Z" fill="#222222"/>
<path d="M52.4935 101.375C52.4587 101.375 52.4587 101.375 52.4935 101.375L42.5082 100.922C42.2995 100.922 42.1255 100.782 42.056 100.573L40.7339 96.8809C40.6295 96.6023 40.7687 96.3236 41.047 96.2191C41.3253 96.1146 41.6037 96.2539 41.708 96.5326L42.891 99.8768L52.0412 100.26L53.6069 88.2418C53.6416 87.9631 53.8852 87.7541 54.1983 87.789C54.4766 87.8238 54.6854 88.1025 54.6506 88.3811L53.0154 100.887C52.9458 101.166 52.7371 101.375 52.4935 101.375Z" fill="#222222"/>
<path d="M22.9105 89.048C22.6322 89.048 22.3887 88.8041 22.3887 88.5253C22.3887 88.2466 22.6322 88.0027 22.9105 88.0027C28.9643 87.933 35.0529 87.8981 41.1067 87.8633C45.734 87.8633 50.4309 87.8633 55.0582 87.8981C55.3366 87.8981 55.5801 88.142 55.5801 88.4208C55.5801 88.6996 55.3366 88.9435 55.0582 88.9435C50.4309 88.9086 45.734 88.9086 41.1067 88.9086C35.0877 88.9086 28.9643 88.9435 22.9105 89.048C22.9453 89.048 22.9105 89.048 22.9105 89.048Z" fill="#222222"/>
<path d="M25.4156 127.916C25.3112 127.916 25.172 127.916 25.0676 127.881C24.7197 127.846 23.8151 127.741 23.5368 127.045C23.3976 126.627 23.5368 126.069 23.9543 125.651C23.4672 125.338 22.7714 124.711 22.493 123.7C22.4583 123.596 22.3887 123.317 22.3887 122.899C22.3887 122.76 22.493 122.621 22.6322 122.621C22.7714 122.621 22.8758 122.725 22.9105 122.864C22.9105 123.213 22.9801 123.457 23.0149 123.526C23.3281 124.641 24.2674 125.198 24.5458 125.338C24.6153 125.373 24.6849 125.442 24.6849 125.547C24.6849 125.651 24.6501 125.721 24.5806 125.791C24.1631 126.104 23.9543 126.557 24.0587 126.836C24.1978 127.219 24.8937 127.323 25.1372 127.358C26.2158 127.498 27.3639 126.94 27.9902 126C28.9295 124.641 28.5816 122.481 27.2595 121.367C26.3549 120.6 24.7893 120.217 23.8151 120.879C23.7108 120.948 23.5368 120.914 23.4672 120.809C23.3976 120.705 23.4324 120.53 23.5368 120.461C24.7197 119.66 26.5289 120.078 27.6074 120.983C29.1383 122.272 29.521 124.711 28.4424 126.313C27.7466 127.323 26.5637 127.916 25.4156 127.916Z" fill="#222222"/>
<path d="M25.6998 127.903C25.6302 127.903 25.5258 127.868 25.491 127.799C25.4214 127.694 25.4214 127.52 25.5606 127.45C25.6998 127.346 26.1869 126.927 26.2564 126.23C26.3608 125.464 25.8737 124.906 25.7694 124.837C25.665 124.732 25.665 124.558 25.7694 124.453C25.8737 124.349 26.0477 124.349 26.1521 124.453C26.326 124.628 26.8827 125.29 26.7783 126.265C26.6739 127.171 26.0477 127.694 25.8737 127.833C25.8041 127.868 25.7694 127.903 25.6998 127.903Z" fill="#222222"/>
<path d="M27.6081 127.1C27.5733 127.1 27.5733 127.1 27.5385 127.1C27.3994 127.065 27.3298 126.926 27.3646 126.786C27.469 126.438 27.5385 125.915 27.3646 125.323C27.1558 124.486 26.634 123.964 26.3556 123.755C26.2512 123.65 26.2165 123.511 26.3208 123.371C26.4252 123.267 26.5644 123.232 26.7035 123.337C27.0515 123.615 27.6429 124.208 27.8865 125.183C28.0604 125.88 27.9908 126.507 27.8865 126.891C27.8517 127.03 27.7473 127.1 27.6081 127.1Z" fill="#222222"/>
<path d="M28.652 125.538C28.5128 125.538 28.4085 125.433 28.3737 125.294C28.3737 124.91 28.2693 124.283 27.9214 123.691C27.6778 123.273 27.3299 122.889 26.9124 122.611C26.808 122.541 26.7733 122.367 26.8428 122.262C26.9124 122.158 27.0864 122.123 27.1908 122.193C27.6778 122.506 28.0953 122.924 28.3737 123.447C28.7912 124.144 28.8956 124.841 28.8956 125.294C28.8956 125.398 28.7912 125.538 28.652 125.538Z" fill="#222222"/>
<path d="M51.0457 92.1542C51.1469 90.7728 50.4211 89.5936 49.4246 89.5204C48.4281 89.4472 47.5383 90.5078 47.4371 91.8893C47.3359 93.2707 48.0617 94.4499 49.0582 94.5231C50.0547 94.5963 50.9445 93.5357 51.0457 92.1542Z" fill="#222222"/>
<path d="M47.2296 92.0316C47.1948 92.5543 47.4731 92.9027 47.5427 92.9724C48.0646 92.7285 48.5517 92.4497 49.0735 92.2058C48.6212 91.8574 48.1342 91.5438 47.6819 91.1953C47.5775 91.2302 47.2644 91.5438 47.2296 92.0316Z" fill="#EFEFEF"/>
<path d="M39.2703 92.1386C39.3715 90.7571 38.6457 89.5779 37.6492 89.5048C36.6527 89.4316 35.7629 90.4922 35.6617 91.8736C35.5605 93.2551 36.2863 94.4343 37.2828 94.5075C38.2793 94.5806 39.1691 93.5201 39.2703 92.1386Z" fill="#222222"/>
<path d="M35.4464 92.0316C35.4116 92.5543 35.6899 92.9027 35.7595 92.9724C36.2814 92.7285 36.7684 92.4497 37.2903 92.2058C36.838 91.8574 36.3509 91.5438 35.8987 91.1953C35.8291 91.2302 35.4811 91.5438 35.4464 92.0316Z" fill="#EFEFEF"/>
<path d="M22.9857 122.589C22.2551 122.589 21.5245 122.554 20.8286 122.45C18.3932 122.171 13.2788 121.579 12.409 118.722C11.6088 116.075 14.914 112.8 17.4886 111.372C18.0453 111.059 18.6715 110.78 19.2978 110.571C19.6457 110.432 20.0632 110.641 20.1676 110.989C20.3067 111.337 20.098 111.755 19.7501 111.86C19.1934 112.034 18.6715 112.278 18.1844 112.557C16.0274 113.776 13.2092 116.528 13.7659 118.304C14.3573 120.325 19.1934 120.847 21.0026 121.056C21.7332 121.126 22.4986 121.161 23.2293 121.161C23.612 121.161 23.9251 121.474 23.9251 121.858C23.9251 122.241 23.612 122.554 23.2293 122.554C23.1597 122.589 23.0553 122.589 22.9857 122.589Z" fill="#222222"/>
<path d="M57.4259 121.1C55.7906 121.1 53.8075 120.682 51.8244 119.811C51.4764 119.672 51.3025 119.254 51.4764 118.905C51.6156 118.557 52.0331 118.383 52.381 118.557C56.4517 120.334 59.5134 119.741 59.9657 118.94C60.4527 118.034 58.9219 114.969 54.9556 112.739C54.6077 112.565 54.5033 112.112 54.6773 111.799C54.8512 111.451 55.3035 111.346 55.6167 111.52C60.1396 114.063 62.1227 117.756 61.1834 119.602C60.6267 120.577 59.235 121.1 57.4259 121.1Z" fill="#222222"/>
<path d="M40.0252 168.653C39.6425 168.653 39.3294 168.339 39.3294 167.956L38.7031 126.607C38.7031 126.224 39.0163 125.91 39.399 125.91C39.7817 125.91 40.0948 126.224 40.0948 126.607L40.7211 167.956C40.7211 168.339 40.4079 168.653 40.0252 168.653Z" fill="#222222"/>
<path d="M31.6744 168.218C31.2569 168.218 30.9785 167.869 30.9785 167.486L32.5441 125.684C32.5441 125.301 32.8921 124.987 33.2748 125.022C33.6575 125.022 33.9706 125.371 33.9358 125.754L32.3702 167.556C32.3702 167.939 32.0571 168.218 31.6744 168.218Z" fill="#222222"/>
<path d="M6.48818 90.9244C6.0011 90.9244 5.47922 90.8547 4.99213 90.6457C3.32213 90.0186 2.55671 88.3814 2.31316 87.6847C2.24358 87.5453 2.34796 87.3712 2.48712 87.3363C2.62629 87.2667 2.80025 87.3712 2.83504 87.5105C3.04379 88.1027 3.73963 89.5658 5.20089 90.1231C6.66214 90.6805 8.36694 90.1231 9.30632 89.3916C11.1851 87.9285 11.0807 85.2114 11.0111 82.3201C10.9067 79.2197 10.8372 76.0497 13.1334 74.1338C14.3859 73.0539 15.882 72.8797 15.9516 72.8797C15.9864 72.8797 17.1693 72.7056 18.5262 73.1236C20.7876 73.8203 23.1187 76.6419 24.6843 80.4738C24.7539 80.6131 24.6843 80.7873 24.5451 80.857C24.406 80.9267 24.232 80.857 24.1624 80.7176C22.7012 77.0948 20.4049 74.3428 18.3522 73.6809C17.1345 73.2978 16.0211 73.4371 16.0211 73.4371C15.9864 73.4371 14.6295 73.6113 13.5161 74.5518C11.4286 76.2936 11.533 79.3591 11.6026 82.3201C11.6722 85.2114 11.7765 88.242 9.68903 89.8445C8.85403 90.4367 7.7059 90.9244 6.48818 90.9244Z" fill="#222222"/>
<path d="M6.31585 89.8088C5.89835 89.8088 5.44605 89.7391 5.06334 89.5301C4.08917 89.0424 3.70646 87.9625 3.56729 87.4052C3.5325 87.2658 3.63688 87.0917 3.77604 87.0568C3.91521 87.022 4.08917 87.1265 4.12396 87.2658C4.26313 87.7535 4.57626 88.6244 5.34168 89.0424C6.28105 89.5301 7.63793 89.1469 8.43815 88.5547C9.8994 87.44 9.69066 85.1061 9.44711 82.3889C9.16878 79.4628 8.89044 76.1534 10.8388 73.7846C11.9869 72.3912 13.483 71.7294 13.5526 71.6945C15.0834 71.1372 16.5446 70.9978 17.9363 71.3462C21.4851 72.1474 24.3032 75.8399 24.8947 80.5078C24.9295 80.6472 24.7903 80.7865 24.6511 80.8213C24.4772 80.8562 24.3728 80.7168 24.338 80.5775C23.7813 76.1534 21.1372 72.6351 17.7972 71.9035C16.5099 71.6249 15.153 71.7294 13.7265 72.2519C13.7265 72.2519 12.3 72.8789 11.2215 74.1678C9.41232 76.3624 9.72545 79.5673 9.96899 82.3541C10.2125 85.1061 10.4561 87.6839 8.75128 89.0076C8.19461 89.3908 7.25523 89.8088 6.31585 89.8088Z" fill="#222222"/>
<path d="M6.59394 92.1652C6.17643 92.1652 5.75893 92.1303 5.37622 92.0258C3.70621 91.6078 2.62766 90.3886 2.0362 89.4132C1.96662 89.2738 2.00141 89.0997 2.10578 89.03C2.24495 88.9603 2.41891 88.9952 2.4885 89.0997C3.04517 89.9705 4.01933 91.0853 5.48059 91.4685C7.5681 92.0258 9.79478 90.8414 10.9777 89.5525C12.7173 87.6366 12.6477 84.9891 12.6129 82.4113C12.5781 79.6942 12.5085 77.1512 14.4917 75.6185C14.7352 75.4443 15.3615 74.9566 16.2661 74.7824C20.2671 74.016 24.0246 80.0077 24.4421 80.7044C24.5117 80.8437 24.4769 81.0179 24.3378 81.0876C24.1986 81.1572 24.0246 81.1224 23.9551 80.9831C23.7811 80.7392 20.0584 74.6082 16.3704 75.3398C15.5702 75.4791 15.0484 75.8971 14.8396 76.0713C13.1 77.4299 13.1348 79.8684 13.1696 82.4113C13.2044 85.0936 13.274 87.8456 11.3952 89.9357C10.3862 91.0853 8.50749 92.1652 6.59394 92.1652Z" fill="#222222"/>
<path d="M16.4367 89.1194C15.706 89.1194 14.9058 88.7362 14.1056 88.0047C14.0012 87.9001 14.0012 87.726 14.1056 87.6215C14.21 87.517 14.384 87.517 14.4883 87.6215C15.219 88.3182 15.9496 88.6317 16.5758 88.562C17.5152 88.4923 18.0719 87.6215 18.9069 86.2977C19.4984 85.3572 20.2638 84.2076 21.3771 82.9884C22.8732 81.3511 24.2648 80.4106 25.1346 79.8532C27.6744 78.1811 30.6665 76.9967 33.8326 76.4045C35.0503 76.1955 36.1637 76.0562 37.1726 75.9517C39.2253 75.7078 40.8258 75.5337 41.2433 74.7673C41.452 74.3841 41.452 73.9661 41.452 73.9661C41.4172 73.1997 40.6866 72.6772 40.3735 72.503C40.2343 72.4333 40.1995 72.2592 40.2691 72.1198C40.3387 71.9805 40.5126 71.9456 40.6518 72.0153C41.0345 72.2591 41.9391 72.921 42.0087 73.9312C42.0087 73.9661 42.0435 74.4886 41.7303 75.046C41.1737 76.0562 39.5037 76.2652 37.2074 76.5439C36.1984 76.6484 35.0851 76.7877 33.9022 76.9967C30.8405 77.5541 27.8832 78.7037 25.413 80.3409C24.578 80.8983 23.2211 81.804 21.7598 83.3716C20.6813 84.556 19.9507 85.7055 19.3244 86.6112C18.4198 88.0047 17.7588 89.0149 16.5758 89.1542C16.5758 89.1194 16.5063 89.1194 16.4367 89.1194Z" fill="#222222"/>
<path d="M24.4756 80.9199C24.3712 80.9199 24.3016 80.885 24.2321 80.7805C24.1625 80.6412 24.1973 80.467 24.3364 80.3973C25.5889 79.631 26.911 79.0039 28.2679 78.5859C31.4688 77.5409 34.3913 77.5757 36.7571 77.6105C39.4709 77.6454 41.454 77.6454 42.6021 76.1823C42.8805 75.8339 43.3328 75.1024 43.3676 74.1618C43.3676 72.3504 41.6628 71.0964 41.1061 70.748C40.9669 70.6783 40.9321 70.5042 41.0365 70.3648C41.1061 70.2255 41.2801 70.1906 41.4192 70.2951C42.0107 70.6783 43.9242 72.1066 43.9242 74.1967C43.9242 75.3114 43.3676 76.1474 43.0544 76.5306C41.7323 78.2027 39.5405 78.1679 36.7571 78.1679C34.4609 78.1331 31.5731 78.133 28.4419 79.1433C27.1198 79.5613 25.8325 80.1535 24.6148 80.9199C24.58 80.9199 24.5104 80.9199 24.4756 80.9199Z" fill="#222222"/>
<path d="M16.3646 91.082C15.8079 91.082 15.3904 90.9775 15.3556 90.9427C14.7641 90.8033 14.2075 90.5595 13.6856 90.1415C13.5464 90.037 13.5464 89.8628 13.616 89.7583C13.7204 89.6189 13.8944 89.6189 13.9987 89.6886C14.451 90.037 14.9381 90.246 15.46 90.3853C15.4948 90.3853 16.5733 90.6988 17.5823 90.246C18.9044 89.6538 19.4263 88.4694 20.1569 86.8321C20.7831 85.4387 21.5486 83.6621 23.1142 81.8159C23.5317 81.3282 23.9492 80.8753 24.4015 80.4573C24.5059 80.3528 24.6798 80.3528 24.7842 80.4573C24.8886 80.5618 24.8886 80.736 24.7842 80.8405C24.3667 81.2585 23.9492 81.7113 23.5317 82.1642C22.0356 83.9756 21.305 85.6129 20.6788 87.0411C19.9481 88.7481 19.3567 90.0718 17.791 90.7337C17.3387 91.0123 16.8169 91.082 16.3646 91.082Z" fill="#222222"/>
<path d="M24.6153 80.9135C24.5109 80.9135 24.4066 80.8438 24.337 80.7393C24.3022 80.5999 24.3718 80.4258 24.511 80.3909C25.7635 79.9381 27.016 79.6246 28.3381 79.3807C32.1304 78.684 35.8879 78.9279 37.5231 79.0324C38.045 79.0672 38.4973 79.102 38.9496 79.1369C40.9327 79.311 42.1504 79.3807 43.5073 78.684C44.6554 78.0918 45.1773 77.3254 45.3861 76.9423C45.9079 75.9669 45.9775 74.7825 45.5948 73.4936C45.0729 71.926 43.89 71.0551 43.4029 70.7764C43.2637 70.7068 43.229 70.5326 43.2985 70.3933C43.3681 70.2539 43.5421 70.2191 43.6813 70.2887C44.2379 70.6023 45.56 71.5428 46.1167 73.3194C46.569 74.7128 46.4994 76.0714 45.8731 77.1861C45.6296 77.639 45.0381 78.5098 43.7508 79.1717C42.2548 79.9729 40.9675 79.8684 38.88 79.6942C38.4625 79.6594 37.9754 79.6246 37.4535 79.5897C35.8531 79.4852 32.1652 79.2414 28.4076 79.9381C27.1551 80.1819 25.9026 80.4954 24.6849 80.9135C24.6849 80.9135 24.6501 80.9135 24.6153 80.9135Z" fill="#222222"/>
<path d="M46.1795 124.078L30.8711 123.451L34.6982 103.734L50.0066 104.396L50.8068 105.163L46.1795 124.078Z" fill="#83B6FF"/>
<path d="M46.1851 124.243L30.8419 123.581C30.8071 123.581 30.7375 123.546 30.7028 123.511C30.668 123.476 30.668 123.407 30.668 123.372L34.4951 103.69C34.4951 103.62 34.5647 103.551 34.669 103.551L49.9774 104.213C50.0122 104.213 50.047 104.247 50.0818 104.247L50.882 105.014C50.9168 105.049 50.9516 105.118 50.9168 105.188L46.2895 124.104C46.3591 124.208 46.2895 124.243 46.1851 124.243ZM31.0855 123.267L46.046 123.895L50.6037 105.188L49.9426 104.526L34.843 103.899L31.0855 123.267Z" fill="#222222"/>
<path d="M46.9979 124.848L31.6895 124.221L35.5166 104.504L50.825 105.166L46.9979 124.848Z" fill="#EFEFEF"/>
<path d="M46.9859 125.02L31.6427 124.358C31.6079 124.358 31.5383 124.324 31.5035 124.289C31.4687 124.254 31.4688 124.184 31.4688 124.149L35.2959 104.467C35.2959 104.398 35.3654 104.328 35.4698 104.328L50.7782 104.99C50.813 104.99 50.8826 105.025 50.9174 105.06C50.9522 105.095 50.9522 105.164 50.9522 105.199L47.1251 124.881C47.1251 124.985 47.0555 125.02 46.9859 125.02ZM31.8863 124.045L46.8467 124.672L50.6043 105.304L35.6438 104.676L31.8863 124.045Z" fill="#222222"/>
<path d="M38.7754 107.009C38.7406 107.009 38.7058 107.009 38.671 106.975C38.5318 106.905 38.497 106.766 38.5318 106.626C39.2625 105.023 39.1233 103.699 38.5318 103.316C38.3231 103.176 38.0447 103.142 37.6968 103.211C37.5577 103.246 37.4185 103.142 37.3837 103.002C37.3489 102.863 37.4533 102.723 37.5924 102.689C38.0795 102.584 38.497 102.654 38.8102 102.863C39.7148 103.455 39.7843 105.128 39.0189 106.835C38.9841 106.94 38.8797 107.009 38.7754 107.009Z" fill="#222222"/>
<path d="M40.7226 107.009C40.6878 107.009 40.653 107.009 40.6183 106.975C40.4791 106.905 40.4443 106.766 40.4791 106.626C41.2097 105.023 41.0705 103.699 40.4791 103.316C40.2703 103.176 39.992 103.142 39.6441 103.211C39.5049 103.246 39.3658 103.142 39.331 103.002C39.2962 102.863 39.4005 102.723 39.5397 102.689C40.0268 102.584 40.4443 102.654 40.7574 102.863C41.662 103.455 41.7316 105.128 40.9662 106.835C40.8966 106.94 40.827 107.009 40.7226 107.009Z" fill="#222222"/>
<path d="M45.6269 107.334C45.5921 107.334 45.5574 107.334 45.5226 107.299C45.3834 107.229 45.3486 107.09 45.3834 106.95C46.114 105.347 45.9749 104.023 45.3834 103.64C45.1746 103.501 44.8963 103.466 44.5484 103.536C44.4092 103.57 44.2701 103.466 44.2353 103.326C44.2005 103.187 44.3048 103.048 44.444 103.013C44.9311 102.908 45.3486 102.978 45.6617 103.187C46.5663 103.779 46.6359 105.452 45.8705 107.159C45.8009 107.264 45.7313 107.334 45.6269 107.334Z" fill="#222222"/>
<path d="M47.539 107.334C47.5042 107.334 47.4695 107.334 47.4347 107.299C47.2955 107.229 47.2607 107.09 47.2955 106.95C48.0261 105.347 47.887 104.023 47.2955 103.64C47.0868 103.501 46.8084 103.466 46.4605 103.536C46.3213 103.57 46.1822 103.466 46.1474 103.326C46.1126 103.187 46.217 103.048 46.3561 103.013C46.8432 102.908 47.2607 102.978 47.5738 103.187C48.4784 103.779 48.548 105.452 47.7826 107.159C47.7478 107.264 47.6434 107.334 47.539 107.334Z" fill="#222222"/>
<path d="M49.1081 114.402C49.0037 114.89 48.8993 115.378 48.8297 115.865C47.9599 115.273 46.8814 115.204 46.0464 115.691C45.1418 116.214 44.933 117.224 44.933 117.363C44.6895 118.861 46.0464 120.185 47.0205 120.777C47.4033 120.986 48.8993 121.857 50.4302 121.126C51.5435 120.603 51.961 119.523 52.0654 119.244C52.0654 118.792 52.0654 117.607 51.2999 116.388C50.5693 115.099 49.5256 114.577 49.1081 114.402Z" fill="#EFEFEF"/>
<path d="M48.8985 121.509C48.8289 121.509 48.7593 121.509 48.6897 121.509C48.4462 121.509 46.2195 121.37 45.1062 119.419C44.8974 119.036 44.4451 118.235 44.6191 117.19C44.6887 116.876 44.8974 116.075 45.5585 115.622C45.6628 115.552 45.7324 115.518 45.8368 115.448C46.1499 115.309 46.463 115.308 46.6022 115.308C46.9501 115.308 47.6112 115.378 48.5506 115.622L48.8289 114.333C48.8289 114.263 48.8985 114.194 48.9681 114.159C49.0376 114.124 49.142 114.124 49.2116 114.159C50.151 114.681 51.4383 115.657 52.0993 117.259C52.2037 117.503 52.3081 117.782 52.3429 118.06C52.3777 118.2 52.2733 118.339 52.1341 118.374C51.9949 118.409 51.8558 118.304 51.821 118.165C51.7514 117.921 51.6818 117.677 51.5774 117.433C51.0556 116.145 50.0814 115.308 49.2464 114.786L49.0028 115.97C49.0028 116.04 48.9333 116.11 48.8985 116.145C48.8289 116.179 48.7593 116.179 48.6897 116.179C47.7155 115.936 46.9501 115.831 46.6022 115.831C46.4978 115.831 46.2891 115.831 46.0455 115.936C45.976 115.97 45.9064 116.005 45.8368 116.04C45.3149 116.388 45.1757 117.085 45.1062 117.259C44.9322 118.095 45.3149 118.757 45.5237 119.106C46.463 120.812 48.4114 120.917 48.6549 120.917C50.1858 120.952 50.9512 120.394 51.2991 119.942C51.4035 119.837 51.5427 119.802 51.6818 119.907C51.7862 120.011 51.821 120.151 51.7166 120.29C51.3687 120.882 50.5337 121.509 48.8985 121.509Z" fill="#222222"/>
<path d="M48.9992 117.708C48.5121 117.674 48.0599 117.569 47.6424 117.395C46.8421 117.116 46.1463 116.628 45.5548 116.036C45.4505 115.931 45.4505 115.757 45.5548 115.653C45.6592 115.548 45.8332 115.548 45.9376 115.653C46.4942 116.21 47.1205 116.628 47.8163 116.907C48.199 117.046 48.6165 117.151 48.9992 117.186C49.1384 117.186 49.2428 117.325 49.2428 117.465C49.2428 117.604 49.1384 117.708 48.9992 117.708Z" fill="#222222"/>
<path d="M48.6584 118.936C47.9974 118.866 47.4059 118.692 46.8145 118.483C46.0838 118.169 45.4228 117.751 44.8313 117.228C44.727 117.124 44.727 116.985 44.7965 116.845C44.9009 116.741 45.0749 116.741 45.1793 116.81C45.7359 117.298 46.3274 117.681 47.0232 117.96C47.5451 118.169 48.1366 118.309 48.6932 118.378C48.8324 118.378 48.9368 118.518 48.9368 118.657C48.902 118.831 48.7976 118.936 48.6584 118.936Z" fill="#222222"/>
<path d="M48.3045 120.156H48.2697C47.6783 120.052 47.1216 119.913 46.5649 119.669C46.0083 119.425 45.4864 119.076 44.9993 118.658C44.8949 118.554 44.8949 118.414 44.9645 118.275C45.0689 118.17 45.2081 118.17 45.3472 118.24C45.7647 118.623 46.2518 118.937 46.7737 119.146C47.2608 119.355 47.8174 119.529 48.3393 119.599C48.4785 119.634 48.5829 119.738 48.5481 119.913C48.5481 120.052 48.4089 120.156 48.3045 120.156Z" fill="#222222"/>
<defs>
<linearGradient id="paint0_linear" x1="276.642" y1="53.3522" x2="260.357" y2="108.431" gradientUnits="userSpaceOnUse">
<stop stop-color="#FF9800"/>
<stop offset="1" stop-color="#F77800"/>
</linearGradient>
<linearGradient id="paint1_linear" x1="185.795" y1="115.837" x2="166.644" y2="163.794" gradientUnits="userSpaceOnUse">
<stop stop-color="#FF9800"/>
<stop offset="1" stop-color="#F77800"/>
</linearGradient>
<linearGradient id="paint2_linear" x1="96.0508" y1="47.6675" x2="78.9711" y2="76.9106" gradientUnits="userSpaceOnUse">
<stop stop-color="#FF9800"/>
<stop offset="1" stop-color="#F77800"/>
</linearGradient>
<linearGradient id="paint3_linear" x1="39.9017" y1="85.51" x2="30.3124" y2="114.764" gradientUnits="userSpaceOnUse">
<stop stop-color="#FF9800"/>
<stop offset="1" stop-color="#F77800"/>
</linearGradient>
</defs>
</svg>
