<svg width="344" height="228" viewBox="0 0 344 228" fill="none" xmlns="http://www.w3.org/2000/svg">
<path d="M122.324 214.003C147.867 214.003 168.574 212.479 168.574 210.599C168.574 208.719 147.867 207.195 122.324 207.195C96.7809 207.195 76.0742 208.719 76.0742 210.599C76.0742 212.479 96.7809 214.003 122.324 214.003Z" fill="#CCCACA"/>
<path d="M222.127 214.003C247.67 214.003 268.376 212.479 268.376 210.599C268.376 208.719 247.67 207.195 222.127 207.195C196.584 207.195 175.877 208.719 175.877 210.599C175.877 212.479 196.584 214.003 222.127 214.003Z" fill="#CCCACA"/>
<path d="M28.9275 178.808C42.8262 178.808 54.0933 177.82 54.0933 176.601C54.0933 175.383 42.8262 174.395 28.9275 174.395C15.0288 174.395 3.76172 175.383 3.76172 176.601C3.76172 177.82 15.0288 178.808 28.9275 178.808Z" fill="#CCCACA"/>
<path d="M311.554 178.808C325.453 178.808 336.72 177.82 336.72 176.601C336.72 175.383 325.453 174.395 311.554 174.395C297.656 174.395 286.389 175.383 286.389 176.601C286.389 177.82 297.656 178.808 311.554 178.808Z" fill="#CCCACA"/>
<path d="M32.9758 97.7519C46.4815 97.7519 57.43 86.8166 57.43 73.3271C57.43 59.8377 46.4815 48.9023 32.9758 48.9023C19.47 48.9023 8.52148 59.8377 8.52148 73.3271C8.52148 86.8166 19.47 97.7519 32.9758 97.7519Z" fill="url(#paint0_linear)"/>
<path d="M23.834 62.8042C24.583 67.4423 26.7551 71.0331 29.4516 72.1552C31.3241 72.9407 32.9345 72.6789 32.9345 72.6789C32.9345 72.6789 34.5824 72.4171 35.968 71.2201C38.0653 69.3499 38.5147 65.3103 36.9418 61.0837C35.3688 60.8218 33.1218 60.5974 30.4628 60.8966C27.6165 61.2707 25.332 62.131 23.834 62.8042Z" fill="#EFEFEF"/>
<path d="M40.9102 62.1447C41.2098 66.7828 43.0449 70.4483 45.4417 71.6079C46.1533 71.9445 47.7636 72.73 49.4864 72.1689C49.6362 72.1315 50.1605 71.9445 50.7223 71.4957C52.8944 69.8125 52.7821 66.3713 52.7446 65.0996C52.7072 64.1645 52.5573 62.7431 51.9581 61.0599C51.4338 60.9477 50.7223 60.8355 49.8234 60.7981C48.9995 60.7607 48.1007 60.7607 46.7525 60.9103C44.468 61.2096 42.3707 61.7332 40.9102 62.1447Z" fill="#EFEFEF"/>
<path d="M15.8926 103.131C16.1922 102.383 16.9412 100.738 18.252 100.251C18.4767 100.177 18.9261 100.027 19.2257 100.251C19.5628 100.513 19.3755 101.224 19.338 101.448C19.2257 101.822 19.0759 102.122 18.9261 102.309C19.2257 102.383 19.6751 102.496 20.2369 102.458C21.4727 102.346 21.8473 101.598 22.7086 101.635C23.4951 101.673 24.319 102.346 24.5437 103.057C24.9557 104.478 23.1206 106.236 21.4727 106.834C18.9261 107.77 16.5292 106.161 16.2296 105.937C16.0798 105.002 16.0049 104.067 15.8926 103.131Z" fill="#EFEFEF"/>
<path d="M40.0909 86.0045C39.604 86.0045 39.1171 85.9671 38.6677 85.9297C38.5554 85.9297 38.4805 85.8175 38.4805 85.7053C38.4805 85.5931 38.5928 85.5182 38.7052 85.5182C39.5291 85.5931 40.3905 85.593 41.2518 85.5556C42.0757 85.4808 42.8997 85.3686 43.6861 85.1816C43.7985 85.1442 43.9108 85.219 43.9108 85.3312C43.9483 85.4434 43.8734 85.5556 43.761 85.5556C42.9371 85.7427 42.0757 85.8923 41.2518 85.9671C40.8773 86.0045 40.5028 86.0045 40.0909 86.0045Z" fill="#222222"/>
<path d="M39.0804 83.2664C38.968 83.2664 38.8931 83.2664 38.8182 83.2664C37.9569 83.2664 30.3922 82.9298 25.2991 76.7581C24.1007 75.2994 23.1645 73.691 22.4904 71.8956C22.3781 71.5964 22.5279 71.2598 22.8275 71.1102C23.1271 70.9979 23.4641 71.1476 23.6139 71.4468C24.2505 73.0926 25.1119 74.6261 26.2353 75.9727C31.0663 81.8451 38.5186 82.0321 38.8557 82.0321C40.3537 82.0695 47.9558 81.9199 51.9254 76.0849C52.974 74.5513 53.6481 72.7933 53.9477 70.8483C53.9851 70.5117 54.3222 70.2873 54.6218 70.3621C54.9588 70.3995 55.1835 70.7361 55.1086 71.0353C54.7716 73.1674 54.0226 75.075 52.8617 76.7581C48.7797 82.855 41.1401 83.2664 39.0804 83.2664Z" fill="#222222"/>
<path d="M24.5847 71.8603C24.5473 71.8603 24.5473 71.8603 24.5098 71.8603C24.023 71.6732 23.5361 71.561 23.0118 71.5236C22.5249 71.4862 22.0006 71.4862 21.5138 71.561C21.4014 71.561 21.2891 71.4862 21.2891 71.4114C21.2891 71.2992 21.364 71.187 21.4389 71.187C21.9632 71.1122 22.4875 71.1122 23.0118 71.1496C23.5361 71.187 24.0979 71.3366 24.5847 71.5236C24.6971 71.561 24.7345 71.6732 24.6971 71.7854C24.7345 71.7854 24.6596 71.8603 24.5847 71.8603Z" fill="#222222"/>
<path d="M53.3103 70.9696C53.2354 70.9696 53.123 70.8948 53.123 70.82C53.0856 70.7078 53.1605 70.5956 53.2728 70.5956C53.7222 70.4834 54.1342 70.4086 54.5836 70.4086C55.1079 70.3712 55.6322 70.4086 56.1191 70.5208C56.2314 70.5582 56.3063 70.633 56.2689 70.7452C56.2314 70.8574 56.1565 70.9322 56.0442 70.8948C55.5573 70.82 55.0705 70.7826 54.5836 70.7826C54.1716 70.82 53.7597 70.8574 53.3477 70.9696H53.3103Z" fill="#222222"/>
<path d="M32.0342 72.9513C31.6972 72.9513 31.3601 72.9139 31.0231 72.8765C28.2517 72.5025 25.7425 70.0338 24.6564 66.5926C24.619 66.4804 24.6939 66.3682 24.7688 66.3308C24.8811 66.2934 24.9935 66.3682 25.031 66.443C26.0796 69.7346 28.439 72.091 31.098 72.4277C32.7084 72.6521 34.2064 72.3155 35.2925 71.4926C36.3036 70.7071 36.753 69.6972 36.9777 69.0987C38.0264 66.5552 37.4272 64.0866 37.1276 62.74C36.8279 61.5057 36.3785 60.3088 35.7793 59.1867C35.7419 59.0744 35.7793 58.9622 35.8542 58.9248C35.9666 58.8874 36.0789 58.9248 36.1164 58.9996C36.753 60.1592 37.2025 61.3935 37.5021 62.6652C37.8391 64.0492 38.4383 66.63 37.3148 69.2857C37.0526 69.8842 36.6032 71.0063 35.4797 71.8292C34.5809 72.5399 33.3825 72.9513 32.0342 72.9513Z" fill="#222222"/>
<path d="M48.2536 72.5396C47.5795 72.5396 47.0552 72.4273 46.793 72.3525C44.0966 71.7167 41.9244 69.1732 41.2129 65.6946C41.1754 65.5824 41.2503 65.4702 41.3627 65.4702C41.475 65.4328 41.5874 65.5076 41.5874 65.6198C42.2989 68.9114 44.3213 71.3426 46.9054 71.9785C47.3548 72.0907 48.703 72.4273 50.0138 71.7915C52.7852 70.4075 53.0099 65.6572 52.2983 62.8893C51.9238 61.3932 51.1748 60.0092 50.1262 58.7749C50.0513 58.7001 50.0513 58.5505 50.1636 58.5131C50.2385 58.4383 50.3883 58.4383 50.4258 58.5505C51.5493 59.8222 52.2983 61.281 52.7103 62.8519C53.4593 65.8443 53.1971 70.7442 50.201 72.2029C49.4895 72.4274 48.8154 72.5396 48.2536 72.5396Z" fill="#222222"/>
<path d="M23.9503 63.6765C23.6507 63.6765 23.3511 63.4894 23.2388 63.1902C23.0515 62.7788 23.2388 62.3299 23.6507 62.1429C27.2086 60.5345 30.9162 59.8238 34.5864 60.0483C35.6724 60.1231 36.7585 60.2353 37.8446 60.4597C38.2565 60.5345 38.5561 60.9834 38.4812 61.3948C38.4063 61.8063 37.9569 62.1055 37.545 62.0307C36.5338 61.8437 35.5226 61.694 34.5115 61.6566C31.066 61.4696 27.6205 62.1429 24.2874 63.6391C24.175 63.6391 24.0627 63.6765 23.9503 63.6765Z" fill="#222222"/>
<path d="M41.2453 62.512C40.9456 62.512 40.646 62.3249 40.5337 62.0257C40.3464 61.6143 40.5337 61.1654 40.9457 60.9784C43.5298 59.8563 46.3386 59.37 49.035 59.6318C50.196 59.7441 51.357 59.9685 52.4805 60.3425C52.8924 60.4921 53.1171 60.941 53.0048 61.3524C52.855 61.7639 52.4056 61.9883 51.9936 61.8761C50.9825 61.5394 49.9338 61.315 48.9227 61.2402C46.4884 61.0158 43.9792 61.4272 41.6198 62.4745C41.47 62.4745 41.3576 62.512 41.2453 62.512Z" fill="#222222"/>
<path d="M35.0678 69.3568C35.9778 69.3568 36.7156 68.3186 36.7156 67.0378C36.7156 65.757 35.9778 64.7188 35.0678 64.7188C34.1577 64.7188 33.4199 65.757 33.4199 67.0378C33.4199 68.3186 34.1577 69.3568 35.0678 69.3568Z" fill="#222222"/>
<path d="M33.1621 67.0712C33.1621 67.5949 33.4617 67.9315 33.5366 68.0063C34.0235 67.7071 34.5103 67.4079 34.9972 67.1086C34.5103 66.8094 34.0235 66.5102 33.5366 66.2109C33.4617 66.2483 33.1621 66.5476 33.1621 67.0712Z" fill="#EFEFEF"/>
<path d="M29.8639 58.105C29.5269 58.105 29.2273 57.9179 29.1149 57.5813C28.9651 57.1699 29.1898 56.721 29.6018 56.5714C30.8751 56.0851 32.1859 55.7859 33.5341 55.5989C34.5078 55.4867 35.4816 55.4493 36.4553 55.4867C36.9047 55.5241 37.2417 55.8607 37.2043 56.3096C37.1668 56.7584 36.7923 57.0951 36.3804 57.0577C35.4816 57.0202 34.5827 57.0576 33.7214 57.1699C32.4855 57.3195 31.2871 57.6187 30.1635 58.0302C30.0512 58.0676 29.9763 58.105 29.8639 58.105Z" fill="#222222"/>
<path d="M51.2084 57.9497C51.1335 57.9497 51.0586 57.9497 50.9463 57.9123C49.8976 57.5757 48.8116 57.3138 47.7255 57.1642C47.0139 57.0894 46.3398 57.0146 45.6283 57.0146C45.1789 57.0146 44.8418 56.6406 44.8418 56.1917C44.8418 55.7429 45.2163 55.4062 45.6657 55.4062C46.4147 55.4062 47.2012 55.4811 47.9502 55.5933C49.1486 55.7429 50.3096 56.0047 51.4706 56.3787C51.8825 56.5284 52.1072 56.9772 51.9949 57.3887C51.8451 57.7253 51.5455 57.9497 51.2084 57.9497Z" fill="#222222"/>
<path d="M50.0873 69.3568C50.9974 69.3568 51.7351 68.3186 51.7351 67.0378C51.7351 65.757 50.9974 64.7188 50.0873 64.7188C49.1772 64.7188 48.4395 65.757 48.4395 67.0378C48.4395 68.3186 49.1772 69.3568 50.0873 69.3568Z" fill="#222222"/>
<path d="M48.1816 67.0712C48.1816 67.5949 48.4812 67.9315 48.5561 68.0063C49.043 67.7071 49.5299 67.4079 50.0167 67.1086C49.5299 66.8094 49.043 66.5102 48.5561 66.2109C48.4812 66.2483 48.1816 66.5476 48.1816 67.0712Z" fill="#EFEFEF"/>
<path d="M19.7939 107.324C19.5317 107.324 19.307 107.324 19.1946 107.286C18.5205 107.212 17.2846 107.099 16.3484 106.389C16.236 106.276 16.1986 106.089 16.3109 105.977C16.4233 105.865 16.6105 105.828 16.7229 105.94C17.5094 106.538 18.6329 106.65 19.2321 106.725C19.4942 106.763 21.8911 106.95 23.3891 105.341C23.6887 105.005 24.2505 104.406 24.2505 103.546C24.2505 103.359 24.1756 102.648 23.6513 102.237C23.3142 101.975 22.9397 101.9 22.7899 101.9C22.378 101.863 22.1158 102.012 21.7413 102.199C21.4042 102.386 20.9548 102.611 20.2807 102.76C19.8313 102.835 18.7078 102.985 18.4831 102.461C18.3707 102.162 18.5954 101.938 18.7827 101.713C18.9699 101.526 19.1572 101.264 19.1946 100.965C19.1946 100.703 19.0823 100.441 18.9699 100.404C18.6329 100.254 17.6592 100.965 17.0225 101.825C16.4607 102.573 16.1237 103.284 16.0113 103.92C15.9739 104.07 15.8241 104.182 15.6743 104.182C15.5245 104.144 15.4121 103.995 15.4121 103.845C15.5245 103.097 15.899 102.312 16.5356 101.489C17.1723 100.666 18.4456 99.5063 19.2321 99.9177C19.6066 100.105 19.7939 100.628 19.7564 101.04C19.719 101.564 19.4193 101.938 19.1946 102.162C19.1572 102.199 19.1197 102.237 19.0823 102.274C19.2695 102.312 19.6441 102.312 20.1309 102.237C20.6927 102.125 21.0672 101.938 21.4042 101.751C21.8162 101.526 22.1907 101.302 22.7899 101.376C23.0521 101.414 23.5389 101.489 23.9883 101.863C24.7374 102.461 24.8123 103.359 24.8123 103.621C24.8497 104.705 24.1381 105.454 23.8011 105.828C22.6027 107.099 20.7676 107.324 19.7939 107.324Z" fill="#222222"/>
<path d="M20.2059 104.022C20.0561 104.022 19.9062 103.91 19.9062 103.723C19.9062 103.573 20.0186 103.424 20.2059 103.424C20.5804 103.424 21.1796 103.311 21.7413 102.975C22.4155 102.563 22.7525 101.965 22.9023 101.628C22.9772 101.479 23.1645 101.404 23.3143 101.479C23.4641 101.553 23.539 101.703 23.4641 101.89C23.2768 102.264 22.9023 102.975 22.0784 103.498C21.3294 103.91 20.6553 104.022 20.2059 104.022Z" fill="#222222"/>
<path d="M20.5398 105.037C20.39 105.037 20.2776 104.925 20.2402 104.775C20.2027 104.626 20.3525 104.476 20.5023 104.438C21.0641 104.364 21.888 104.177 22.6745 103.541C23.1239 103.167 23.461 102.755 23.7231 102.232C23.798 102.082 23.9853 102.045 24.1351 102.119C24.2849 102.194 24.3223 102.381 24.2474 102.531C23.9478 103.092 23.5359 103.616 23.049 104.027C22.1876 104.738 21.2139 104.962 20.5398 105.037C20.5773 105.037 20.5398 105.037 20.5398 105.037Z" fill="#222222"/>
<path d="M21.1779 105.865C21.0281 105.865 20.9157 105.753 20.8783 105.604C20.8408 105.454 20.9532 105.304 21.1404 105.267C21.7771 105.155 22.3763 104.93 22.9381 104.594C23.4624 104.257 23.9118 103.808 24.2488 103.285C24.3237 103.135 24.511 103.098 24.6608 103.21C24.8106 103.285 24.8481 103.472 24.7357 103.621C24.3612 104.22 23.8369 104.743 23.2377 105.117C22.6385 105.529 21.9269 105.791 21.2153 105.903C21.2153 105.865 21.2153 105.865 21.1779 105.865Z" fill="#222222"/>
<path d="M23.8736 166.274C23.8362 166.274 23.8362 166.274 23.7987 166.274C23.3493 166.236 23.0497 165.862 23.0871 165.413L28.7422 94.6826C28.7797 94.2337 29.1542 93.9345 29.6036 93.9719C30.053 94.0093 30.3526 94.3834 30.3151 94.8322L24.6601 165.563C24.6226 165.975 24.2856 166.274 23.8736 166.274Z" fill="#222222"/>
<path d="M35.4482 166.984C34.9985 166.984 34.6612 166.647 34.6612 166.198L34.5488 99.9183C34.5488 99.4695 34.8861 99.1328 35.3357 99.1328C35.7854 99.1328 36.1227 99.4695 36.1227 99.9183L36.2351 166.198C36.2351 166.61 35.8978 166.984 35.4482 166.984Z" fill="#222222"/>
<path d="M34.2091 165.41C33.8346 168.964 33.4601 172.517 33.123 176.07C34.1342 176.07 35.1828 176.108 36.194 176.108C36.3813 175.509 36.5685 174.911 36.7932 174.312C37.0554 174.499 37.5422 174.799 38.1789 175.098C40.763 176.37 43.1973 176.482 44.7702 176.519C45.2945 176.519 46.081 176.519 47.0547 176.444C47.0547 175.397 47.0547 174.387 47.0547 173.34C44.5081 173.265 42.5606 172.592 41.3997 172.068C39.9765 171.432 38.7781 170.871 37.8044 169.562C36.6809 168.066 36.5311 166.42 36.5311 165.597" fill="#222222"/>
<path d="M25.0012 165.41C24.8139 169.001 24.6641 172.629 24.4769 176.22C23.6155 176.22 22.7167 176.182 21.8553 176.182C21.8928 175.584 21.9677 174.986 22.0051 174.387C21.5183 174.724 20.9565 175.023 20.3573 175.322C17.7732 176.519 15.3014 176.519 13.7285 176.332C13.7285 175.36 13.766 174.35 13.766 173.377C14.6273 173.265 15.9381 172.966 17.3987 172.292C18.5971 171.731 19.9079 171.17 20.994 169.786C22.2298 168.253 22.5294 166.607 22.6418 165.784" fill="#222222"/>
<path d="M55.214 114.28H55.1765C53.8658 114.205 52.6299 113.906 51.4689 113.419C44.2035 110.277 43.2672 99.9914 43.1923 98.8319C43.1548 98.383 43.4919 98.009 43.9413 97.9716C44.3907 97.9342 44.7652 98.2708 44.8027 98.7197C44.8776 99.767 45.7015 109.155 52.143 111.961C53.1167 112.372 54.1654 112.634 55.2889 112.709C55.7383 112.746 56.0754 113.12 56.0379 113.532C55.963 113.943 55.626 114.28 55.214 114.28Z" fill="#222222"/>
<path d="M52.9178 122.852H59.584V104.673H52.9178V122.852Z" fill="#48C7FF"/>
<path d="M59.5644 123.037H52.8982C52.7858 123.037 52.7109 122.962 52.7109 122.85V104.671C52.7109 104.559 52.7858 104.484 52.8982 104.484H59.5644C59.6768 104.484 59.7517 104.559 59.7517 104.671V122.85C59.7891 122.962 59.6768 123.037 59.5644 123.037ZM53.1229 122.663H59.4146V104.858H53.1229V122.663Z" fill="#222222"/>
<path d="M59.5631 104.672C58.814 103.662 57.8029 102.69 57.0539 101.68C56.4921 101.68 55.9303 101.68 55.3686 101.68C54.4698 102.69 53.7956 103.662 52.8594 104.672C54.0953 104.672 55.3686 104.672 56.6045 104.672C57.6156 104.672 58.5893 104.672 59.5631 104.672Z" fill="#EFEFEF"/>
<path d="M59.5643 104.853H52.8981C52.8232 104.853 52.7483 104.816 52.7108 104.741C52.6734 104.666 52.7108 104.591 52.7483 104.516C53.1977 104.03 53.6096 103.506 53.9841 103.02C54.3587 102.534 54.7706 102.01 55.2575 101.524C55.2949 101.487 55.3324 101.449 55.4073 101.449H57.0926C57.1675 101.449 57.2049 101.487 57.2424 101.524C57.6169 102.01 58.0663 102.534 58.4782 103.02C58.8902 103.506 59.3396 104.03 59.7516 104.516C59.789 104.591 59.789 104.666 59.789 104.741C59.7141 104.816 59.6392 104.853 59.5643 104.853ZM53.3475 104.442H59.1524C58.8528 104.067 58.4782 103.656 58.1786 103.282C57.7667 102.796 57.3547 102.347 56.9802 101.861H55.4822C55.0702 102.347 54.6583 102.833 54.2838 103.282C54.0216 103.656 53.6845 104.067 53.3475 104.442Z" fill="#222222"/>
<path d="M55.0185 101.656L57.4902 101.656L57.4902 99.1876L55.0185 99.1876L55.0185 101.656Z" fill="#48C7FF"/>
<path d="M57.4676 101.858H54.9958C54.8835 101.858 54.8086 101.784 54.8086 101.671V99.2026C54.8086 99.0904 54.8835 99.0156 54.9958 99.0156H57.4676C57.58 99.0156 57.6549 99.0904 57.6549 99.2026V101.671C57.6923 101.784 57.58 101.858 57.4676 101.858ZM55.2206 101.447H57.2803V99.3897H55.2206V101.447Z" fill="#222222"/>
<path d="M11.253 105.604C8.33189 105.604 5.07367 105.006 3.08878 102.687C2.90152 102.462 2.67682 102.2 2.48956 101.826C0.91663 98.834 3.12623 94.2707 9.2307 87.8746C10.3168 86.7525 11.4403 85.6678 12.6387 84.6953C12.9758 84.4334 13.4626 84.4708 13.7622 84.8075C14.0244 85.1441 13.987 85.6304 13.6499 85.9296C12.5264 86.8647 11.4029 87.912 10.3917 88.9967C3.20113 96.5897 3.23858 99.8439 3.91269 101.153C4.02505 101.34 4.1374 101.49 4.32465 101.714C6.79641 104.594 12.0395 104.258 14.9232 103.771C15.3352 103.696 15.7471 103.996 15.822 104.445C15.8969 104.893 15.5973 105.267 15.1479 105.342C14.0619 105.454 12.6762 105.604 11.253 105.604Z" fill="#222222"/>
<path d="M6.53021 102.27C9.63862 102.307 12.7845 102.382 15.8929 102.419C16.5296 111.621 17.1662 120.822 17.8029 130.023C17.3535 130.472 16.6419 130.996 15.8929 130.921C15.1439 130.846 14.9941 130.21 14.2451 130.023C13.0841 129.761 12.6721 131.071 11.1741 131.22C9.56372 131.407 8.88961 129.948 7.24178 130.135C6.26806 130.248 5.55649 130.846 5.14453 131.258C5.59394 121.607 6.0808 111.92 6.53021 102.27Z" fill="#48C7FF"/>
<path d="M5.14429 131.452C5.10683 131.452 5.10684 131.452 5.06938 131.452C4.99448 131.415 4.95703 131.34 4.95703 131.265L6.34271 102.277C6.34271 102.165 6.45506 102.09 6.52996 102.09L15.8927 102.239C16.005 102.239 16.0799 102.314 16.0799 102.426L17.9899 130.031C17.9899 130.105 17.9899 130.143 17.915 130.18C17.2034 130.891 16.4919 131.228 15.8178 131.115C15.3683 131.078 15.1062 130.816 14.844 130.629C14.6568 130.442 14.4321 130.292 14.1325 130.218C13.6082 130.105 13.2711 130.33 12.8217 130.666C12.3723 130.966 11.8854 131.34 11.1364 131.415C10.275 131.527 9.67583 131.19 9.07662 130.854C8.51485 130.554 7.99054 130.255 7.20408 130.33C6.52996 130.405 5.85585 130.779 5.21919 131.415C5.25664 131.452 5.18174 131.452 5.14429 131.452ZM7.54113 129.918C8.2527 129.918 8.81446 130.218 9.33877 130.517C9.90053 130.816 10.4248 131.115 11.1739 131.041C11.8105 130.966 12.2599 130.666 12.6719 130.367C13.1588 130.031 13.6082 129.694 14.3197 129.844C14.7317 129.956 14.9564 130.143 15.1811 130.33C15.4058 130.517 15.5931 130.666 15.9301 130.741C16.4544 130.816 17.0162 130.554 17.6154 129.956L15.7429 102.614L6.75467 102.464L5.40644 130.779C6.00565 130.292 6.60487 129.993 7.24153 129.918C7.31643 129.918 7.42878 129.918 7.54113 129.918Z" fill="#222222"/>
<path d="M8.29391 130.32C8.10655 130.32 7.99414 130.17 7.99414 130.021L8.85599 104.885C8.85599 104.736 8.96841 104.586 9.15577 104.586C9.30566 104.586 9.45555 104.736 9.45555 104.885L8.59369 130.021C8.59369 130.17 8.4438 130.32 8.29391 130.32Z" fill="#222222"/>
<path d="M13.5742 130.17C13.4244 130.17 13.2745 130.058 13.2745 129.871L12.5625 108.85C12.5625 108.7 12.6749 108.551 12.8623 108.551C13.0496 108.551 13.162 108.663 13.162 108.85L13.874 129.871C13.874 130.021 13.7616 130.133 13.5742 130.17C13.6117 130.17 13.5742 130.17 13.5742 130.17Z" fill="#222222"/>
<path d="M13.8034 58.7694C12.3804 58.7694 10.8824 58.3954 9.57167 57.6099C9.42188 57.5351 9.38443 57.3481 9.45932 57.1985C9.53422 57.0488 9.72147 57.0114 9.87127 57.0862C12.3429 58.545 15.3014 58.545 17.5858 57.0862C20.0574 55.5153 20.6566 52.897 20.8064 52.1115C20.8064 52.0367 20.8813 51.9619 20.9562 51.8871C21.0311 51.8497 21.1434 51.8497 21.2183 51.8497C27.2102 54.0565 33.6515 52.5604 37.284 48.1467C40.4672 44.2567 40.2425 39.5438 39.9804 37.711C39.9429 37.5614 40.0553 37.4118 40.2425 37.3744C40.3923 37.3369 40.5421 37.4492 40.5795 37.6362C40.8417 39.5438 41.1038 44.4437 37.7709 48.5207C34.0634 53.0466 27.5098 54.6176 21.3681 52.523C21.1434 53.6077 20.357 56.0389 17.9603 57.5351C16.6496 58.3954 15.2265 58.7694 13.8034 58.7694Z" fill="#222222"/>
<path d="M25.0332 52.6736C22.7862 52.6736 21.1009 52.2247 20.7638 52.1125C20.614 52.0751 20.5017 51.8881 20.5766 51.7385C20.614 51.5888 20.8013 51.4766 20.9511 51.5514C21.6626 51.7759 28.2165 53.5713 33.572 49.1576C37.392 46.0157 38.1784 41.7516 38.3657 40.0684C38.3657 39.9188 38.5155 39.7692 38.7028 39.8066C38.8526 39.8066 39.0024 39.9562 38.9649 40.1432C38.7777 41.9012 37.9537 46.3523 33.984 49.6438C30.9504 52.0377 27.6173 52.6736 25.0332 52.6736Z" fill="#222222"/>
<path d="M23.276 51.9662C22.1525 51.9662 21.2911 51.8539 20.8042 51.7791C20.6544 51.7417 20.5421 51.5921 20.5795 51.4425C20.617 51.2929 20.7668 51.1807 20.9166 51.2181C22.3397 51.4799 27.2832 52.0036 31.6275 48.712C34.5861 46.4304 35.8594 43.4755 36.3088 41.8671C36.3463 41.7175 36.5336 41.6053 36.6834 41.6801C36.8332 41.7175 36.9455 41.9045 36.8706 42.0541C36.3838 43.6999 35.073 46.8044 31.9646 49.1983C28.9685 51.4425 25.5979 51.9662 23.276 51.9662Z" fill="#222222"/>
<path d="M21.0279 51.7439C20.953 51.7439 20.9155 51.7439 20.8406 51.7439C20.6908 51.7439 20.541 51.5943 20.541 51.4447C20.541 51.2951 20.6908 51.1454 20.8406 51.1454C22.7132 51.1828 26.3833 50.8462 29.7165 48.3027C31.3268 47.1058 32.6376 45.5348 33.6113 43.7395C33.6862 43.5898 33.8735 43.5524 34.0233 43.6272C34.1731 43.7021 34.2105 43.8891 34.1356 44.0387C33.1245 45.9463 31.7388 47.5173 30.091 48.789C26.7204 51.3699 23.0502 51.7439 21.0279 51.7439Z" fill="#222222"/>
<path d="M14.0226 57.1948C12.7492 57.1948 11.6632 56.8582 11.064 56.5964C10.9142 56.5216 10.8392 56.3719 10.9141 56.2223C10.9891 56.0727 11.1389 55.9979 11.2887 56.0727C12.15 56.4093 13.8728 56.933 15.8577 56.3719C19.0784 55.4742 20.3517 52.5193 20.5764 51.9583C20.6514 51.8087 20.8012 51.7338 20.951 51.7713C21.1008 51.8461 21.1757 51.9957 21.1382 52.1453C20.9135 52.7812 19.5278 55.9605 16.0075 56.933C15.2959 57.12 14.6218 57.1948 14.0226 57.1948Z" fill="#222222"/>
<path d="M13.7632 55.7062C13.3887 55.7062 13.0516 55.6688 12.7895 55.6688C12.6397 55.6688 12.4899 55.5191 12.5273 55.3321C12.5273 55.1825 12.6771 55.0329 12.8644 55.0703C13.913 55.1825 15.9353 55.1825 17.9202 53.9482C18.9688 53.2749 19.8677 52.3772 20.5043 51.2551C20.5792 51.1055 20.7665 51.0681 20.9163 51.1429C21.0661 51.2177 21.1035 51.4047 21.0286 51.5543C20.3545 52.7138 19.3808 53.7238 18.2573 54.4344C16.572 55.4817 14.9242 55.7062 13.7632 55.7062Z" fill="#222222"/>
<path d="M60.3132 106.95C61.5116 106.95 62.2606 108.745 62.5602 109.456C62.7849 110.017 63.9085 112.598 62.5602 113.982C61.8112 114.73 60.7626 114.73 60.463 114.73C59.1522 114.73 57.8414 113.907 57.3546 112.673C56.9052 111.513 57.4295 110.466 57.9163 109.456C58.3283 108.633 59.1522 106.912 60.3132 106.95Z" fill="#EFEFEF"/>
<path d="M57.7662 112.747C57.6164 112.747 57.5041 112.747 57.3543 112.747C57.2045 112.747 57.0547 112.597 57.0547 112.448C57.0547 112.298 57.2045 112.149 57.3543 112.149C58.2157 112.186 59.077 112.074 59.8635 111.812C60.8372 111.475 61.7735 110.914 62.485 110.166C62.5974 110.054 62.7847 110.054 62.897 110.166C63.0094 110.278 63.0094 110.465 62.897 110.578C62.1105 111.401 61.0994 111.999 60.0133 112.373C59.3766 112.635 58.5902 112.747 57.7662 112.747Z" fill="#222222"/>
<path d="M58.2918 114.24C58.142 114.24 57.9922 114.128 57.9922 113.941C57.9922 113.791 58.1045 113.642 58.2918 113.642C59.1157 113.604 59.9396 113.455 60.7261 113.23C61.4751 113.006 62.1867 112.669 62.8608 112.295C63.0106 112.22 63.1978 112.258 63.2727 112.407C63.3477 112.557 63.3102 112.744 63.1604 112.819C62.4488 113.23 61.6624 113.567 60.8759 113.829C60.052 114.053 59.1906 114.203 58.2918 114.24Z" fill="#222222"/>
<path d="M60.5711 115.027C59.5974 115.027 58.5862 114.653 57.9121 113.98C56.3392 112.409 57.0882 109.903 57.987 108.594C58.5113 107.845 59.5225 106.574 60.6835 106.761C61.807 106.948 62.7433 108.556 63.1178 110.052C63.5297 111.548 63.5672 113.456 62.4437 114.391C61.9568 114.84 61.2827 115.027 60.5711 115.027ZM60.4213 107.359C59.8596 107.359 59.148 107.92 58.4739 108.93C57.7249 110.052 57.0133 112.297 58.3241 113.568C59.2978 114.541 61.1329 114.728 62.0692 113.942C62.8182 113.306 63.0054 111.848 62.556 110.202C62.144 108.668 61.3201 107.471 60.5711 107.359C60.5337 107.359 60.4588 107.359 60.4213 107.359Z" fill="#222222"/>
<path d="M57.5412 111.027C57.3913 111.027 57.279 110.915 57.2416 110.765C57.2041 110.615 57.3164 110.466 57.5037 110.428C58.2902 110.316 59.0392 110.054 59.7133 109.718C60.4998 109.306 61.2113 108.783 61.848 108.147C61.9603 108.034 62.1476 108.034 62.26 108.147C62.3723 108.259 62.3723 108.446 62.26 108.558C61.5858 109.269 60.8368 109.83 59.9755 110.279C59.2264 110.653 58.4025 110.915 57.5786 111.064C57.5786 111.027 57.5786 111.027 57.5412 111.027Z" fill="#222222"/>
<path d="M225.762 109.992C245.762 109.992 261.975 93.7979 261.975 73.822C261.975 53.846 245.762 37.6523 225.762 37.6523C205.762 37.6523 189.549 53.846 189.549 73.822C189.549 93.7979 205.762 109.992 225.762 109.992Z" fill="url(#paint1_linear)"/>
<path d="M196.851 55.1055C196.664 55.5543 196.364 56.3024 196.065 57.3123C195.765 58.3596 193.63 65.6534 197.001 68.9075C197.75 69.6182 198.611 69.9922 198.873 70.1045C200.709 70.8525 202.394 70.4411 202.993 70.2915C208.461 69.0197 211.045 60.9031 211.345 59.9306C211.906 58.0604 212.131 56.4894 212.206 55.5169C207.113 55.4047 201.982 55.2551 196.851 55.1055Z" fill="#EFEFEF"/>
<path d="M218.833 55.1055C218.609 55.6291 218.347 56.3024 218.159 57.1253C218.159 57.1253 217.897 58.1726 217.785 59.2947C217.598 61.4267 217.223 65.5038 219.807 68.4961C220.669 69.4686 221.53 69.9923 221.829 70.1419C221.829 70.1419 224.301 71.4884 227.26 70.9274C232.653 69.88 235.499 62.9229 236.697 59.968C237.297 58.5092 237.671 57.2749 237.896 56.3772C231.567 55.9284 225.2 55.5169 218.833 55.1055Z" fill="#EFEFEF"/>
<path d="M122.928 109.945C142.928 109.945 159.141 93.751 159.141 73.7751C159.141 53.7992 142.928 37.6055 122.928 37.6055C102.928 37.6055 86.7148 53.7992 86.7148 73.7751C86.7148 93.751 102.928 109.945 122.928 109.945Z" fill="url(#paint2_linear)"/>
<path d="M107.875 58.8473C117.724 57.8 127.573 56.7527 137.385 55.668C144.762 56.6779 152.102 57.6878 159.48 58.6977C158.431 65.5426 157.42 72.3875 156.372 79.2325C150.867 79.008 145.324 78.7462 139.819 78.5218C139.033 76.5394 138.284 74.5196 137.497 72.5372C136.636 74.4822 135.812 76.3898 134.951 78.3348C127.349 78.7836 119.784 79.2325 112.182 79.7187C110.759 72.7242 109.298 65.767 107.875 58.8473Z" fill="#EFEFEF"/>
<path d="M244.64 118.661C244.864 118.923 245.613 119.708 245.876 120.755C246.55 123.187 244.415 125.431 244.265 125.618C244.565 125.805 245.464 126.366 245.501 127.151C245.539 128.274 243.853 129.171 242.655 129.396C240.333 129.845 237.262 128.311 236.213 125.506C235.165 122.663 236.813 119.895 238.348 118.586C238.76 118.212 240.52 116.678 242.43 117.165C243.516 117.464 244.265 118.249 244.64 118.661Z" fill="#EFEFEF"/>
<path d="M157.343 113.641C157.043 111.359 158.803 109.676 159.028 109.414C160.788 107.656 163.709 107.245 166.481 108.217C166.294 108.629 166.144 109.078 165.956 109.489C167.342 109.564 168.391 109.9 169.065 110.2C169.926 110.574 171.649 111.322 172.435 113.08C172.698 113.641 172.773 114.165 172.81 114.501C172.66 115.212 172.211 116.97 170.638 118.167C168.878 119.551 166.78 119.364 165.058 119.214C163.934 119.102 161.238 118.84 159.14 116.783C158.504 116.11 157.53 115.137 157.343 113.641Z" fill="#EFEFEF"/>
<path d="M223.891 203.234L222.58 203.196C219.771 203.159 216.963 203.084 214.154 203.047C212.956 203.159 211.907 202.673 211.608 201.925C211.42 201.438 211.608 200.877 211.608 200.84C211.832 200.167 212.319 200.129 212.469 199.531C212.619 199.044 212.431 198.446 212.094 198.072C211.495 197.436 210.484 197.586 210.334 197.586C208.537 197.847 207.301 200.466 206.926 202.261C206.814 202.747 205.953 206.899 208.537 208.919C209.323 209.517 210.147 209.742 210.746 209.817H226.213C227.935 209.817 229.358 208.433 229.358 206.675V206.376C229.358 205.066 228.572 203.944 227.449 203.495" fill="#222222"/>
<path d="M244.074 204.28C243.55 204.841 243.25 205.626 243.25 206.412V206.711C243.25 208.432 244.636 209.853 246.396 209.853H258.006C258.605 209.778 259.429 209.554 260.215 208.955C262.799 206.935 261.938 202.784 261.826 202.297C261.414 200.502 260.215 197.884 258.418 197.622C258.268 197.584 257.257 197.472 256.657 198.108C256.32 198.482 256.133 199.081 256.283 199.567C256.433 200.165 256.92 200.203 257.144 200.876C257.144 200.913 257.332 201.474 257.144 201.961C256.845 202.709 255.833 203.195 254.598 203.083C251.714 203.12 250.778 203.195 249.017 203.232L247.444 203.27" fill="#222222"/>
<path d="M241.867 129.958C240.444 129.958 238.983 129.472 237.86 128.574C235.313 126.479 234.789 122.365 236.699 119.56C238.01 117.615 240.781 116.044 243.066 116.792C243.29 116.866 243.44 117.128 243.365 117.353C243.29 117.577 243.028 117.727 242.803 117.652C240.931 117.016 238.572 118.437 237.448 120.083C235.8 122.477 236.287 126.143 238.459 127.938C239.92 129.135 242.092 129.472 243.74 128.761C244.152 128.574 245.238 128.125 245.275 127.414C245.313 126.853 244.751 126.255 243.927 125.956C243.777 125.918 243.702 125.769 243.665 125.619C243.627 125.469 243.702 125.32 243.777 125.208C244.152 124.834 245.425 123.487 245.425 121.542C245.425 121.392 245.425 120.944 245.275 120.42C245.2 120.195 245.35 119.934 245.575 119.896C245.8 119.821 246.062 119.971 246.099 120.195C246.286 120.831 246.286 121.355 246.286 121.542C246.324 123.3 245.462 124.647 244.826 125.395C245.687 125.918 246.211 126.666 246.137 127.452C246.062 128.724 244.639 129.322 244.077 129.546C243.403 129.846 242.654 129.958 241.867 129.958Z" fill="#222222"/>
<path d="M242.914 129.885C242.876 129.885 242.801 129.885 242.764 129.847C242.389 129.698 241.153 129.174 240.554 127.715C239.88 126.144 240.554 124.723 240.704 124.461C240.816 124.237 241.078 124.162 241.303 124.274C241.528 124.386 241.603 124.648 241.49 124.873C241.378 125.097 240.891 126.182 241.378 127.379C241.827 128.463 242.801 128.912 243.101 129.025C243.325 129.099 243.438 129.361 243.363 129.586C243.288 129.773 243.101 129.885 242.914 129.885Z" fill="#222222"/>
<path d="M239.391 129.435C239.242 129.435 239.092 129.36 239.017 129.211C238.68 128.612 238.23 127.677 238.193 126.443C238.118 124.76 238.83 123.488 239.279 122.852C239.429 122.665 239.691 122.59 239.878 122.74C240.066 122.889 240.14 123.151 239.991 123.338C239.616 123.862 239.017 124.947 239.092 126.368C239.129 127.415 239.504 128.201 239.803 128.724C239.916 128.949 239.878 129.211 239.654 129.323C239.541 129.435 239.466 129.435 239.391 129.435Z" fill="#222222"/>
<path d="M237.034 127.408C236.847 127.408 236.66 127.259 236.622 127.072C236.435 126.324 236.248 125.164 236.622 123.78C236.885 122.845 237.334 121.947 237.971 121.199C238.121 121.012 238.42 120.975 238.607 121.162C238.795 121.312 238.832 121.611 238.645 121.798C238.083 122.434 237.709 123.219 237.484 124.005C237.184 125.164 237.334 126.174 237.484 126.847C237.559 127.072 237.409 127.334 237.184 127.371C237.109 127.408 237.072 127.408 237.034 127.408Z" fill="#222222"/>
<path d="M225.538 71.352C223.591 71.352 221.943 70.8283 220.632 69.8184C219.059 68.6215 218.423 67.0879 218.086 66.2276C216.625 62.7491 217.337 59.4201 217.823 56.9889C218.31 54.7072 219.134 52.5004 220.258 50.3684C220.333 50.2188 220.52 50.1813 220.67 50.2562C220.819 50.331 220.857 50.518 220.782 50.6676C219.658 52.7248 218.872 54.8942 218.423 57.1385C217.936 59.4949 217.262 62.7117 218.647 66.0406C218.984 66.8635 219.584 68.2849 221.007 69.3696C222.505 70.5291 224.49 70.9779 226.886 70.6787C231.343 70.1925 235.538 64.9559 237.335 57.6995C237.373 57.5499 237.522 57.4377 237.71 57.4751C237.86 57.5125 237.972 57.6621 237.934 57.8492C236.099 65.3674 231.68 70.7535 226.999 71.2772C226.437 71.3146 225.95 71.352 225.538 71.352Z" fill="#222222"/>
<path d="M201.119 70.8214C200.033 70.8214 198.498 70.597 197.224 69.587C196.663 69.1382 195.839 68.2031 195.277 66.5199C193.891 62.1811 195.502 57.0941 196.588 54.4758C196.663 54.3262 196.812 54.2514 196.962 54.3262C197.112 54.401 197.187 54.5506 197.112 54.7003C196.063 57.2811 194.453 62.2185 195.801 66.3329C196.213 67.5672 196.812 68.5397 197.524 69.1382C199.209 70.4847 201.456 70.2603 202.205 70.1481C205.95 69.7367 209.583 65.2482 211.493 58.7399C211.531 58.5903 211.718 58.4781 211.868 58.5529C212.017 58.5903 212.13 58.7773 212.055 58.9269C210.07 65.6596 206.25 70.3351 202.28 70.7466C202.093 70.784 201.644 70.8214 201.119 70.8214Z" fill="#222222"/>
<path d="M238.531 57.8762C238.456 57.8762 238.381 57.8762 238.306 57.8388C235.722 57.39 233.138 57.016 230.517 56.7167C225.686 56.2305 220.743 56.0434 215.874 56.2305C215.238 56.2679 214.676 55.7442 214.639 55.1083C214.601 54.4725 215.125 53.9114 215.762 53.874C220.743 53.687 225.798 53.8366 230.742 54.3603C233.401 54.6221 236.059 55.0335 238.681 55.4824C239.318 55.5946 239.729 56.1931 239.617 56.8663C239.58 57.4648 239.093 57.8762 238.531 57.8762Z" fill="#222222"/>
<path d="M211.611 43.5526C211.274 43.5526 210.974 43.403 210.712 43.1411C208.615 40.7847 205.694 39.7748 203.222 40.5977C201.761 41.0839 200.788 42.1312 200.226 42.9541C199.851 43.4778 199.102 43.6274 198.578 43.2534C198.054 42.8793 197.904 42.1312 198.278 41.6076C199.027 40.5229 200.376 39.0641 202.473 38.3908C205.843 37.2687 209.738 38.5404 212.472 41.6076C212.884 42.0938 212.847 42.8419 212.36 43.2534C212.173 43.4778 211.91 43.5526 211.611 43.5526Z" fill="#222222"/>
<path d="M221.081 51.0736C220.744 51.0736 220.407 51.0736 220.07 51.0362C219.283 50.9614 218.497 50.8492 217.748 50.6622C217.111 50.5126 216.737 49.8767 216.886 49.2408C217.036 48.605 217.673 48.2309 218.31 48.3805C218.946 48.5301 219.583 48.6424 220.22 48.6798C223.665 48.9416 226.549 47.5202 228.384 46.2859C228.908 45.9119 229.657 46.0615 230.032 46.5851C230.406 47.1088 230.256 47.8569 229.732 48.2309C227.785 49.54 224.751 51.0736 221.081 51.0736Z" fill="#222222"/>
<path d="M217.075 52.6503C216.776 52.6503 215.24 52.4633 214.304 51.1168C213.517 49.9572 213.705 48.7229 213.78 48.3489C213.817 48.1992 213.967 48.087 214.117 48.1244C214.266 48.1618 214.379 48.3115 214.341 48.4611C214.266 48.7603 214.117 49.8076 214.753 50.7427C215.54 51.9022 216.888 52.0144 217.038 52.0519C217.188 52.0519 217.337 52.2015 217.3 52.3511C217.375 52.5381 217.225 52.6503 217.075 52.6503Z" fill="#222222"/>
<path d="M211.57 56.5672C211.533 56.5672 211.495 56.5672 211.495 56.5672C208.387 56.3428 205.241 56.1932 202.132 56.1184C199.511 56.0436 196.814 56.0436 194.155 56.1184C194.155 56.1184 194.155 56.1184 194.118 56.1184C193.481 56.1184 192.957 55.5947 192.957 54.9589C192.957 54.323 193.444 53.7619 194.118 53.7619C196.814 53.6871 199.511 53.7245 202.17 53.7619C205.316 53.8367 208.499 53.9864 211.645 54.2482C212.282 54.2856 212.768 54.8467 212.731 55.5199C212.694 56.081 212.207 56.5672 211.57 56.5672Z" fill="#222222"/>
<path d="M220.258 63.4112C221.582 63.4112 222.655 61.9375 222.655 60.1197C222.655 58.3018 221.582 56.8281 220.258 56.8281C218.934 56.8281 217.861 58.3018 217.861 60.1197C217.861 61.9375 218.934 63.4112 220.258 63.4112Z" fill="#222222"/>
<path d="M197.975 63.4112C199.299 63.4112 200.372 61.9375 200.372 60.1197C200.372 58.3018 199.299 56.8281 197.975 56.8281C196.651 56.8281 195.578 58.3018 195.578 60.1197C195.578 61.9375 196.651 63.4112 197.975 63.4112Z" fill="#222222"/>
<path d="M222.956 60.1685C222.956 60.9166 222.506 61.4028 222.431 61.4777C221.72 61.0288 221.008 60.6174 220.334 60.1685C221.046 59.7197 221.757 59.3082 222.431 58.8594C222.544 58.9716 222.956 59.4204 222.956 60.1685Z" fill="#EFEFEF"/>
<path d="M200.711 60.0826C200.711 60.8307 200.262 61.3169 200.187 61.3917C199.476 60.9429 198.764 60.5314 198.09 60.0826C198.801 59.6337 199.513 59.2223 200.187 58.7734C200.262 58.8856 200.711 59.3719 200.711 60.0826Z" fill="#EFEFEF"/>
<path d="M196.214 72.3109C196.364 72.2361 196.701 72.0117 197.188 71.9369C201.644 71.1888 203.742 82.8214 211.606 85.6267C215.913 87.1603 220.219 85.4397 221.343 84.9908C229.057 81.8863 229.694 73.8445 236.21 73.1712C236.734 73.1338 239.393 72.9094 241.565 74.5177C244.674 76.7994 244.823 81.1756 244.823 81.7741C245.011 89.2549 234.712 98.4189 223.515 99.8402C212.542 101.224 201.307 95.1647 197.263 86.7862C195.203 82.4848 193.368 74.2559 196.214 72.3109Z" fill="#EFEFEF"/>
<path d="M220.406 100.295C210.669 100.295 200.82 94.797 196.963 86.8673C194.941 82.7155 192.919 74.1874 196.027 72.0554C196.364 71.8309 196.738 71.6813 197.15 71.6065C199.472 71.2325 201.12 73.8133 203.067 76.7682C205.239 80.0972 207.673 83.8376 211.718 85.2964C213.628 85.9696 216.849 86.4185 221.23 84.6605C224.9 83.2017 226.96 80.5086 228.795 78.1522C230.78 75.5713 232.69 73.1775 236.172 72.8034C237.146 72.6912 239.618 72.6538 241.752 74.1874C244.748 76.3942 245.085 80.4712 245.123 81.6682C245.347 89.523 234.637 98.6122 223.552 100.034C222.541 100.221 221.492 100.295 220.406 100.295ZM196.401 72.5416C193.855 74.2996 195.39 82.1918 197.525 86.6055C201.27 94.3107 210.894 99.6969 220.406 99.6969C221.455 99.6969 222.466 99.6221 223.477 99.5099C234.3 98.1259 244.748 89.336 244.523 81.743C244.486 80.6209 244.186 76.7682 241.378 74.711C239.355 73.2523 236.921 73.3645 236.21 73.4393C232.952 73.7759 231.229 75.9828 229.244 78.5636C227.372 80.9949 225.237 83.7254 221.417 85.259C216.849 87.0917 213.516 86.6055 211.493 85.8948C207.262 84.3987 204.678 80.359 202.58 77.1423C200.671 74.2248 199.21 71.9057 197.263 72.2424C196.926 72.2424 196.626 72.3546 196.401 72.5416Z" fill="#222222"/>
<path d="M241.526 90.1943C241.451 90.1943 241.339 90.1568 241.302 90.082L230.665 76.28C230.553 76.1678 230.591 75.9807 230.703 75.8685C230.815 75.7563 231.003 75.7937 231.115 75.9059L241.751 89.708C241.863 89.8202 241.826 90.0072 241.713 90.1194C241.676 90.1569 241.601 90.1943 241.526 90.1943Z" fill="#222222"/>
<path d="M233.176 96.9616C233.063 96.9616 232.951 96.8868 232.913 96.812L225.311 82.4488C225.236 82.2992 225.273 82.1122 225.423 82.0374C225.573 81.9626 225.76 82 225.835 82.1496L233.438 96.4753C233.513 96.625 233.475 96.812 233.325 96.8868C233.25 96.9242 233.213 96.9616 233.176 96.9616Z" fill="#222222"/>
<path d="M223.927 100.03C223.815 100.03 223.702 99.9553 223.665 99.8431L218.609 85.8914C218.572 85.7418 218.647 85.5547 218.796 85.5173C218.946 85.4799 219.133 85.5547 219.171 85.7044L224.227 99.656C224.264 99.8057 224.189 99.9927 224.04 100.03C224.002 100.03 223.965 100.03 223.927 100.03Z" fill="#222222"/>
<path d="M215.836 99.9238C215.686 99.9238 215.574 99.849 215.537 99.6994L211.904 85.86C211.866 85.7103 211.941 85.5233 212.129 85.4859C212.278 85.4485 212.428 85.5233 212.503 85.7103L216.136 99.5498C216.173 99.6994 216.098 99.8864 215.911 99.9238C215.874 99.9238 215.836 99.9238 215.836 99.9238Z" fill="#222222"/>
<path d="M207.339 97.0053C207.189 97.0053 207.077 96.8931 207.039 96.7809L203.931 79.2384C203.894 79.0888 204.006 78.9392 204.156 78.9018C204.306 78.8644 204.455 78.9766 204.493 79.1262L207.601 96.6687C207.639 96.8183 207.526 96.9679 207.377 97.0053C207.377 97.0053 207.377 97.0053 207.339 97.0053Z" fill="#222222"/>
<path d="M200.708 91.9861C200.558 91.9861 200.446 91.8739 200.408 91.7242L197.749 71.9375C197.712 71.7879 197.824 71.6383 198.012 71.6009C198.161 71.5635 198.311 71.6757 198.349 71.8627L201.008 91.6494C201.045 91.7991 200.933 91.9487 200.745 91.9861C200.745 91.9861 200.745 91.9861 200.708 91.9861Z" fill="#222222"/>
<path d="M198.088 71.9037C198.987 78.4868 199.848 85.0699 200.747 91.6904C197.676 88.2492 196.44 84.9577 195.879 83.0127C195.017 80.0578 193.894 73.6243 196.44 72.1655C196.965 71.8663 197.639 71.8663 198.088 71.9037Z" fill="#222222"/>
<path d="M228.307 73.4754C228.27 73.4754 228.232 73.4754 228.195 73.438C228.045 73.3632 227.97 73.2136 228.045 73.064C228.682 71.5678 230.255 68.7625 233.625 67.0045C236.659 65.4336 239.542 65.5458 241.003 65.7702C241.153 65.8076 241.265 65.9572 241.265 66.1068C241.228 66.2565 241.078 66.3687 240.928 66.3687C239.542 66.1817 236.771 66.032 233.925 67.5282C230.704 69.174 229.206 71.8671 228.607 73.2884C228.532 73.438 228.42 73.4754 228.307 73.4754Z" fill="#222222"/>
<path d="M127.684 55.3368C125.924 55.3368 124.163 55.1124 122.441 54.6636C121.804 54.514 121.429 53.8407 121.617 53.2422C121.766 52.6063 122.441 52.2323 123.04 52.4193C124.875 52.9056 126.747 53.0926 128.62 53.0178C129.856 52.943 131.092 52.756 132.29 52.4193C132.927 52.2697 133.563 52.6438 133.713 53.2422C133.863 53.8781 133.489 54.514 132.889 54.6636C131.541 55.0376 130.118 55.262 128.732 55.3368C128.395 55.2994 128.021 55.3368 127.684 55.3368Z" fill="#222222"/>
<path d="M155.58 49.4984C155.018 49.4984 154.532 49.1244 154.419 48.5633C154.269 47.7778 153.97 47.2168 153.558 46.9175C152.322 45.9824 149.251 46.5435 146.555 49.1992C146.068 49.648 145.356 49.648 144.907 49.1618C144.457 48.7129 144.457 47.9649 144.944 47.516C148.352 44.2245 152.584 43.2146 155.018 45.0847C155.88 45.758 156.516 46.8053 156.779 48.1519C156.891 48.7877 156.479 49.4236 155.842 49.5358C155.73 49.4984 155.655 49.4984 155.58 49.4984Z" fill="#222222"/>
<path d="M108.621 66.1144H108.583L83.2679 64.5809C82.781 64.5435 82.4065 64.132 82.444 63.6458C82.4814 63.1595 82.8934 62.7855 83.3802 62.8229L108.696 64.3565C109.183 64.3939 109.557 64.8053 109.52 65.2916C109.482 65.7404 109.07 66.1144 108.621 66.1144Z" fill="#222222"/>
<path d="M112.177 80.545C111.765 80.545 111.391 80.2458 111.316 79.8343L107.084 58.5515C106.972 58.0652 107.309 57.6164 107.796 57.5042C108.283 57.3919 108.732 57.7286 108.844 58.2148L112.926 78.7496L134.347 77.7397L136.482 72.1665L136.706 55.4095C136.706 54.9233 137.118 54.5118 137.605 54.5492C138.092 54.5492 138.467 54.9607 138.467 55.4469L138.242 72.3535C138.242 72.4657 138.204 72.5779 138.167 72.6528L135.77 78.8992C135.658 79.2359 135.321 79.4603 134.984 79.4603L112.252 80.545C112.215 80.545 112.215 80.545 112.177 80.545Z" fill="#222222"/>
<path d="M156.594 80.2431H156.557L139.667 79.4951C139.293 79.4951 138.993 79.2332 138.881 78.8966L136.671 72.6501C136.521 72.2013 136.746 71.6776 137.196 71.528C137.645 71.3784 138.169 71.6028 138.319 72.0517L140.341 77.7371L155.808 78.4103L158.467 58.1374C158.541 57.6511 158.953 57.3145 159.44 57.3893C159.927 57.4641 160.264 57.913 160.189 58.3618L157.418 79.4577C157.418 79.9439 157.044 80.2431 156.594 80.2431Z" fill="#222222"/>
<path d="M106.599 59.3738C106.149 59.3738 105.775 59.0371 105.737 58.5883C105.7 58.102 106.037 57.6532 106.524 57.6158L137.419 54.3242C137.494 54.3242 137.569 54.3242 137.644 54.3242L161.162 57.5036C161.649 57.5784 161.986 58.0272 161.911 58.5135C161.836 58.9997 161.387 59.3364 160.9 59.2615L137.494 56.0822L106.711 59.3738C106.673 59.3738 106.636 59.3738 106.599 59.3738Z" fill="#222222"/>
<path d="M108.959 89.4097C108.922 89.4097 108.885 89.4097 108.847 89.3722C108.023 88.9982 107.274 88.512 106.6 87.9135C105.888 87.2776 105.327 86.5296 104.877 85.7067C104.802 85.557 104.84 85.37 104.99 85.2952C105.139 85.2204 105.327 85.2578 105.402 85.4074C105.814 86.1929 106.375 86.8662 107.012 87.4646C107.649 88.0257 108.323 88.4746 109.109 88.8112C109.259 88.886 109.334 89.0356 109.259 89.1852C109.184 89.3348 109.072 89.4097 108.959 89.4097Z" fill="#222222"/>
<path d="M113.378 87.2449C111.992 87.2449 110.007 86.9457 108.21 85.5243C106.337 84.0281 105.626 82.0831 105.364 81.0732C105.251 80.587 105.551 80.1381 106 79.9885C106.487 79.8763 106.936 80.1755 107.086 80.6244C107.274 81.4473 107.835 82.9808 109.296 84.1403C111.505 85.8983 114.127 85.4869 114.651 85.3747C115.138 85.2625 115.588 85.5991 115.7 86.0854C115.812 86.5716 115.475 87.0205 114.988 87.1327C114.689 87.1327 114.127 87.2449 113.378 87.2449Z" fill="#222222"/>
<path d="M104.542 80.8459C104.429 80.8459 104.317 80.7711 104.28 80.6963C104.205 80.5467 104.242 80.3597 104.392 80.2849C104.954 79.9856 105.59 79.836 106.19 79.7986C106.864 79.7612 107.575 79.9108 108.212 80.2101C108.362 80.2849 108.437 80.4345 108.362 80.5841C108.287 80.7337 108.137 80.8085 107.987 80.7337C107.613 80.5467 107.014 80.3597 106.265 80.3971C105.74 80.4345 105.178 80.5841 104.692 80.8085C104.617 80.8459 104.579 80.8459 104.542 80.8459Z" fill="#222222"/>
<path d="M134.856 64.7355C134.903 62.6495 133.717 60.9312 132.207 60.8975C130.697 60.8638 129.436 62.5276 129.389 64.6136C129.343 66.6996 130.528 68.4179 132.038 68.4516C133.548 68.4853 134.809 66.8215 134.856 64.7355Z" fill="#222222"/>
<path d="M155.981 64.7355C156.028 62.6495 154.842 60.9312 153.332 60.8975C151.822 60.8639 150.561 62.5276 150.514 64.6136C150.468 66.6996 151.653 68.4179 153.163 68.4516C154.673 68.4853 155.934 66.8215 155.981 64.7355Z" fill="#222222"/>
<path d="M128.994 64.6161C128.957 65.4015 129.444 65.8878 129.519 66C130.268 65.5512 131.017 65.1397 131.728 64.6909C131.017 64.2046 130.305 63.7558 129.556 63.2695C129.481 63.3817 129.032 63.868 128.994 64.6161Z" fill="#EFEFEF"/>
<path d="M150.19 64.6161C150.152 65.4015 150.639 65.8878 150.714 66C151.463 65.5512 152.212 65.1397 152.923 64.6909C152.212 64.2046 151.5 63.7558 150.751 63.2695C150.676 63.3817 150.227 63.868 150.19 64.6161Z" fill="#EFEFEF"/>
<path d="M166.777 119.593C166.552 119.593 166.327 119.593 166.103 119.555C165.878 119.555 165.691 119.331 165.691 119.106C165.691 118.882 165.878 118.695 166.103 118.657C167.039 118.583 167.938 118.396 168.687 118.096C169.361 117.835 170.035 117.573 170.185 117.086C170.41 116.338 169.398 115.104 167.413 113.645C167.076 113.907 166.702 114.169 166.29 114.319C164.605 115.029 162.957 114.73 162.47 113.608C162.021 112.598 162.77 111.326 164.193 110.541C164.754 110.055 165.204 109.606 165.503 109.232C165.578 109.119 165.728 109.082 165.84 109.082C168.649 109.157 171.795 110.84 172.994 112.897C173.106 113.122 173.031 113.383 172.844 113.496C172.619 113.608 172.357 113.533 172.245 113.346C171.233 111.588 168.5 110.129 166.028 109.98C165.691 110.354 165.279 110.765 164.754 111.214C164.717 111.251 164.717 111.251 164.68 111.289C163.668 111.813 163.069 112.673 163.294 113.271C163.519 113.832 164.68 114.094 165.953 113.533C166.402 113.346 166.777 113.084 167.076 112.785C167.226 112.635 167.451 112.598 167.638 112.748C170.222 114.58 171.346 116.039 171.084 117.236C171.458 116.937 171.758 116.563 172.02 116.189C172.132 115.964 172.432 115.927 172.619 116.039C172.806 116.151 172.881 116.451 172.769 116.638C171.533 118.47 169.249 119.593 166.777 119.593Z" fill="#222222"/>
<path d="M165.39 119.591C162.731 119.591 159.435 118.619 157.9 115.851C157.862 115.776 157.787 115.626 157.675 115.439C157.563 115.215 157.675 114.953 157.9 114.841C158.124 114.729 158.387 114.841 158.499 115.065C158.574 115.252 158.649 115.365 158.686 115.439C160.184 118.132 163.63 118.881 166.101 118.731C166.364 118.731 166.551 118.881 166.588 119.142C166.588 119.367 166.438 119.591 166.176 119.629C165.914 119.591 165.652 119.591 165.39 119.591Z" fill="#222222"/>
<path d="M157.642 112.452C157.604 112.452 157.604 112.452 157.567 112.452C157.342 112.414 157.155 112.19 157.192 111.928C157.267 111.554 157.342 111.255 157.492 110.918C158.541 108.412 161.611 107.215 164.196 107.14C164.832 107.103 166.368 107.178 166.78 107.963C167.079 108.562 166.555 109.31 166.143 109.796C165.993 109.983 165.694 110.021 165.506 109.833C165.319 109.684 165.282 109.385 165.469 109.198C166.031 108.562 165.993 108.3 165.993 108.3C165.918 108.15 165.207 107.926 163.933 108.001C161.911 108.15 159.252 109.048 158.316 111.217C158.203 111.479 158.129 111.741 158.091 112.04C158.054 112.302 157.866 112.452 157.642 112.452Z" fill="#222222"/>
<path d="M103.529 203.68H95.7393C94.0165 203.68 92.6309 205.064 92.6309 206.784C92.6309 208.505 94.0165 209.889 95.7393 209.889H103.529C105.252 209.889 106.637 208.505 106.637 206.784C106.637 205.064 105.252 203.68 103.529 203.68Z" fill="#222222"/>
<path d="M132.327 203.68H120.605C118.882 203.68 117.496 205.064 117.496 206.784C117.496 208.505 118.882 209.889 120.605 209.889H132.327C134.049 209.889 135.435 208.505 135.435 206.784C135.435 205.064 134.049 203.68 132.327 203.68Z" fill="#222222"/>
<path d="M102.743 207.605C102.706 207.605 102.668 207.605 102.593 207.605C101.957 207.531 101.47 206.97 101.545 206.296L112.555 107.699C112.63 107.064 113.229 106.577 113.866 106.652C114.503 106.727 114.99 107.288 114.915 107.961L103.904 206.558C103.867 207.157 103.342 207.605 102.743 207.605Z" fill="#222222"/>
<path d="M120.153 207.68H120.116C119.479 207.643 118.955 207.119 118.992 206.483L121.988 113.534C122.026 112.898 122.55 112.375 123.187 112.412C123.823 112.449 124.348 112.973 124.31 113.609L121.314 206.558C121.314 207.194 120.79 207.68 120.153 207.68Z" fill="#222222"/>
<path d="M155.544 115.111C149.852 115.111 144.235 114.251 138.805 112.493C132.738 110.548 127.083 107.593 121.99 103.741C121.466 103.329 121.391 102.619 121.765 102.095C122.177 101.571 122.889 101.496 123.413 101.87C128.281 105.573 133.674 108.416 139.516 110.249C145.733 112.231 152.174 113.017 158.728 112.643C159.402 112.605 159.926 113.092 159.963 113.765C160.001 114.401 159.514 114.962 158.84 114.999C157.791 115.111 156.668 115.111 155.544 115.111Z" fill="#222222"/>
<path d="M178.764 116.606C175.731 116.606 173.185 116.045 171.574 115.596C170.938 115.409 170.601 114.773 170.788 114.137C170.975 113.501 171.612 113.165 172.248 113.352C174.945 114.137 180.337 115.147 186.442 112.94C192.359 110.808 195.804 106.769 197.377 104.562C197.751 104.038 198.5 103.888 199.024 104.262C199.549 104.637 199.699 105.385 199.324 105.908C197.639 108.34 193.782 112.791 187.265 115.184C184.195 116.232 181.311 116.606 178.764 116.606Z" fill="#222222"/>
<path d="M225.948 207.308C225.348 207.308 224.824 206.822 224.787 206.223L219.281 119.334C219.244 118.698 219.731 118.137 220.367 118.1C221.042 118.062 221.566 118.549 221.603 119.184L227.109 206.074C227.146 206.71 226.659 207.271 226.022 207.308C226.022 207.308 225.985 207.308 225.948 207.308Z" fill="#222222"/>
<path d="M245.985 206.533C245.423 206.533 244.936 206.159 244.824 205.56L226.099 107.898C225.986 107.263 226.398 106.627 227.035 106.515C227.671 106.402 228.308 106.814 228.42 107.45L247.183 205.111C247.296 205.747 246.884 206.383 246.247 206.495C246.135 206.533 246.06 206.533 245.985 206.533Z" fill="#222222"/>
<path d="M244.41 119.744C243.848 119.744 243.361 119.37 243.249 118.809C243.137 118.173 243.549 117.537 244.185 117.425C246.17 117.051 248.08 116.452 249.915 115.629C257.255 112.413 258.454 110.206 258.529 109.196C258.679 106.802 253.548 103.062 244.934 101.191C244.298 101.042 243.886 100.443 244.035 99.8074C244.185 99.1715 244.784 98.7601 245.421 98.9097C254.784 100.929 261.15 105.231 260.888 109.345C260.664 113.086 255.046 115.966 250.851 117.799C248.867 118.659 246.769 119.332 244.597 119.744C244.56 119.744 244.485 119.744 244.41 119.744Z" fill="#222222"/>
<path d="M232.346 39.658C232.271 39.658 232.196 39.658 232.159 39.6206C231.934 39.5084 231.859 39.2466 231.971 39.0221C235.23 32.5513 234.406 25.0705 229.949 21.2553C227.028 18.7492 223.358 18.4874 221.41 18.5622C221.186 18.5622 220.961 18.3752 220.961 18.1507C220.961 17.8889 221.148 17.7019 221.373 17.7019C223.433 17.6271 227.365 17.8889 230.511 20.6194C235.267 24.6964 236.203 32.6261 232.758 39.471C232.683 39.5458 232.533 39.658 232.346 39.658Z" fill="#222222"/>
<path d="M247.25 46.4396C247.212 46.4396 247.137 46.4396 247.1 46.4022C246.875 46.3274 246.763 46.0655 246.838 45.8411C247.062 45.2052 249.197 39.632 254.852 38.2481C257.474 37.6122 259.796 38.1359 261.294 38.6969C261.518 38.7718 261.631 39.0336 261.556 39.258C261.481 39.4824 261.219 39.5946 260.994 39.5198C259.608 38.9962 257.474 38.5099 255.077 39.1084C249.871 40.3801 247.886 45.5419 247.699 46.1403C247.624 46.3274 247.437 46.4396 247.25 46.4396Z" fill="#222222"/>
<path d="M236.131 40.741C236.056 40.741 235.981 40.741 235.944 40.7036C235.719 40.5914 235.644 40.3295 235.757 40.1051C236.543 38.5341 237.142 36.851 237.48 35.1304C238.64 29.4824 237.929 24.9191 235.42 21.5902C232.311 17.4757 226.694 15.5307 220.739 16.4658C220.514 16.5032 220.29 16.3536 220.215 16.0918C220.177 15.8674 220.327 15.6429 220.589 15.6055C226.843 14.5956 232.798 16.6902 236.094 21.0665C238.79 24.6199 239.539 29.4076 238.303 35.3174C237.929 37.1128 237.33 38.8334 236.506 40.5166C236.431 40.6662 236.281 40.741 236.131 40.741Z" fill="#222222"/>
<path d="M244.517 44.4965C244.48 44.4965 244.405 44.4965 244.367 44.4591C244.143 44.3843 244.03 44.1225 244.105 43.898C244.555 42.7011 246.315 38.5493 250.809 36.5295C256.764 33.8738 262.194 37.0531 262.793 37.4272C263.018 37.5394 263.055 37.8386 262.943 38.0256C262.831 38.25 262.531 38.2875 262.344 38.1752C261.782 37.8386 256.689 34.8463 251.183 37.3149C246.989 39.1851 245.341 43.0378 244.929 44.1599C244.854 44.3843 244.704 44.4965 244.517 44.4965Z" fill="#222222"/>
<path d="M241.902 43.1853C241.865 43.1853 241.827 43.1853 241.79 43.1853C241.565 43.1105 241.415 42.8861 241.49 42.6616C241.565 42.3624 243.55 35.4053 250.254 33.4603C254.448 32.2259 258.081 33.6847 259.467 34.3579C259.691 34.4702 259.766 34.732 259.654 34.9564C259.541 35.1808 259.279 35.2556 259.055 35.1434C257.781 34.5076 254.373 33.161 250.478 34.2831C244.224 36.1159 242.389 42.5868 242.314 42.8861C242.277 43.0731 242.089 43.1853 241.902 43.1853Z" fill="#222222"/>
<path d="M239.125 41.9455C239.05 41.9455 238.975 41.9455 238.938 41.9081C238.713 41.7959 238.638 41.5341 238.751 41.3097C243.17 32.5571 242.346 22.7573 236.878 18.007C235.38 16.6979 232.684 15.1269 228.377 14.8651C228.152 14.8651 227.965 14.6406 227.965 14.4162C227.965 14.1544 228.19 13.9674 228.414 14.0048C232.946 14.2666 235.83 15.9498 237.44 17.3337C243.32 22.4207 244.181 32.4075 239.537 41.6837C239.462 41.8333 239.312 41.9455 239.125 41.9455Z" fill="#222222"/>
<path d="M71.2885 62.0196C70.4272 62.0196 69.6033 61.87 68.7419 61.5708C65.9333 60.4861 64.6225 57.7182 64.2106 56.5961C64.1357 56.3342 64.2481 56.0724 64.4727 55.9976C64.7349 55.9228 64.997 56.035 65.0719 56.2594C65.4464 57.2693 66.6074 59.738 69.079 60.6731C71.5506 61.6082 74.4342 60.6731 76.0445 59.4014C79.1902 56.9327 79.0779 52.332 78.9281 47.4695C78.7783 42.2703 78.6285 36.8842 82.5232 33.63C84.6578 31.8346 87.1669 31.5354 87.2793 31.5354C87.3542 31.5354 89.339 31.2736 91.6234 31.9843C95.4057 33.1812 99.4128 37.9315 102.034 44.4024C102.147 44.6642 102.034 44.926 101.772 45.0382C101.51 45.1505 101.248 45.0382 101.135 44.7764C98.6638 38.6422 94.8065 34.0041 91.3238 32.9194C89.2266 32.2835 87.3916 32.5079 87.3916 32.5079C87.3542 32.5079 85.0323 32.8071 83.1224 34.4155C79.6022 37.3704 79.752 42.5322 79.8643 47.5069C80.0141 52.4068 80.1639 57.4938 76.6063 60.2243C75.2955 61.1968 73.3107 62.0196 71.2885 62.0196Z" fill="#222222"/>
<path d="M70.954 60.1184C70.2425 60.1184 69.4935 59.9688 68.8194 59.6322C67.2091 58.7719 66.535 57.0139 66.3103 56.004C66.2354 55.7421 66.3852 55.4803 66.6473 55.4429C66.9095 55.3681 67.1716 55.5177 67.2091 55.7796C67.4338 56.6024 67.9581 58.0986 69.2688 58.7719C70.8791 59.5948 73.1635 58.9589 74.5117 57.949C76.9833 56.0414 76.6462 52.114 76.2343 47.5507C75.7849 42.6134 75.2606 37.0402 78.5562 33.0005C80.5035 30.6441 83.05 29.522 83.1624 29.4846C85.7464 28.5495 88.218 28.325 90.5773 28.8861C96.6066 30.2326 101.363 36.4791 102.374 44.3713C102.411 44.6332 102.224 44.8576 101.962 44.895C101.7 44.9324 101.475 44.7454 101.438 44.4836C100.464 36.9654 96.0449 31.0929 90.3901 29.8212C88.218 29.3349 85.8962 29.522 83.4994 30.3823C83.4994 30.3823 81.0652 31.4296 79.3051 33.6364C76.2718 37.3768 76.7586 42.7256 77.1705 47.4759C77.5825 52.114 77.9944 56.4902 75.1108 58.6971C74.1746 59.4077 72.6018 60.1184 70.954 60.1184Z" fill="#222222"/>
<path d="M71.4741 64.1237C70.8 64.1237 70.0885 64.0489 69.4144 63.8619C66.6057 63.1512 64.7707 61.0566 63.7596 59.4482C63.6098 59.2238 63.6847 58.9245 63.9094 58.7749C64.1341 58.6253 64.4337 58.7001 64.5835 58.9245C65.5197 60.3833 67.1674 62.2535 69.6765 62.9268C73.2342 63.8245 77.0166 61.8795 79.0014 59.6726C81.9224 56.4559 81.8475 51.9674 81.7726 47.6285C81.6977 43.0653 81.6228 38.7638 84.9558 36.1455C85.3677 35.8463 86.4163 35.0234 87.9892 34.6868C94.7674 33.3776 101.134 43.5141 101.845 44.6736C101.995 44.898 101.92 45.1973 101.696 45.3095C101.471 45.4591 101.171 45.3843 101.059 45.1599C100.797 44.711 94.4678 34.3875 88.2138 35.6219C86.8657 35.8837 85.9669 36.5944 85.5924 36.8936C82.6339 39.2127 82.7088 43.2897 82.7837 47.5911C82.8586 52.117 82.971 56.7925 79.7878 60.2711C77.8404 62.3283 74.6947 64.1237 71.4741 64.1237Z" fill="#222222"/>
<path d="M88.1382 58.923C86.8649 58.923 85.5542 58.2872 84.2061 57.0528C84.0188 56.8658 84.0188 56.5666 84.1686 56.3796C84.3558 56.1925 84.6554 56.1925 84.8427 56.3422C86.116 57.5017 87.2769 58.0627 88.3629 57.9505C89.9358 57.8009 90.9094 56.3422 92.3325 54.0979C93.3436 52.527 94.6169 50.5445 96.5268 48.4873C99.0359 45.7568 101.433 44.1485 102.856 43.2134C107.125 40.3707 112.218 38.3883 117.573 37.4158C119.595 37.0417 121.543 36.8173 123.228 36.6303C126.711 36.2188 129.445 35.9196 130.156 34.6105C130.531 33.9372 130.493 33.2639 130.493 33.2639C130.418 31.9922 129.182 31.0945 128.658 30.7578C128.433 30.6082 128.359 30.3464 128.508 30.122C128.658 29.8976 128.958 29.8228 129.145 29.9724C129.782 30.3838 131.317 31.4685 131.429 33.2265C131.429 33.2639 131.467 34.199 130.98 35.0967C130.044 36.8173 127.235 37.1539 123.34 37.6028C121.655 37.7898 119.745 38.0142 117.76 38.3883C112.555 39.3234 107.574 41.3058 103.417 44.0363C102.032 44.9714 99.71 46.5049 97.2383 49.1606C95.4033 51.1804 94.1301 53.088 93.1564 54.659C91.621 57.0154 90.4975 58.736 88.4753 58.923C88.3629 58.923 88.2506 58.923 88.1382 58.923Z" fill="#222222"/>
<path d="M101.732 45.159C101.582 45.159 101.432 45.0842 101.32 44.9346C101.17 44.7101 101.245 44.4109 101.47 44.2987C103.567 42.9896 105.814 41.9422 108.136 41.1942C113.566 39.4362 118.509 39.4736 122.479 39.511C127.085 39.5484 130.418 39.5858 132.403 37.1171C132.89 36.5187 133.676 35.3217 133.676 33.7508C133.714 30.7211 130.755 28.5516 129.856 27.9906C129.632 27.8409 129.557 27.5417 129.707 27.3173C129.856 27.0929 130.156 27.0181 130.381 27.1677C131.392 27.8036 134.65 30.2348 134.612 33.7508C134.612 35.621 133.676 37.0423 133.152 37.7156C130.905 40.5583 127.197 40.5209 122.479 40.4835C118.584 40.4461 113.716 40.4087 108.435 42.0919C106.189 42.8025 104.016 43.8124 101.957 45.0842C101.919 45.1216 101.807 45.159 101.732 45.159Z" fill="#222222"/>
<path d="M88.0291 62.2052C87.0553 62.2052 86.3438 62.0182 86.3063 61.9808C85.3326 61.7563 84.3589 61.3075 83.4975 60.6342C83.2728 60.4846 83.2354 60.1854 83.4226 59.961C83.5724 59.7365 83.872 59.6991 84.0967 59.8862C84.8458 60.4472 85.6697 60.8587 86.5685 61.0457C86.6059 61.0457 88.441 61.5693 90.1263 60.8213C92.3734 59.8114 93.2722 57.8289 94.5081 55.061C95.5567 52.6672 96.8675 49.7123 99.489 46.6078C100.163 45.7849 100.912 44.9994 101.661 44.2887C101.848 44.1017 102.148 44.1017 102.335 44.2887C102.523 44.4757 102.523 44.7749 102.335 44.962C101.586 45.6726 100.912 46.4207 100.238 47.2062C97.6914 50.2359 96.4555 53.0038 95.4069 55.4351C94.1335 58.3152 93.1224 60.5594 90.5383 61.6815C89.6395 62.093 88.7406 62.2052 88.0291 62.2052Z" fill="#222222"/>
<path d="M101.958 45.1216C101.771 45.1216 101.584 45.0094 101.509 44.8223C101.434 44.5605 101.547 44.2987 101.809 44.2239C103.906 43.4758 106.078 42.9148 108.25 42.5033C114.691 41.3438 121.058 41.7178 123.791 41.9048C124.653 41.9422 125.477 42.0171 126.188 42.0919C129.559 42.3537 131.581 42.5407 133.903 41.3064C135.812 40.2965 136.711 39.0247 137.086 38.3515C137.985 36.6683 138.097 34.6859 137.423 32.5539C136.561 29.8982 134.539 28.4394 133.715 27.9532C133.491 27.8035 133.416 27.5417 133.566 27.3173C133.715 27.0929 133.977 27.0181 134.202 27.1677C135.138 27.7287 137.348 29.2997 138.322 32.292C139.071 34.6859 138.958 36.9301 137.91 38.8377C137.498 39.6232 136.487 41.082 134.315 42.2041C131.768 43.5506 129.633 43.3636 126.076 43.1018C125.364 43.027 124.54 42.9896 123.679 42.9147C120.983 42.7277 114.691 42.3537 108.362 43.5132C106.228 43.8872 104.093 44.4483 102.071 45.1964C102.071 45.1216 102.033 45.1216 101.958 45.1216Z" fill="#222222"/>
<path d="M242.121 122.068C244.031 122.068 244.031 119.113 242.121 119.113C240.249 119.113 240.249 122.068 242.121 122.068Z" fill="white"/>
<path d="M312.036 145.107C325.542 145.107 336.491 134.172 336.491 120.683C336.491 107.193 325.542 96.2578 312.036 96.2578C298.531 96.2578 287.582 107.193 287.582 120.683C287.582 134.172 298.531 145.107 312.036 145.107Z" fill="url(#paint3_linear)"/>
<path d="M311.251 121.429C312.562 120.719 314.397 119.896 316.719 119.372C318.404 118.998 319.902 118.923 321.101 118.923C322.711 115.37 322.861 112.49 322.786 110.881C322.674 108.263 321.962 107.291 321.475 106.804C320.539 105.832 319.341 105.607 318.891 105.495C316.494 105.046 314.622 106.43 314.322 106.655C312.487 108.039 312.038 110.059 311.513 112.752C311.101 114.697 310.727 117.689 311.251 121.429Z" fill="#EFEFEF"/>
<path d="M295.036 114.917C294.811 112.561 295.298 110.766 295.672 109.793C295.972 108.97 297.582 104.594 301.215 103.846C301.814 103.734 302.938 103.472 303.911 104.07C306.346 105.492 305.559 110.466 305.409 111.439C305.072 113.683 304.211 115.329 303.687 116.301C302.675 118.209 301.477 119.593 300.578 120.491C299.867 119.294 298.743 117.723 296.983 116.301C296.346 115.703 295.635 115.254 295.036 114.917Z" fill="#EFEFEF"/>
<path d="M330.725 147.502C330.725 147.577 330.949 148.512 330.425 149.372C329.901 150.27 328.777 150.794 327.579 150.681C327.766 151.355 327.654 151.691 327.504 151.878C326.905 152.776 324.62 152.626 323.459 151.467C322.148 150.195 322.336 147.764 323.459 146.38C325.332 144.098 329.414 145.258 330.313 146.567C330.612 147.016 330.725 147.502 330.725 147.502Z" fill="#EFEFEF"/>
<path d="M300.668 112.038C301.071 110.649 300.689 109.318 299.815 109.065C298.941 108.812 297.905 109.733 297.503 111.122C297.1 112.511 297.482 113.842 298.356 114.095C299.23 114.347 300.265 113.427 300.668 112.038Z" fill="#222222"/>
<path d="M303.723 116.3C303.686 116.3 303.648 116.3 303.611 116.263C303.499 116.188 303.499 116.076 303.536 116.001C304.66 114.168 305.259 112.186 305.371 110.203C305.446 108.67 305.596 105.49 303.723 104.368C302.637 103.732 301.364 104.069 300.877 104.181C298.742 104.705 297.619 106.5 296.907 107.548C295.222 110.166 294.997 112.971 295.147 114.879C295.147 114.991 295.072 115.066 294.96 115.103C294.847 115.103 294.773 115.028 294.735 114.916C294.623 112.971 294.81 110.054 296.57 107.361C297.282 106.238 298.48 104.406 300.765 103.845C301.289 103.695 302.712 103.358 303.911 104.069C306.008 105.303 305.821 108.67 305.746 110.278C305.633 112.373 304.997 114.355 303.873 116.263C303.873 116.263 303.798 116.3 303.723 116.3Z" fill="#222222"/>
<path d="M301.031 121.57C300.956 121.57 300.881 121.533 300.844 121.458C299.833 119.513 298.485 117.83 296.837 116.483C295.975 115.773 295.039 115.174 294.028 114.688C293.916 114.651 293.878 114.538 293.953 114.426C293.99 114.314 294.14 114.277 294.215 114.351C295.264 114.875 296.238 115.474 297.099 116.222C298.822 117.606 300.207 119.326 301.218 121.309C301.256 121.421 301.218 121.533 301.144 121.57C301.106 121.57 301.069 121.57 301.031 121.57Z" fill="#222222"/>
<path d="M306.195 109.836C305.745 109.836 305.371 109.462 305.408 109.013C305.483 106.844 304.809 105.049 303.648 104.45C302.937 104.039 301.888 104.039 300.802 104.413C298.854 105.086 297.169 106.732 296.195 109.013C296.008 109.425 295.559 109.612 295.147 109.425C294.735 109.238 294.548 108.789 294.735 108.378C295.896 105.722 297.918 103.739 300.315 102.917C301.813 102.393 303.311 102.468 304.435 103.066C306.12 104.001 307.094 106.283 307.019 109.088C306.981 109.5 306.644 109.836 306.195 109.836Z" fill="#222222"/>
<path d="M297.88 120.16C297.805 120.16 297.768 120.123 297.73 120.085C297.168 119.225 296.457 118.477 295.67 117.841C295.184 117.467 294.622 117.13 294.06 116.869C293.948 116.831 293.91 116.719 293.948 116.607C293.985 116.494 294.097 116.457 294.21 116.494C294.809 116.756 295.371 117.093 295.895 117.504C296.756 118.14 297.468 118.926 298.067 119.823C298.142 119.898 298.105 120.048 297.992 120.085C297.955 120.16 297.917 120.16 297.88 120.16Z" fill="#222222"/>
<path d="M310.956 121.807C310.881 121.807 310.844 121.769 310.807 121.732C310.732 121.657 310.769 121.508 310.881 121.47C312.866 120.236 315.038 119.413 317.323 119.002C318.896 118.74 320.469 118.665 322.042 118.815C322.154 118.815 322.229 118.927 322.229 119.039C322.229 119.151 322.117 119.226 322.004 119.226C320.469 119.076 318.896 119.114 317.36 119.376C315.113 119.75 313.016 120.573 311.069 121.769C311.031 121.769 310.994 121.807 310.956 121.807Z" fill="#222222"/>
<path d="M315.182 121.878C315.107 121.878 315.033 121.841 314.995 121.766C314.958 121.654 314.958 121.542 315.07 121.504C316.006 120.943 317.017 120.569 318.066 120.382C318.703 120.27 319.377 120.195 320.051 120.232C320.163 120.232 320.238 120.345 320.238 120.419C320.238 120.532 320.163 120.606 320.051 120.606C319.414 120.569 318.778 120.644 318.178 120.756C317.167 120.943 316.231 121.317 315.332 121.841C315.22 121.878 315.182 121.878 315.182 121.878Z" fill="#222222"/>
<path d="M300.804 112.565C300.954 112.041 300.729 111.629 300.691 111.555C300.13 111.704 299.568 111.854 298.969 112.041C299.381 112.49 299.755 112.901 300.167 113.35C300.242 113.275 300.654 113.051 300.804 112.565Z" fill="#EFEFEF"/>
<path d="M315.57 113.955C315.961 112.605 315.602 111.316 314.768 111.074C313.933 110.833 312.94 111.731 312.548 113.08C312.157 114.43 312.516 115.719 313.351 115.96C314.185 116.202 315.179 115.304 315.57 113.955Z" fill="#222222"/>
<path d="M315.706 114.437C315.855 113.951 315.631 113.54 315.593 113.465C315.031 113.614 314.507 113.764 313.945 113.914C314.32 114.325 314.694 114.774 315.106 115.185C315.181 115.148 315.556 114.924 315.706 114.437Z" fill="#EFEFEF"/>
<path d="M308.145 133.394C306.609 133.394 305.074 133.17 303.576 132.684C295.824 130.252 293.053 122.36 292.753 121.462C292.603 121.051 292.828 120.602 293.278 120.452C293.689 120.303 294.139 120.527 294.289 120.976C294.551 121.799 297.097 128.981 304.063 131.15C310.691 133.245 318.443 129.953 322.413 123.295C322.638 122.921 323.124 122.809 323.499 123.033C323.873 123.258 323.986 123.744 323.761 124.118C320.278 129.953 314.174 133.394 308.145 133.394Z" fill="#222222"/>
<path d="M324.735 124.009C324.698 124.009 324.66 124.009 324.623 123.971C324.173 123.672 323.649 123.485 323.125 123.373C322.451 123.223 321.702 123.223 321.027 123.373C320.915 123.41 320.803 123.336 320.803 123.223C320.765 123.111 320.84 122.999 320.953 122.999C321.702 122.849 322.488 122.849 323.237 122.999C323.799 123.111 324.361 123.336 324.847 123.672C324.922 123.747 324.96 123.859 324.922 123.934C324.885 123.971 324.81 124.009 324.735 124.009Z" fill="#222222"/>
<path d="M291.925 121.464C291.85 121.464 291.813 121.427 291.775 121.389C291.7 121.314 291.738 121.165 291.813 121.127C292.3 120.791 292.861 120.566 293.46 120.529C293.91 120.491 294.359 120.566 294.846 120.753C294.959 120.791 294.996 120.903 294.959 121.015C294.921 121.127 294.809 121.165 294.696 121.127C294.284 120.978 293.872 120.903 293.46 120.94C292.936 120.978 292.449 121.127 292.037 121.464C292 121.427 291.962 121.464 291.925 121.464Z" fill="#222222"/>
<path d="M311.247 121.613C311.134 121.613 311.059 121.538 311.059 121.426C310.797 119.256 310.16 111.888 313.344 107.586C314.018 106.689 315.254 105.005 317.388 104.631C318.4 104.444 319.561 104.594 320.347 104.968C322.819 106.202 323.68 110.653 322.444 115.553C322.407 115.665 322.295 115.74 322.22 115.703C322.107 115.665 322.032 115.553 322.07 115.478C323.268 110.766 322.482 106.502 320.197 105.342C319.448 104.968 318.4 104.856 317.463 105.005C315.516 105.379 314.355 106.913 313.681 107.811C310.572 111.962 311.209 119.219 311.471 121.351C311.434 121.5 311.359 121.613 311.247 121.613Z" fill="#222222"/>
<path d="M323.274 111.479C322.862 111.479 322.525 111.142 322.488 110.731C322.338 108.561 321.215 106.729 319.604 106.018C318.556 105.569 317.245 105.644 315.972 106.168C314.399 106.841 313.125 108.225 312.451 109.945C312.301 110.357 311.852 110.581 311.44 110.394C311.028 110.245 310.803 109.796 310.991 109.384C311.777 107.252 313.387 105.569 315.335 104.709C316.983 103.998 318.743 103.961 320.203 104.559C322.376 105.457 323.874 107.851 324.061 110.619C324.098 111.068 323.761 111.442 323.312 111.442C323.312 111.479 323.312 111.479 323.274 111.479Z" fill="#222222"/>
<path d="M297.994 99.1714C297.845 99.1714 297.695 99.134 297.583 99.0592C297.208 98.8348 297.096 98.3485 297.32 97.9745C299.23 94.9822 302.002 93.3364 304.399 93.8227C305.035 93.9349 305.672 94.2341 306.271 94.6456C306.608 94.9074 306.721 95.3936 306.458 95.7677C306.196 96.1043 305.709 96.2165 305.335 95.9547C304.96 95.6555 304.548 95.4684 304.099 95.3936C302.339 95.057 300.204 96.4035 298.669 98.8348C298.519 99.0218 298.257 99.1714 297.994 99.1714Z" fill="#222222"/>
<path d="M321.065 101.64C320.766 101.64 320.504 101.49 320.354 101.228C318.781 98.3107 316.346 96.5527 314.099 96.7024C313.5 96.7398 312.901 96.9268 312.302 97.226C311.927 97.4504 311.44 97.3008 311.216 96.8894C310.991 96.5153 311.141 96.0291 311.553 95.8047C312.339 95.3932 313.163 95.1314 313.987 95.094C316.908 94.907 319.867 96.9268 321.739 100.443C321.964 100.817 321.814 101.303 321.402 101.527C321.29 101.602 321.178 101.64 321.065 101.64Z" fill="#222222"/>
<path d="M322.15 172.367H327.656C328.817 172.367 329.753 173.302 329.753 174.462C329.753 175.621 328.817 176.556 327.656 176.556H321.476C320.315 176.556 319.379 175.621 319.379 174.462C319.379 173.938 319.566 173.489 319.903 173.115" fill="#222222"/>
<path d="M308.288 172.377C309.412 172.415 310.273 173.35 310.273 174.434C310.273 175.594 309.337 176.529 308.176 176.529H299.75C298.589 176.529 297.652 175.594 297.652 174.434C297.652 173.275 298.589 172.34 299.75 172.34H305.892" fill="#222222"/>
<path d="M326.039 152.841C325.177 152.841 324.279 152.542 323.605 152.018C322.144 150.896 322.181 148.951 322.219 148.577C322.294 147.717 322.556 147.006 323.005 146.407C323.679 145.585 324.766 145.061 326.114 144.911C327.649 144.762 329.222 145.136 330.158 145.921C330.271 146.033 330.308 146.22 330.196 146.333C330.084 146.445 329.896 146.482 329.784 146.37C328.923 145.659 327.537 145.323 326.151 145.472C324.953 145.585 324.017 146.033 323.455 146.744C323.08 147.23 322.856 147.829 322.781 148.577C322.743 148.914 322.706 150.559 323.942 151.494C324.653 152.018 325.664 152.28 326.488 152.13C326.825 152.055 327.087 151.943 327.2 151.756C327.35 151.532 327.312 151.195 327.162 150.746C327.125 150.672 327.125 150.559 327.2 150.485C327.237 150.41 327.35 150.372 327.425 150.335C329.035 150.223 330.308 149.475 330.57 148.465C330.608 148.315 330.758 148.203 330.945 148.24C331.095 148.278 331.207 148.465 331.17 148.614C330.833 149.774 329.559 150.672 327.836 150.859C327.986 151.457 327.874 151.831 327.724 152.055C327.499 152.392 327.125 152.617 326.601 152.729C326.413 152.841 326.226 152.841 326.039 152.841Z" fill="#222222"/>
<path d="M326.38 152.85C326.342 152.85 326.267 152.85 326.23 152.813C325.93 152.626 325.518 152.289 325.293 151.766C324.918 150.905 325.218 149.858 326.005 149.072C326.118 148.96 326.305 148.96 326.417 149.072C326.53 149.185 326.53 149.372 326.417 149.484C325.818 150.082 325.593 150.868 325.855 151.504C326.005 151.878 326.305 152.14 326.53 152.252C326.68 152.327 326.717 152.514 326.642 152.663C326.567 152.813 326.455 152.85 326.38 152.85Z" fill="#222222"/>
<path d="M324.433 152.472C324.321 152.472 324.246 152.434 324.171 152.322C323.947 151.948 323.61 151.163 323.684 150.19C323.834 148.769 324.883 147.946 325.183 147.721C325.332 147.609 325.52 147.647 325.594 147.796C325.707 147.946 325.669 148.133 325.52 148.208C325.257 148.395 324.396 149.068 324.284 150.265C324.209 151.088 324.508 151.724 324.696 152.023C324.771 152.173 324.733 152.36 324.583 152.434C324.508 152.472 324.471 152.472 324.433 152.472Z" fill="#222222"/>
<path d="M322.71 150.481H322.672C322.523 150.444 322.41 150.294 322.41 150.145C322.523 149.434 322.747 148.798 323.122 148.162C323.459 147.564 323.908 147.04 324.47 146.591C324.582 146.479 324.77 146.516 324.882 146.629C324.994 146.741 324.957 146.928 324.844 147.04C324.358 147.451 323.946 147.9 323.646 148.461C323.346 149.022 323.122 149.584 323.009 150.219C322.972 150.406 322.86 150.481 322.71 150.481Z" fill="#222222"/>
<path d="M287.922 160.474C287.585 160.474 287.248 160.249 287.135 159.875C287.023 159.464 287.285 159.015 287.697 158.903C288.633 158.641 289.495 158.304 290.281 157.856C296.049 154.601 297.172 146.859 297.36 144.577C297.397 144.128 297.771 143.829 298.221 143.866C298.67 143.904 298.97 144.278 298.932 144.727C298.633 147.906 297.322 155.723 291.03 159.239C290.094 159.763 289.12 160.175 288.072 160.436C288.034 160.474 287.997 160.474 287.922 160.474Z" fill="#222222"/>
<path d="M307.246 174.088C306.834 174.088 306.497 173.751 306.46 173.34L305.186 152.955C305.149 152.506 305.486 152.132 305.935 152.132C306.385 152.094 306.759 152.431 306.759 152.88L308.033 173.265C308.07 173.714 307.733 174.088 307.284 174.088C307.284 174.088 307.284 174.088 307.246 174.088Z" fill="#222222"/>
<path d="M321.175 173.906C320.838 173.906 320.501 173.682 320.426 173.345L311.962 144.283C311.85 143.871 312.075 143.422 312.487 143.31C312.899 143.198 313.348 143.422 313.46 143.834L321.924 172.897C322.037 173.308 321.812 173.757 321.4 173.869C321.325 173.906 321.25 173.906 321.175 173.906Z" fill="#222222"/>
<path d="M330.5 148.25C330.051 148.25 329.714 147.913 329.714 147.465C329.714 147.016 330.051 146.679 330.5 146.679C334.058 146.642 339.863 145.819 340.35 143.724C340.387 143.537 340.425 143.201 340.2 142.602C338.627 138.562 331.624 136.58 329.489 136.056C329.077 135.944 328.815 135.533 328.89 135.084C329.002 134.672 329.414 134.411 329.863 134.485C332.822 135.196 339.9 137.365 341.698 141.966C341.997 142.752 342.072 143.388 341.923 144.023C340.986 147.913 332.26 148.213 330.5 148.25C330.538 148.25 330.538 148.25 330.5 148.25Z" fill="#222222"/>
<path d="M289.051 151.051H282.385V169.229H289.051V151.051Z" fill="#48C7FF"/>
<path d="M289.088 169.416H282.422C282.309 169.416 282.234 169.341 282.234 169.229V151.05C282.234 150.938 282.309 150.863 282.422 150.863H289.088C289.2 150.863 289.275 150.938 289.275 151.05V169.229C289.275 169.341 289.163 169.416 289.088 169.416ZM282.609 169.042H288.901V151.237H282.609V169.042Z" fill="#222222"/>
<path d="M282.383 151.063C283.132 150.053 284.143 149.08 284.892 148.07C285.454 148.07 286.016 148.07 286.577 148.07C287.476 149.08 288.15 150.053 289.087 151.063C287.851 151.063 286.577 151.063 285.341 151.063C284.368 151.063 283.394 151.063 282.383 151.063Z" fill="#EFEFEF"/>
<path d="M289.085 151.244H282.419C282.344 151.244 282.269 151.206 282.232 151.131C282.194 151.057 282.194 150.982 282.269 150.907C282.644 150.421 283.093 149.897 283.542 149.411C283.954 148.925 284.404 148.401 284.778 147.915C284.816 147.877 284.891 147.84 284.928 147.84H286.613C286.651 147.84 286.726 147.877 286.763 147.915C287.213 148.401 287.625 148.925 288.037 149.411C288.411 149.897 288.823 150.421 289.272 150.907C289.31 150.982 289.347 151.057 289.31 151.131C289.235 151.206 289.16 151.244 289.085 151.244ZM282.793 150.832H288.598C288.261 150.421 287.924 150.047 287.625 149.635C287.25 149.186 286.876 148.7 286.426 148.214H284.928C284.554 148.7 284.142 149.186 283.73 149.635C283.468 150.047 283.13 150.458 282.793 150.832Z" fill="#222222"/>
<path d="M286.987 145.598H284.516V148.066H286.987V145.598Z" fill="#48C7FF"/>
<path d="M286.95 148.257H284.478C284.366 148.257 284.291 148.182 284.291 148.07V145.601C284.291 145.489 284.366 145.414 284.478 145.414H286.95C287.062 145.414 287.137 145.489 287.137 145.601V148.07C287.175 148.182 287.062 148.257 286.95 148.257ZM284.703 147.845H286.763V145.788H284.703V147.845Z" fill="#222222"/>
<path d="M322.22 99.5042C322.07 99.5042 321.958 99.392 321.92 99.2424C321.808 98.1203 321.396 92.36 325.029 88.9189C325.665 88.3204 326.976 87.0487 329.073 86.6746C329.785 86.5624 331.995 86.151 333.905 87.6097C335.627 88.9189 335.964 90.8265 336.039 91.5745C336.039 91.7242 335.927 91.8738 335.777 91.9112C335.627 91.9112 335.477 91.799 335.44 91.6494C335.403 91.1257 335.103 89.2929 333.53 88.096C331.807 86.7868 329.822 87.1609 329.186 87.2731C327.313 87.6097 326.115 88.7318 325.478 89.3303C322.033 92.5845 322.407 98.0828 322.557 99.1676C322.557 99.3172 322.445 99.4668 322.22 99.5042C322.257 99.4668 322.257 99.5042 322.22 99.5042Z" fill="#222222"/>
<path d="M325.626 101.675C325.476 101.675 325.364 101.563 325.326 101.413C324.315 95.5411 325.588 90.5289 328.435 89.2198C330.045 88.4717 331.318 88.6961 332.067 88.9954C333.715 89.6312 334.876 91.4266 335.101 93.6709C335.101 93.8205 334.989 93.9701 334.839 94.0075C334.689 94.0075 334.539 93.8953 334.502 93.7457C334.314 91.7259 333.303 90.1549 331.843 89.5938C331.169 89.332 330.082 89.1824 328.659 89.8183C326.038 91.0152 324.914 95.7655 325.888 101.376C325.925 101.526 325.813 101.675 325.663 101.713C325.626 101.675 325.626 101.675 325.626 101.675Z" fill="#222222"/>
<path d="M330.077 104.742C329.964 104.742 329.815 104.667 329.777 104.517C329.065 102.273 327.979 98.0462 328.391 94.7173C328.654 92.473 329.515 91.6875 329.964 91.3883C330.226 91.2387 330.751 91.0143 331.425 91.0891C332.885 91.2761 333.56 92.8471 333.634 93.0341C333.709 93.1837 333.635 93.3707 333.485 93.4081C333.335 93.4829 333.148 93.4081 333.11 93.2585C333.073 93.1837 332.548 91.8372 331.387 91.6875C330.863 91.6127 330.451 91.8372 330.301 91.912C330.002 92.099 329.253 92.7349 328.991 94.7921C328.616 98.0088 329.702 102.161 330.376 104.33C330.414 104.48 330.339 104.667 330.189 104.704C330.152 104.742 330.114 104.742 330.077 104.742Z" fill="#222222"/>
<path d="M281.406 153.446C283.166 153.372 285.713 157.411 284.29 159.655C283.541 160.852 281.593 161.675 280.283 160.927C278.859 160.142 278.934 158.01 278.934 157.561C279.047 155.691 280.17 153.484 281.406 153.446Z" fill="#EFEFEF"/>
<path d="M281.405 161.408C280.693 161.408 280.019 161.221 279.532 160.81C278.409 159.875 278.446 157.93 278.858 156.471C279.27 154.975 280.169 153.366 281.293 153.179C282.416 152.992 283.465 154.227 283.989 155.012C284.888 156.321 285.637 158.865 284.064 160.398C283.39 161.034 282.379 161.408 281.405 161.408ZM281.555 153.74C281.517 153.74 281.48 153.74 281.405 153.74C280.693 153.852 279.832 155.087 279.42 156.583C278.971 158.229 279.158 159.687 279.907 160.323C280.806 161.109 282.678 160.884 283.652 159.949C284.963 158.64 284.251 156.396 283.502 155.311C282.828 154.301 282.116 153.74 281.555 153.74Z" fill="#222222"/>
<path d="M284.442 157.404H284.404C283.58 157.254 282.756 156.993 282.007 156.619C281.146 156.17 280.397 155.609 279.723 154.898C279.611 154.786 279.611 154.599 279.723 154.487C279.835 154.374 280.023 154.374 280.135 154.487C280.734 155.122 281.446 155.683 282.27 156.057C282.981 156.394 283.73 156.656 284.479 156.768C284.629 156.806 284.741 156.955 284.741 157.105C284.704 157.292 284.554 157.404 284.442 157.404Z" fill="#222222"/>
<path d="M284.173 159.138C283.386 159.138 282.6 159.025 281.851 158.764C280.765 158.39 279.791 157.791 278.967 156.968C278.855 156.856 278.855 156.669 278.967 156.557C279.079 156.445 279.267 156.445 279.379 156.557C280.128 157.305 281.027 157.866 282.001 158.203C282.824 158.464 283.648 158.577 284.51 158.539C284.697 158.539 284.809 158.651 284.809 158.838C284.809 158.988 284.697 159.138 284.51 159.138C284.435 159.138 284.323 159.138 284.173 159.138Z" fill="#222222"/>
<path d="M283.689 160.625C283.651 160.625 283.651 160.625 283.689 160.625C282.79 160.588 281.928 160.438 281.067 160.176C280.281 159.952 279.494 159.615 278.783 159.167C278.633 159.092 278.595 158.905 278.67 158.755C278.745 158.605 278.932 158.568 279.082 158.643C279.756 159.054 280.468 159.354 281.217 159.578C282.003 159.802 282.827 159.952 283.651 159.989C283.801 159.989 283.951 160.139 283.951 160.289C283.951 160.513 283.838 160.625 283.689 160.625Z" fill="#222222"/>
<defs>
<linearGradient id="paint0_linear" x1="42.8335" y1="57.8663" x2="21.9323" y2="90.7129" gradientUnits="userSpaceOnUse">
<stop stop-color="#FF9800"/>
<stop offset="1" stop-color="#F77800"/>
</linearGradient>
<linearGradient id="paint1_linear" x1="189.534" y1="73.8231" x2="261.955" y2="73.8231" gradientUnits="userSpaceOnUse">
<stop stop-color="#FF9800"/>
<stop offset="1" stop-color="#F77800"/>
</linearGradient>
<linearGradient id="paint2_linear" x1="86.7133" y1="73.7808" x2="159.138" y2="73.7808" gradientUnits="userSpaceOnUse">
<stop stop-color="#FF9800"/>
<stop offset="1" stop-color="#F77800"/>
</linearGradient>
<linearGradient id="paint3_linear" x1="287.602" y1="120.701" x2="336.48" y2="120.701" gradientUnits="userSpaceOnUse">
<stop stop-color="#FF9800"/>
<stop offset="1" stop-color="#F77800"/>
</linearGradient>
</defs>
</svg>
