<svg width="32" height="32" viewBox="0 0 32 32" fill="none" xmlns="http://www.w3.org/2000/svg">
<path fill-rule="evenodd" clip-rule="evenodd" d="M21.3333 5.33333C21.3333 2.38781 18.9479 0 16 0V0C13.0521 0 10.6667 2.38781 10.6667 5.33333C10.6667 8.27885 13.0521 10.6667 16 10.6667C18.9479 10.6667 21.3333 8.27885 21.3333 5.33333ZM5.33333 21.3333C8.28125 21.3333 10.6667 18.9455 10.6667 16C10.6667 13.0545 8.28125 10.6667 5.33333 10.6667C2.38541 10.6667 0 13.0545 0 16H0C0 18.9455 2.38541 21.3333 5.33333 21.3333ZM26.6667 21.3333C29.6145 21.3333 32 18.9455 32 16C32 13.0545 29.6145 10.6667 26.6667 10.6667C23.7188 10.6667 21.3333 13.0545 21.3333 16C21.3333 18.9455 23.7188 21.3333 26.6667 21.3333ZM16 21.3333C18.9479 21.3333 21.3333 23.7212 21.3333 26.6667C21.3333 29.6121 18.9479 32 16 32C13.0521 32 10.6667 29.6121 10.6667 26.6667C10.6667 23.7212 13.0521 21.3333 16 21.3333Z" fill="#FF9800"/>
</svg>
