<svg width="272" height="64" viewBox="0 0 272 64" fill="none" xmlns="http://www.w3.org/2000/svg">
<path fill-rule="evenodd" clip-rule="evenodd" d="M42.6028 10.6667C42.6028 4.77563 37.839 0 31.9521 0V0C26.0651 0 21.3014 4.77563 21.3014 10.6667C21.3014 16.5577 26.0651 21.3333 31.9521 21.3333C37.839 21.3333 42.6028 16.5577 42.6028 10.6667ZM10.6507 42.6667C16.5377 42.6667 21.3014 37.8909 21.3014 32C21.3014 26.109 16.5377 21.3333 10.6507 21.3333C4.76368 21.3333 0 26.109 0 32H0C0 37.8909 4.76368 42.6667 10.6507 42.6667ZM53.2535 42.6667C59.1404 42.6667 63.9041 37.8909 63.9041 32C63.9041 26.109 59.1404 21.3333 53.2535 21.3333C47.3666 21.3333 42.6028 26.109 42.6028 32C42.6028 37.8909 47.3666 42.6667 53.2535 42.6667ZM31.9521 42.6667C37.839 42.6667 42.6028 47.4424 42.6028 53.3333C42.6028 59.2243 37.839 64 31.9521 64C26.0651 64 21.3014 59.2243 21.3014 53.3333C21.3014 47.4424 26.0651 42.6667 31.9521 42.6667Z" fill="white"/>
<path d="M100.158 45.7598C96.2389 45.7598 93.1857 44.75 90.9988 42.7304C88.8403 40.7109 87.69 37.8949 87.548 34.2824C87.5196 33.4575 87.5054 32.1349 87.5054 30.3144C87.5054 28.494 87.5196 27.1713 87.548 26.3464C87.6616 22.8193 88.8261 20.0602 91.0414 18.0691C93.2567 16.0495 96.2957 15.0398 100.158 15.0398C102.771 15.0398 105.015 15.4949 106.89 16.4051C108.793 17.2869 110.227 18.3962 111.193 19.7331C112.158 21.0415 112.669 22.3358 112.726 23.6158C112.726 23.8718 112.641 24.0851 112.471 24.2558C112.3 24.4264 112.073 24.5118 111.789 24.5118H107.316C107.032 24.5118 106.819 24.4549 106.677 24.3411C106.535 24.2273 106.407 24.0424 106.293 23.7864C105.896 22.734 105.2 21.838 104.206 21.0984C103.212 20.3589 101.863 19.9891 100.158 19.9891C98.1703 19.9891 96.6082 20.5295 95.4721 21.6104C94.3644 22.6629 93.7822 24.3127 93.7254 26.5598C93.697 27.3847 93.6828 28.6362 93.6828 30.3144C93.6828 31.9642 93.697 33.2158 93.7254 34.0691C93.7822 36.3731 94.3786 38.0798 95.5147 39.1891C96.6508 40.27 98.2129 40.8104 100.201 40.8104C102.218 40.8104 103.836 40.27 105.058 39.1891C106.279 38.1082 106.89 36.4869 106.89 34.3251V33.0024H101.692C101.408 33.0024 101.167 32.9029 100.968 32.7038C100.769 32.5047 100.67 32.2629 100.67 31.9784V29.6318C100.67 29.3473 100.769 29.1055 100.968 28.9064C101.167 28.7073 101.408 28.6078 101.692 28.6078H111.917C112.229 28.6078 112.485 28.7073 112.684 28.9064C112.882 29.1055 112.982 29.3473 112.982 29.6318V34.1544C112.982 36.5153 112.456 38.5775 111.406 40.3411C110.355 42.0762 108.864 43.4131 106.932 44.3518C105.001 45.2904 102.743 45.7598 100.158 45.7598Z" fill="white"/>
<path d="M124.321 45.7598C122.873 45.7598 121.538 45.4753 120.317 44.9064C119.124 44.3091 118.172 43.5127 117.462 42.5171C116.781 41.5215 116.44 40.4264 116.44 39.2318C116.44 37.2975 117.221 35.7331 118.783 34.5384C120.345 33.3438 122.49 32.5331 125.216 32.1064L131.053 31.2531V30.3571C131.053 29.134 130.74 28.2095 130.115 27.5838C129.491 26.958 128.497 26.6451 127.133 26.6451C126.196 26.6451 125.443 26.8158 124.875 27.1571C124.307 27.4984 123.839 27.854 123.469 28.2238C123.129 28.5651 122.901 28.7927 122.788 28.9064C122.674 29.2478 122.461 29.4184 122.149 29.4184H118.826C118.57 29.4184 118.343 29.3331 118.144 29.1624C117.974 28.9918 117.888 28.7642 117.888 28.4798C117.917 27.7687 118.258 26.9722 118.911 26.0904C119.593 25.1802 120.629 24.398 122.021 23.7438C123.413 23.0611 125.131 22.7198 127.176 22.7198C130.527 22.7198 132.97 23.4735 134.504 24.9811C136.037 26.4887 136.804 28.4655 136.804 30.9118V44.3091C136.804 44.5935 136.705 44.8353 136.506 45.0344C136.335 45.2335 136.094 45.3331 135.782 45.3331H132.246C131.962 45.3331 131.72 45.2335 131.521 45.0344C131.323 44.8353 131.223 44.5935 131.223 44.3091V42.6451C130.598 43.5553 129.718 44.3091 128.582 44.9064C127.446 45.4753 126.026 45.7598 124.321 45.7598ZM125.77 41.6638C127.332 41.6638 128.61 41.1518 129.604 40.1278C130.598 39.1038 131.095 37.6247 131.095 35.6904V34.8371L126.835 35.5198C123.569 36.0318 121.936 37.1269 121.936 38.8051C121.936 39.7153 122.305 40.4264 123.043 40.9384C123.81 41.422 124.719 41.6638 125.77 41.6638Z" fill="white"/>
<path d="M143.291 45.3331C143.007 45.3331 142.766 45.2335 142.567 45.0344C142.368 44.8353 142.269 44.5935 142.269 44.3091V24.1704C142.269 23.8575 142.368 23.6158 142.567 23.4451C142.766 23.246 143.007 23.1464 143.291 23.1464H146.657C146.969 23.1464 147.21 23.246 147.381 23.4451C147.58 23.6158 147.679 23.8575 147.679 24.1704V25.6211C149.213 23.6869 151.272 22.7198 153.857 22.7198C157.009 22.7198 159.21 23.9855 160.46 26.5171C161.142 25.3793 162.107 24.4691 163.357 23.7864C164.607 23.0753 165.956 22.7198 167.404 22.7198C169.733 22.7198 171.636 23.5162 173.113 25.1091C174.59 26.702 175.328 29.0202 175.328 32.0638V44.3091C175.328 44.5935 175.229 44.8353 175.03 45.0344C174.86 45.2335 174.618 45.3331 174.306 45.3331H170.77C170.486 45.3331 170.244 45.2335 170.046 45.0344C169.847 44.8353 169.747 44.5935 169.747 44.3091V32.4051C169.747 30.6131 169.364 29.3189 168.597 28.5224C167.859 27.726 166.879 27.3278 165.657 27.3278C164.55 27.3278 163.598 27.7402 162.803 28.5651C162.036 29.3615 161.653 30.6415 161.653 32.4051V44.3091C161.653 44.5935 161.553 44.8353 161.355 45.0344C161.184 45.2335 160.943 45.3331 160.63 45.3331H157.052C156.768 45.3331 156.526 45.2335 156.327 45.0344C156.129 44.8353 156.029 44.5935 156.029 44.3091V32.4051C156.029 30.6415 155.646 29.3615 154.879 28.5651C154.112 27.7402 153.132 27.3278 151.939 27.3278C150.832 27.3278 149.88 27.7402 149.085 28.5651C148.318 29.3615 147.935 30.6415 147.935 32.4051V44.3091C147.935 44.5935 147.835 44.8353 147.637 45.0344C147.466 45.2335 147.225 45.3331 146.912 45.3331H143.291Z" fill="white"/>
<path d="M181.605 19.5198C181.321 19.5198 181.079 19.4202 180.88 19.2211C180.681 19.022 180.582 18.7802 180.582 18.4958V15.3811C180.582 15.0682 180.681 14.8122 180.88 14.6131C181.079 14.414 181.321 14.3144 181.605 14.3144H185.524C185.836 14.3144 186.092 14.414 186.291 14.6131C186.49 14.8122 186.589 15.0682 186.589 15.3811V18.4958C186.589 18.7802 186.475 19.022 186.248 19.2211C186.049 19.4202 185.808 19.5198 185.524 19.5198H181.605ZM181.775 45.3331C181.491 45.3331 181.25 45.2335 181.051 45.0344C180.852 44.8353 180.753 44.5935 180.753 44.3091V24.1704C180.753 23.8575 180.852 23.6158 181.051 23.4451C181.25 23.246 181.491 23.1464 181.775 23.1464H185.396C185.68 23.1464 185.922 23.246 186.12 23.4451C186.319 23.6442 186.419 23.886 186.419 24.1704V44.3091C186.419 44.5935 186.319 44.8353 186.12 45.0344C185.922 45.2335 185.68 45.3331 185.396 45.3331H181.775Z" fill="white"/>
<path d="M200.463 45.7598C198.304 45.7598 196.501 45.4327 195.052 44.7784C193.604 44.1242 192.524 43.3704 191.814 42.5171C191.133 41.6353 190.792 40.8815 190.792 40.2558C190.792 39.9713 190.877 39.7438 191.047 39.5731C191.246 39.4024 191.473 39.3171 191.729 39.3171H195.222C195.45 39.3171 195.648 39.4309 195.819 39.6584C195.961 39.7722 196.273 40.0424 196.756 40.4691C197.267 40.8958 197.835 41.2371 198.46 41.4931C199.114 41.7207 199.824 41.8344 200.59 41.8344C201.726 41.8344 202.65 41.6211 203.36 41.1944C204.07 40.7393 204.425 40.0993 204.425 39.2744C204.425 38.7055 204.254 38.2504 203.913 37.9091C203.601 37.5393 203.019 37.2122 202.167 36.9278C201.343 36.6149 200.093 36.2735 198.418 35.9038C196.004 35.3918 194.214 34.6095 193.05 33.5571C191.914 32.5047 191.346 31.1109 191.346 29.3758C191.346 28.238 191.686 27.1713 192.368 26.1758C193.05 25.1518 194.058 24.3269 195.393 23.7011C196.756 23.0469 198.375 22.7198 200.25 22.7198C202.181 22.7198 203.842 23.0327 205.234 23.6584C206.626 24.2558 207.677 24.9811 208.387 25.8344C209.125 26.6878 209.494 27.4415 209.494 28.0958C209.494 28.3518 209.395 28.5793 209.196 28.7784C209.026 28.9491 208.813 29.0344 208.557 29.0344H205.362C205.049 29.0344 204.808 28.9207 204.638 28.6931C204.439 28.5509 204.112 28.2949 203.658 27.9251C203.232 27.5269 202.749 27.214 202.209 26.9864C201.67 26.7589 201.016 26.6451 200.25 26.6451C199.199 26.6451 198.389 26.8727 197.821 27.3278C197.253 27.7829 196.969 28.3802 196.969 29.1198C196.969 29.6318 197.097 30.0584 197.353 30.3998C197.637 30.7411 198.19 31.0682 199.014 31.3811C199.838 31.6655 201.073 31.9642 202.721 32.2771C207.833 33.2727 210.389 35.5055 210.389 38.9758C210.389 40.9953 209.509 42.6309 207.748 43.8824C206.015 45.134 203.587 45.7598 200.463 45.7598Z" fill="white"/>
<path d="M224.584 45.7598C221.233 45.7598 218.648 44.9064 216.831 43.1998C215.013 41.4931 214.033 39.1322 213.891 36.1171L213.849 34.2398L213.891 32.3624C214.033 29.3758 215.027 27.0291 216.873 25.3224C218.719 23.5873 221.29 22.7198 224.584 22.7198C227.851 22.7198 230.407 23.5873 232.253 25.3224C234.099 27.0291 235.093 29.3758 235.235 32.3624C235.264 32.7038 235.278 33.3295 235.278 34.2398C235.278 35.15 235.264 35.7758 235.235 36.1171C235.093 39.1322 234.113 41.4931 232.296 43.1998C230.478 44.9064 227.907 45.7598 224.584 45.7598ZM224.584 41.4504C226.09 41.4504 227.24 40.9811 228.035 40.0424C228.859 39.1038 229.299 37.7242 229.356 35.9038C229.384 35.6193 229.399 35.0647 229.399 34.2398C229.399 33.4149 229.384 32.8602 229.356 32.5758C229.299 30.7553 228.859 29.3758 228.035 28.4371C227.212 27.47 226.061 26.9864 224.584 26.9864C223.079 26.9864 221.915 27.47 221.091 28.4371C220.267 29.3758 219.827 30.7553 219.77 32.5758L219.728 34.2398L219.77 35.9038C219.827 37.7242 220.267 39.1038 221.091 40.0424C221.915 40.9811 223.079 41.4504 224.584 41.4504Z" fill="white"/>
<path d="M243.156 45.3331C242.872 45.3331 242.63 45.2335 242.431 45.0344C242.232 44.8353 242.133 44.5935 242.133 44.3091V27.7118H238.682C238.398 27.7118 238.157 27.6122 237.958 27.4131C237.759 27.214 237.66 26.9722 237.66 26.6878V24.1704C237.66 23.886 237.759 23.6442 237.958 23.4451C238.157 23.246 238.398 23.1464 238.682 23.1464H242.133V21.4398C242.133 18.8513 242.829 16.9313 244.221 15.6798C245.612 14.3998 247.714 13.7598 250.526 13.7598H253.465C253.749 13.7598 253.991 13.8593 254.19 14.0584C254.388 14.2575 254.488 14.4993 254.488 14.7838V17.3011C254.488 17.5855 254.388 17.8273 254.19 18.0264C253.991 18.2255 253.749 18.3251 253.465 18.3251H250.739C249.631 18.3251 248.85 18.5953 248.396 19.1358C247.941 19.6762 247.714 20.5153 247.714 21.6531V23.1464H253.039C253.323 23.1464 253.565 23.246 253.764 23.4451C253.962 23.6442 254.062 23.886 254.062 24.1704V26.6878C254.062 26.9722 253.962 27.214 253.764 27.4131C253.565 27.6122 253.323 27.7118 253.039 27.7118H247.714V44.3091C247.714 44.5935 247.615 44.8353 247.416 45.0344C247.245 45.2335 247.004 45.3331 246.692 45.3331H243.156Z" fill="white"/>
<path d="M267.483 45.3331C264.899 45.3331 262.953 44.6647 261.647 43.3278C260.34 41.9624 259.687 39.9713 259.687 37.3544V27.7118H256.321C256.037 27.7118 255.796 27.6122 255.597 27.4131C255.398 27.214 255.299 26.9722 255.299 26.6878V24.1704C255.299 23.886 255.398 23.6442 255.597 23.4451C255.796 23.246 256.037 23.1464 256.321 23.1464H259.687V16.0638C259.687 15.7509 259.786 15.5091 259.985 15.3384C260.184 15.1393 260.426 15.0398 260.71 15.0398H264.246C264.558 15.0398 264.799 15.1393 264.97 15.3384C265.169 15.5091 265.268 15.7509 265.268 16.0638V23.1464H270.593C270.877 23.1464 271.119 23.246 271.318 23.4451C271.516 23.6442 271.616 23.886 271.616 24.1704V26.6878C271.616 26.9722 271.516 27.214 271.318 27.4131C271.119 27.6122 270.877 27.7118 270.593 27.7118H265.268V36.8851C265.268 38.1082 265.481 39.0327 265.907 39.6584C266.333 40.2842 267.029 40.5971 267.995 40.5971H270.977C271.289 40.5971 271.531 40.6967 271.701 40.8958C271.9 41.0664 271.999 41.3082 271.999 41.6211V44.3091C271.999 44.5935 271.9 44.8353 271.701 45.0344C271.531 45.2335 271.289 45.3331 270.977 45.3331H267.483Z" fill="white"/>
</svg>
