<svg width="144" height="34" viewBox="0 0 144 34" fill="none" xmlns="http://www.w3.org/2000/svg">
<path fill-rule="evenodd" clip-rule="evenodd" d="M22.5544 5.66667C22.5544 2.53705 20.0324 0 16.9158 0V0C13.7992 0 11.2772 2.53705 11.2772 5.66667C11.2772 8.79628 13.7992 11.3333 16.9158 11.3333C20.0324 11.3333 22.5544 8.79628 22.5544 5.66667ZM5.63861 22.6667C8.75526 22.6667 11.2772 20.1296 11.2772 17C11.2772 13.8704 8.75526 11.3333 5.63861 11.3333C2.52195 11.3333 0 13.8704 0 17H0C0 20.1296 2.52195 22.6667 5.63861 22.6667ZM28.193 22.6667C31.3096 22.6667 33.8316 20.1296 33.8316 17C33.8316 13.8704 31.3096 11.3333 28.193 11.3333C25.0764 11.3333 22.5544 13.8704 22.5544 17C22.5544 20.1296 25.0764 22.6667 28.193 22.6667ZM16.9158 22.6667C20.0324 22.6667 22.5544 25.2038 22.5544 28.3333C22.5544 31.4629 20.0324 34 16.9158 34C13.7992 34 11.2772 31.4629 11.2772 28.3333C11.2772 25.2038 13.7992 22.6667 16.9158 22.6667Z" fill="white"/>
<path d="M53.0253 24.3096C50.9503 24.3096 49.3339 23.7731 48.1761 22.7002C47.0334 21.6273 46.4244 20.1313 46.3492 18.2122C46.3342 17.774 46.3267 17.0713 46.3267 16.1042C46.3267 15.1371 46.3342 14.4345 46.3492 13.9962C46.4094 12.1225 47.0258 10.6567 48.1987 9.5989C49.3715 8.52601 50.9804 7.98957 53.0253 7.98957C54.4087 7.98957 55.5965 8.23135 56.5889 8.7149C57.5964 9.18335 58.3557 9.77268 58.8669 10.4829C59.3782 11.178 59.6488 11.8656 59.6789 12.5456C59.6789 12.6816 59.6338 12.7949 59.5435 12.8856C59.4533 12.9762 59.333 13.0216 59.1827 13.0216H56.8145C56.6641 13.0216 56.5513 12.9913 56.4761 12.9309C56.401 12.8705 56.3333 12.7722 56.2732 12.6362C56.0627 12.0771 55.6943 11.6011 55.168 11.2082C54.6417 10.8153 53.9275 10.6189 53.0253 10.6189C51.9728 10.6189 51.1458 10.906 50.5443 11.4802C49.9579 12.0393 49.6497 12.9158 49.6196 14.1096C49.6046 14.5478 49.5971 15.2127 49.5971 16.1042C49.5971 16.9807 49.6046 17.6456 49.6196 18.0989C49.6497 19.3229 49.9654 20.2296 50.5669 20.8189C51.1683 21.3931 51.9953 21.6802 53.0479 21.6802C54.1155 21.6802 54.9725 21.3931 55.6191 20.8189C56.2656 20.2447 56.5889 19.3833 56.5889 18.2349V17.5322H53.8373C53.6869 17.5322 53.5591 17.4793 53.4539 17.3736C53.3486 17.2678 53.296 17.1393 53.296 16.9882V15.7416C53.296 15.5905 53.3486 15.462 53.4539 15.3562C53.5591 15.2505 53.6869 15.1976 53.8373 15.1976H59.2503C59.4157 15.1976 59.5511 15.2505 59.6563 15.3562C59.7616 15.462 59.8142 15.5905 59.8142 15.7416V18.1442C59.8142 19.3985 59.536 20.494 58.9797 21.4309C58.4233 22.3527 57.6339 23.0629 56.6115 23.5616C55.589 24.0602 54.3936 24.3096 53.0253 24.3096Z" fill="white"/>
<path d="M65.8176 24.3096C65.0507 24.3096 64.344 24.1585 63.6974 23.8562C63.0659 23.5389 62.5622 23.1158 62.1863 22.5869C61.8254 22.058 61.645 21.4762 61.645 20.8416C61.645 19.814 62.0585 18.9829 62.8855 18.3482C63.7125 17.7136 64.8477 17.2829 66.2912 17.0562L69.3812 16.6029V16.1269C69.3812 15.4771 69.2158 14.986 68.885 14.6536C68.5542 14.3211 68.0279 14.1549 67.3061 14.1549C66.8099 14.1549 66.4115 14.2456 66.1108 14.4269C65.81 14.6082 65.5619 14.7971 65.3665 14.9936C65.186 15.1749 65.0657 15.2958 65.0056 15.3562C64.9455 15.5376 64.8327 15.6282 64.6673 15.6282H62.908C62.7727 15.6282 62.6524 15.5829 62.5472 15.4922C62.4569 15.4016 62.4118 15.2807 62.4118 15.1296C62.4269 14.7518 62.6073 14.3287 62.9531 13.8602C63.314 13.3767 63.8628 12.9611 64.5996 12.6136C65.3364 12.2509 66.2461 12.0696 67.3287 12.0696C69.103 12.0696 70.3961 12.47 71.2081 13.2709C72.02 14.0718 72.426 15.122 72.426 16.4216V23.5389C72.426 23.69 72.3734 23.8185 72.2681 23.9242C72.1779 24.03 72.0501 24.0829 71.8847 24.0829H70.0127C69.8623 24.0829 69.7345 24.03 69.6293 23.9242C69.524 23.8185 69.4714 23.69 69.4714 23.5389V22.6549C69.1406 23.1385 68.6744 23.5389 68.073 23.8562C67.4715 24.1585 66.7197 24.3096 65.8176 24.3096ZM66.5844 22.1336C67.4114 22.1336 68.088 21.8616 68.6143 21.3176C69.1406 20.7736 69.4037 19.9878 69.4037 18.9602V18.5069L67.1483 18.8696C65.4191 19.1416 64.5545 19.7233 64.5545 20.6149C64.5545 21.0985 64.75 21.4762 65.1409 21.7482C65.5469 22.0051 66.0281 22.1336 66.5844 22.1336Z" fill="white"/>
<path d="M75.8603 24.0829C75.7099 24.0829 75.5821 24.03 75.4768 23.9242C75.3716 23.8185 75.319 23.69 75.319 23.5389V12.8402C75.319 12.674 75.3716 12.5456 75.4768 12.4549C75.5821 12.3491 75.7099 12.2962 75.8603 12.2962H77.6421C77.8075 12.2962 77.9353 12.3491 78.0255 12.4549C78.1307 12.5456 78.1834 12.674 78.1834 12.8402V13.6109C78.9953 12.5833 80.0855 12.0696 81.4538 12.0696C83.1228 12.0696 84.2881 12.742 84.9497 14.0869C85.3106 13.4825 85.8218 12.9989 86.4834 12.6362C87.145 12.2585 87.8592 12.0696 88.6261 12.0696C89.859 12.0696 90.8665 12.4927 91.6484 13.3389C92.4302 14.1851 92.8212 15.4167 92.8212 17.0336V23.5389C92.8212 23.69 92.7686 23.8185 92.6633 23.9242C92.5731 24.03 92.4453 24.0829 92.2799 24.0829H90.4079C90.2575 24.0829 90.1297 24.03 90.0244 23.9242C89.9192 23.8185 89.8666 23.69 89.8666 23.5389V17.2149C89.8666 16.2629 89.6636 15.5753 89.2576 15.1522C88.8666 14.7291 88.3479 14.5176 87.7013 14.5176C87.1149 14.5176 86.6112 14.7367 86.1902 15.1749C85.7842 15.598 85.5812 16.278 85.5812 17.2149V23.5389C85.5812 23.69 85.5286 23.8185 85.4233 23.9242C85.3331 24.03 85.2053 24.0829 85.0399 24.0829H83.1453C82.995 24.0829 82.8672 24.03 82.7619 23.9242C82.6567 23.8185 82.604 23.69 82.604 23.5389V17.2149C82.604 16.278 82.401 15.598 81.9951 15.1749C81.5891 14.7367 81.0703 14.5176 80.4388 14.5176C79.8524 14.5176 79.3487 14.7367 78.9277 15.1749C78.5217 15.598 78.3187 16.278 78.3187 17.2149V23.5389C78.3187 23.69 78.2661 23.8185 78.1608 23.9242C78.0706 24.03 77.9428 24.0829 77.7774 24.0829H75.8603Z" fill="white"/>
<path d="M96.1439 10.3696C95.9935 10.3696 95.8657 10.3167 95.7605 10.2109C95.6552 10.1051 95.6026 9.97668 95.6026 9.82557V8.1709C95.6026 8.00468 95.6552 7.86868 95.7605 7.7629C95.8657 7.65712 95.9935 7.60424 96.1439 7.60424H98.2189C98.3843 7.60424 98.5196 7.65712 98.6249 7.7629C98.7301 7.86868 98.7828 8.00468 98.7828 8.1709V9.82557C98.7828 9.97668 98.7226 10.1051 98.6023 10.2109C98.4971 10.3167 98.3693 10.3696 98.2189 10.3696H96.1439ZM96.2341 24.0829C96.0838 24.0829 95.956 24.03 95.8507 23.9242C95.7454 23.8185 95.6928 23.69 95.6928 23.5389V12.8402C95.6928 12.674 95.7454 12.5456 95.8507 12.4549C95.956 12.3491 96.0838 12.2962 96.2341 12.2962H98.1513C98.3016 12.2962 98.4294 12.3491 98.5347 12.4549C98.6399 12.5607 98.6926 12.6891 98.6926 12.8402V23.5389C98.6926 23.69 98.6399 23.8185 98.5347 23.9242C98.4294 24.03 98.3016 24.0829 98.1513 24.0829H96.2341Z" fill="white"/>
<path d="M106.128 24.3096C104.985 24.3096 104.03 24.1358 103.263 23.7882C102.496 23.4407 101.925 23.0402 101.549 22.5869C101.188 22.1185 101.008 21.718 101.008 21.3856C101.008 21.2345 101.053 21.1136 101.143 21.0229C101.248 20.9322 101.369 20.8869 101.504 20.8869H103.353C103.474 20.8869 103.579 20.9473 103.669 21.0682C103.744 21.1287 103.91 21.2722 104.165 21.4989C104.436 21.7256 104.737 21.9069 105.068 22.0429C105.413 22.1638 105.789 22.2242 106.195 22.2242C106.797 22.2242 107.285 22.1109 107.661 21.8842C108.037 21.6425 108.225 21.3025 108.225 20.8642C108.225 20.562 108.135 20.3202 107.954 20.1389C107.789 19.9425 107.481 19.7687 107.03 19.6176C106.594 19.4513 105.932 19.27 105.045 19.0736C103.767 18.8016 102.82 18.386 102.203 17.8269C101.602 17.2678 101.301 16.5273 101.301 15.6056C101.301 15.0011 101.481 14.4345 101.842 13.9056C102.203 13.3616 102.737 12.9233 103.444 12.5909C104.165 12.2433 105.022 12.0696 106.015 12.0696C107.037 12.0696 107.917 12.2358 108.654 12.5682C109.39 12.8856 109.947 13.2709 110.323 13.7242C110.714 14.1776 110.909 14.578 110.909 14.9256C110.909 15.0616 110.856 15.1825 110.751 15.2882C110.661 15.3789 110.548 15.4242 110.413 15.4242H108.721C108.556 15.4242 108.428 15.3638 108.338 15.2429C108.233 15.1673 108.06 15.0313 107.819 14.8349C107.594 14.6233 107.338 14.4571 107.052 14.3362C106.767 14.2153 106.421 14.1549 106.015 14.1549C105.458 14.1549 105.03 14.2758 104.729 14.5176C104.428 14.7593 104.278 15.0767 104.278 15.4696C104.278 15.7416 104.346 15.9682 104.481 16.1496C104.631 16.3309 104.925 16.5047 105.361 16.6709C105.797 16.822 106.451 16.9807 107.323 17.1469C110.03 17.6758 111.383 18.862 111.383 20.7056C111.383 21.7785 110.917 22.6473 109.984 23.3122C109.067 23.9771 107.782 24.3096 106.128 24.3096Z" fill="white"/>
<path d="M118.898 24.3096C117.124 24.3096 115.755 23.8562 114.793 22.9496C113.831 22.0429 113.312 20.7887 113.237 19.1869L113.214 18.1896L113.237 17.1922C113.312 15.6056 113.838 14.3589 114.816 13.4522C115.793 12.5305 117.154 12.0696 118.898 12.0696C120.627 12.0696 121.98 12.5305 122.958 13.4522C123.935 14.3589 124.461 15.6056 124.537 17.1922C124.552 17.3736 124.559 17.706 124.559 18.1896C124.559 18.6731 124.552 19.0056 124.537 19.1869C124.461 20.7887 123.943 22.0429 122.98 22.9496C122.018 23.8562 120.657 24.3096 118.898 24.3096ZM118.898 22.0202C119.695 22.0202 120.304 21.7709 120.725 21.2722C121.161 20.7736 121.394 20.0407 121.424 19.0736C121.439 18.9225 121.447 18.6278 121.447 18.1896C121.447 17.7513 121.439 17.4567 121.424 17.3056C121.394 16.3385 121.161 15.6056 120.725 15.1069C120.289 14.5931 119.68 14.3362 118.898 14.3362C118.101 14.3362 117.485 14.5931 117.049 15.1069C116.612 15.6056 116.379 16.3385 116.349 17.3056L116.327 18.1896L116.349 19.0736C116.379 20.0407 116.612 20.7736 117.049 21.2722C117.485 21.7709 118.101 22.0202 118.898 22.0202Z" fill="white"/>
<path d="M128.73 24.0829C128.579 24.0829 128.452 24.03 128.346 23.9242C128.241 23.8185 128.188 23.69 128.188 23.5389V14.7216H126.362C126.211 14.7216 126.083 14.6687 125.978 14.5629C125.873 14.4571 125.82 14.3287 125.82 14.1776V12.8402C125.82 12.6891 125.873 12.5607 125.978 12.4549C126.083 12.3491 126.211 12.2962 126.362 12.2962H128.188V11.3896C128.188 10.0145 128.557 8.99446 129.294 8.32957C130.03 7.64957 131.143 7.30957 132.632 7.30957H134.188C134.338 7.30957 134.466 7.36246 134.571 7.46824C134.677 7.57401 134.729 7.70246 134.729 7.85357V9.1909C134.729 9.34201 134.677 9.47046 134.571 9.57624C134.466 9.68201 134.338 9.7349 134.188 9.7349H132.744C132.158 9.7349 131.745 9.87846 131.504 10.1656C131.263 10.4527 131.143 10.8985 131.143 11.5029V12.2962H133.962C134.113 12.2962 134.241 12.3491 134.346 12.4549C134.451 12.5607 134.504 12.6891 134.504 12.8402V14.1776C134.504 14.3287 134.451 14.4571 134.346 14.5629C134.241 14.6687 134.113 14.7216 133.962 14.7216H131.143V23.5389C131.143 23.69 131.09 23.8185 130.985 23.9242C130.895 24.03 130.767 24.0829 130.602 24.0829H128.73Z" fill="white"/>
<path d="M141.609 24.0829C140.241 24.0829 139.211 23.7278 138.519 23.0176C137.828 22.2922 137.482 21.2345 137.482 19.8442V14.7216H135.7C135.55 14.7216 135.422 14.6687 135.317 14.5629C135.211 14.4571 135.159 14.3287 135.159 14.1776V12.8402C135.159 12.6891 135.211 12.5607 135.317 12.4549C135.422 12.3491 135.55 12.2962 135.7 12.2962H137.482V8.53357C137.482 8.36735 137.534 8.2389 137.64 8.14824C137.745 8.04246 137.873 7.98957 138.023 7.98957H139.895C140.06 7.98957 140.188 8.04246 140.279 8.14824C140.384 8.2389 140.436 8.36735 140.436 8.53357V12.2962H143.256C143.406 12.2962 143.534 12.3491 143.639 12.4549C143.744 12.5607 143.797 12.6891 143.797 12.8402V14.1776C143.797 14.3287 143.744 14.4571 143.639 14.5629C143.534 14.6687 143.406 14.7216 143.256 14.7216H140.436V19.5949C140.436 20.2447 140.549 20.7358 140.775 21.0682C141 21.4007 141.369 21.5669 141.88 21.5669H143.459C143.624 21.5669 143.752 21.6198 143.842 21.7256C143.947 21.8162 144 21.9447 144 22.1109V23.5389C144 23.69 143.947 23.8185 143.842 23.9242C143.752 24.03 143.624 24.0829 143.459 24.0829H141.609Z" fill="white"/>
</svg>
