<svg width="102" height="24" viewBox="0 0 102 24" fill="none" xmlns="http://www.w3.org/2000/svg">
<path fill-rule="evenodd" clip-rule="evenodd" d="M15.976 4C15.976 1.79086 14.1896 0 11.982 0V0C9.7744 0 7.98802 1.79086 7.98802 4C7.98802 6.20914 9.7744 8 11.982 8C14.1896 8 15.976 6.20914 15.976 4ZM3.99401 16C6.20164 16 7.98802 14.2091 7.98802 12C7.98802 9.79086 6.20164 8 3.99401 8C1.78638 8 0 9.79086 0 12H0C0 14.2091 1.78638 16 3.99401 16ZM19.97 16C22.1776 16 23.9641 14.2091 23.9641 12C23.9641 9.79086 22.1776 8 19.97 8C17.7625 8 15.976 9.79086 15.976 12C15.976 14.2091 17.7625 16 19.97 16ZM11.982 16C14.1896 16 15.976 17.7909 15.976 20C15.976 22.2091 14.1896 24 11.982 24C9.7744 24 7.98802 22.2091 7.98802 20C7.98802 17.7909 9.7744 16 11.982 16Z" fill="#FF9800"/>
<path d="M37.5574 17.1602C36.0876 17.1602 34.9426 16.7815 34.1225 16.0242C33.3131 15.2668 32.8817 14.2108 32.8285 12.8562C32.8178 12.5468 32.8125 12.0508 32.8125 11.3682C32.8125 10.6855 32.8178 10.1895 32.8285 9.88016C32.8711 8.55749 33.3078 7.52282 34.1385 6.77616C34.9693 6.01882 36.1089 5.64016 37.5574 5.64016C38.5372 5.64016 39.3787 5.81082 40.0816 6.15216C40.7952 6.48282 41.3331 6.89882 41.6952 7.40016C42.0573 7.89082 42.249 8.37616 42.2703 8.85616C42.2703 8.95216 42.2384 9.03216 42.1745 9.09616C42.1106 9.16016 42.0253 9.19216 41.9188 9.19216H40.2414C40.1349 9.19216 40.055 9.17082 40.0017 9.12816C39.9485 9.08549 39.9005 9.01616 39.8579 8.92016C39.7088 8.52549 39.4479 8.18949 39.0751 7.91216C38.7023 7.63482 38.1964 7.49616 37.5574 7.49616C36.8118 7.49616 36.226 7.69882 35.8 8.10416C35.3846 8.49882 35.1663 9.11749 35.145 9.96016C35.1344 10.2695 35.129 10.7388 35.129 11.3682C35.129 11.9868 35.1344 12.4562 35.145 12.7762C35.1663 13.6402 35.39 14.2802 35.816 14.6962C36.242 15.1015 36.8278 15.3042 37.5734 15.3042C38.3296 15.3042 38.9366 15.1015 39.3946 14.6962C39.8526 14.2908 40.0816 13.6828 40.0816 12.8722V12.3762H38.1325C38.026 12.3762 37.9355 12.3388 37.8609 12.2642C37.7864 12.1895 37.7491 12.0988 37.7491 11.9922V11.1122C37.7491 11.0055 37.7864 10.9148 37.8609 10.8402C37.9355 10.7655 38.026 10.7282 38.1325 10.7282H41.9668C42.0839 10.7282 42.1798 10.7655 42.2543 10.8402C42.3289 10.9148 42.3662 11.0055 42.3662 11.1122V12.8082C42.3662 13.6935 42.1691 14.4668 41.7751 15.1282C41.381 15.7788 40.8218 16.2802 40.0976 16.6322C39.3733 16.9842 38.5266 17.1602 37.5574 17.1602Z" fill="#FF9800"/>
<path d="M46.6185 17.1602C46.0754 17.1602 45.5748 17.0535 45.1168 16.8402C44.6695 16.6162 44.3127 16.3175 44.0464 15.9442C43.7908 15.5708 43.663 15.1602 43.663 14.7122C43.663 13.9868 43.9559 13.4002 44.5417 12.9522C45.1274 12.5042 45.9316 12.2002 46.954 12.0402L49.1428 11.7202V11.3842C49.1428 10.9255 49.0256 10.5788 48.7913 10.3442C48.557 10.1095 48.1842 9.99216 47.673 9.99216C47.3215 9.99216 47.0392 10.0562 46.8262 10.1842C46.6132 10.3122 46.4375 10.4455 46.299 10.5842C46.1712 10.7122 46.086 10.7975 46.0434 10.8402C46.0008 10.9682 45.9209 11.0322 45.8038 11.0322H44.5576C44.4618 11.0322 44.3766 11.0002 44.302 10.9362C44.2381 10.8722 44.2062 10.7868 44.2062 10.6802C44.2168 10.4135 44.3446 10.1148 44.5896 9.78416C44.8452 9.44282 45.234 9.14949 45.7558 8.90416C46.2777 8.64816 46.9221 8.52016 47.6889 8.52016C48.9457 8.52016 49.8617 8.80282 50.4368 9.36816C51.012 9.93349 51.2995 10.6748 51.2995 11.5922V16.6162C51.2995 16.7228 51.2622 16.8135 51.1877 16.8882C51.1238 16.9628 51.0333 17.0002 50.9161 17.0002H49.5901C49.4836 17.0002 49.393 16.9628 49.3185 16.8882C49.2439 16.8135 49.2067 16.7228 49.2067 16.6162V15.9922C48.9723 16.3335 48.6422 16.6162 48.2161 16.8402C47.7901 17.0535 47.2576 17.1602 46.6185 17.1602ZM47.1617 15.6242C47.7475 15.6242 48.2268 15.4322 48.5996 15.0482C48.9723 14.6642 49.1587 14.1095 49.1587 13.3842V13.0642L47.5611 13.3202C46.3363 13.5122 45.7239 13.9228 45.7239 14.5522C45.7239 14.8935 45.8623 15.1602 46.1393 15.3522C46.4268 15.5335 46.7677 15.6242 47.1617 15.6242Z" fill="#FF9800"/>
<path d="M53.7321 17.0002C53.6256 17.0002 53.5351 16.9628 53.4605 16.8882C53.386 16.8135 53.3487 16.7228 53.3487 16.6162V9.06416C53.3487 8.94682 53.386 8.85616 53.4605 8.79216C53.5351 8.71749 53.6256 8.68016 53.7321 8.68016H54.9942C55.1114 8.68016 55.2019 8.71749 55.2658 8.79216C55.3404 8.85616 55.3777 8.94682 55.3777 9.06416V9.60816C55.9528 8.88282 56.725 8.52016 57.6942 8.52016C58.8764 8.52016 59.7018 8.99482 60.1705 9.94416C60.4261 9.51749 60.7882 9.17616 61.2568 8.92016C61.7255 8.65349 62.2314 8.52016 62.7746 8.52016C63.6479 8.52016 64.3615 8.81882 64.9153 9.41616C65.4692 10.0135 65.7461 10.8828 65.7461 12.0242V16.6162C65.7461 16.7228 65.7088 16.8135 65.6343 16.8882C65.5704 16.9628 65.4798 17.0002 65.3627 17.0002H64.0367C63.9302 17.0002 63.8396 16.9628 63.7651 16.8882C63.6905 16.8135 63.6532 16.7228 63.6532 16.6162V12.1522C63.6532 11.4802 63.5095 10.9948 63.2219 10.6962C62.945 10.3975 62.5775 10.2482 62.1195 10.2482C61.7042 10.2482 61.3474 10.4028 61.0491 10.7122C60.7616 11.0108 60.6178 11.4908 60.6178 12.1522V16.6162C60.6178 16.7228 60.5805 16.8135 60.506 16.8882C60.4421 16.9628 60.3515 17.0002 60.2344 17.0002H58.8924C58.7859 17.0002 58.6953 16.9628 58.6208 16.8882C58.5462 16.8135 58.509 16.7228 58.509 16.6162V12.1522C58.509 11.4908 58.3652 11.0108 58.0776 10.7122C57.79 10.4028 57.4226 10.2482 56.9753 10.2482C56.5599 10.2482 56.2031 10.4028 55.9049 10.7122C55.6173 11.0108 55.4735 11.4908 55.4735 12.1522V16.6162C55.4735 16.7228 55.4362 16.8135 55.3617 16.8882C55.2978 16.9628 55.2072 17.0002 55.0901 17.0002H53.7321Z" fill="#FF9800"/>
<path d="M68.0997 7.32016C67.9932 7.32016 67.9027 7.28282 67.8281 7.20816C67.7536 7.13349 67.7163 7.04282 67.7163 6.93616V5.76816C67.7163 5.65082 67.7536 5.55482 67.8281 5.48016C67.9027 5.40549 67.9932 5.36816 68.0997 5.36816H69.5695C69.6866 5.36816 69.7825 5.40549 69.8571 5.48016C69.9316 5.55482 69.9689 5.65082 69.9689 5.76816V6.93616C69.9689 7.04282 69.9263 7.13349 69.8411 7.20816C69.7665 7.28282 69.676 7.32016 69.5695 7.32016H68.0997ZM68.1636 17.0002C68.0571 17.0002 67.9666 16.9628 67.892 16.8882C67.8175 16.8135 67.7802 16.7228 67.7802 16.6162V9.06416C67.7802 8.94682 67.8175 8.85616 67.892 8.79216C67.9666 8.71749 68.0571 8.68016 68.1636 8.68016H69.5216C69.6281 8.68016 69.7186 8.71749 69.7932 8.79216C69.8677 8.86682 69.905 8.95749 69.905 9.06416V16.6162C69.905 16.7228 69.8677 16.8135 69.7932 16.8882C69.7186 16.9628 69.6281 17.0002 69.5216 17.0002H68.1636Z" fill="#FF9800"/>
<path d="M75.1715 17.1602C74.362 17.1602 73.6857 17.0375 73.1425 16.7922C72.5993 16.5468 72.1946 16.2642 71.9283 15.9442C71.6727 15.6135 71.5449 15.3308 71.5449 15.0962C71.5449 14.9895 71.5769 14.9042 71.6408 14.8402C71.7153 14.7762 71.8005 14.7442 71.8964 14.7442H73.2064C73.2916 14.7442 73.3662 14.7868 73.4301 14.8722C73.4833 14.9148 73.6005 15.0162 73.7815 15.1762C73.9733 15.3362 74.1863 15.4642 74.4206 15.5602C74.6656 15.6455 74.9318 15.6882 75.2194 15.6882C75.6454 15.6882 75.9916 15.6082 76.2578 15.4482C76.5241 15.2775 76.6572 15.0375 76.6572 14.7282C76.6572 14.5148 76.5933 14.3442 76.4655 14.2162C76.3484 14.0775 76.13 13.9548 75.8105 13.8482C75.5016 13.7308 75.033 13.6028 74.4046 13.4642C73.4993 13.2722 72.8283 12.9788 72.3916 12.5842C71.9656 12.1895 71.7526 11.6668 71.7526 11.0162C71.7526 10.5895 71.8804 10.1895 72.136 9.81616C72.3916 9.43216 72.7697 9.12282 73.2703 8.88816C73.7816 8.64282 74.3886 8.52016 75.0916 8.52016C75.8158 8.52016 76.4389 8.63749 76.9608 8.87216C77.4827 9.09616 77.8767 9.36816 78.143 9.68816C78.4199 10.0082 78.5584 10.2908 78.5584 10.5362C78.5584 10.6322 78.5211 10.7175 78.4466 10.7922C78.3826 10.8562 78.3028 10.8882 78.2069 10.8882H77.0087C76.8916 10.8882 76.801 10.8455 76.7371 10.7602C76.6626 10.7068 76.5401 10.6108 76.3697 10.4722C76.2099 10.3228 76.0288 10.2055 75.8265 10.1202C75.6241 10.0348 75.3792 9.99216 75.0916 9.99216C74.6975 9.99216 74.394 10.0775 74.181 10.2482C73.9679 10.4188 73.8614 10.6428 73.8614 10.9202C73.8614 11.1122 73.9094 11.2722 74.0052 11.4002C74.1117 11.5282 74.3194 11.6508 74.6283 11.7682C74.9372 11.8748 75.4005 11.9868 76.0182 12.1042C77.9353 12.4775 78.8939 13.3148 78.8939 14.6162C78.8939 15.3735 78.5637 15.9868 77.9034 16.4562C77.2537 16.9255 76.343 17.1602 75.1715 17.1602Z" fill="#FF9800"/>
<path d="M84.2171 17.1602C82.9604 17.1602 81.9912 16.8402 81.3095 16.2002C80.6279 15.5602 80.2604 14.6748 80.2072 13.5442L80.1912 12.8402L80.2072 12.1362C80.2604 11.0162 80.6332 10.1362 81.3255 9.49616C82.0178 8.84549 82.9817 8.52016 84.2171 8.52016C85.442 8.52016 86.4005 8.84549 87.0928 9.49616C87.7851 10.1362 88.1579 11.0162 88.2112 12.1362C88.2218 12.2642 88.2271 12.4988 88.2271 12.8402C88.2271 13.1815 88.2218 13.4162 88.2112 13.5442C88.1579 14.6748 87.7905 15.5602 87.1088 16.2002C86.4272 16.8402 85.4633 17.1602 84.2171 17.1602ZM84.2171 15.5442C84.7816 15.5442 85.213 15.3682 85.5112 15.0162C85.8201 14.6642 85.9852 14.1468 86.0065 13.4642C86.0171 13.3575 86.0224 13.1495 86.0224 12.8402C86.0224 12.5308 86.0171 12.3228 86.0065 12.2162C85.9852 11.5335 85.8201 11.0162 85.5112 10.6642C85.2023 10.3015 84.771 10.1202 84.2171 10.1202C83.6527 10.1202 83.216 10.3015 82.9071 10.6642C82.5982 11.0162 82.4332 11.5335 82.4119 12.2162L82.3959 12.8402L82.4119 13.4642C82.4332 14.1468 82.5982 14.6642 82.9071 15.0162C83.216 15.3682 83.6527 15.5442 84.2171 15.5442Z" fill="#FF9800"/>
<path d="M91.1813 17.0002C91.0748 17.0002 90.9843 16.9628 90.9097 16.8882C90.8352 16.8135 90.7979 16.7228 90.7979 16.6162V10.3922H89.5038C89.3973 10.3922 89.3068 10.3548 89.2323 10.2802C89.1577 10.2055 89.1204 10.1148 89.1204 10.0082V9.06416C89.1204 8.95749 89.1577 8.86682 89.2323 8.79216C89.3068 8.71749 89.3973 8.68016 89.5038 8.68016H90.7979V8.04016C90.7979 7.06949 91.0588 6.34949 91.5807 5.88016C92.1026 5.40016 92.8908 5.16016 93.9452 5.16016H95.0475C95.154 5.16016 95.2446 5.19749 95.3191 5.27216C95.3937 5.34682 95.431 5.43749 95.431 5.54416V6.48816C95.431 6.59482 95.3937 6.68549 95.3191 6.76016C95.2446 6.83482 95.154 6.87216 95.0475 6.87216H94.0251C93.6097 6.87216 93.3168 6.97349 93.1464 7.17616C92.976 7.37882 92.8908 7.69349 92.8908 8.12016V8.68016H94.8878C94.9943 8.68016 95.0848 8.71749 95.1594 8.79216C95.2339 8.86682 95.2712 8.95749 95.2712 9.06416V10.0082C95.2712 10.1148 95.2339 10.2055 95.1594 10.2802C95.0848 10.3548 94.9943 10.3922 94.8878 10.3922H92.8908V16.6162C92.8908 16.7228 92.8535 16.8135 92.7789 16.8882C92.715 16.9628 92.6245 17.0002 92.5073 17.0002H91.1813Z" fill="#FF9800"/>
<path d="M100.304 17.0002C99.3351 17.0002 98.6055 16.7495 98.1155 16.2482C97.6256 15.7362 97.3807 14.9895 97.3807 14.0082V10.3922H96.1185C96.012 10.3922 95.9215 10.3548 95.847 10.2802C95.7724 10.2055 95.7351 10.1148 95.7351 10.0082V9.06416C95.7351 8.95749 95.7724 8.86682 95.847 8.79216C95.9215 8.71749 96.012 8.68016 96.1185 8.68016H97.3807V6.02416C97.3807 5.90682 97.4179 5.81616 97.4925 5.75216C97.567 5.67749 97.6576 5.64016 97.7641 5.64016H99.0901C99.2072 5.64016 99.2978 5.67749 99.3617 5.75216C99.4362 5.81616 99.4735 5.90682 99.4735 6.02416V8.68016H101.471C101.577 8.68016 101.668 8.71749 101.742 8.79216C101.817 8.86682 101.854 8.95749 101.854 9.06416V10.0082C101.854 10.1148 101.817 10.2055 101.742 10.2802C101.668 10.3548 101.577 10.3922 101.471 10.3922H99.4735V13.8322C99.4735 14.2908 99.5534 14.6375 99.7132 14.8722C99.8729 15.1068 100.134 15.2242 100.496 15.2242H101.614C101.731 15.2242 101.822 15.2615 101.886 15.3362C101.96 15.4002 101.998 15.4908 101.998 15.6082V16.6162C101.998 16.7228 101.96 16.8135 101.886 16.8882C101.822 16.9628 101.731 17.0002 101.614 17.0002H100.304Z" fill="#FF9800"/>
</svg>
