<svg width="24" height="24" viewBox="0 0 24 24" fill="none" xmlns="http://www.w3.org/2000/svg">
    <path d="M21.9404 13.3778L17.9375 6.4836L18.0846 6.33624C18.2675 6.34585 18.4535 6.28311 18.5932 6.14334C18.8549 5.88168 18.8549 5.45769 18.5932 5.19625C18.3316 4.93458 17.9078 4.93458 17.6461 5.19625C17.5064 5.33579 17.4436 5.52177 17.4532 5.70485L4.69718 18.4609C4.52281 18.6353 4.52281 18.9179 4.69718 19.0923C4.78448 19.1796 4.89857 19.2231 5.01288 19.2231C5.12719 19.2231 5.24151 19.1796 5.32858 19.0923L14.1016 10.3193L21.3521 14.0001C21.4162 14.0327 21.4856 14.0485 21.554 14.0485C21.6741 14.0485 21.7922 14.0001 21.8786 13.9087C22.0148 13.7647 22.0398 13.5486 21.9404 13.3778ZM14.766 9.65509L17.2842 7.13688L20.4097 12.52L14.766 9.65509Z" fill="#FF9800" stroke="#FF9800" stroke-width="0.5"/>
    <path d="M6.54738 5.70715C6.55698 5.5243 6.49425 5.33832 6.35448 5.19855C6.1147 4.95877 5.74006 4.94157 5.4775 5.14117C5.45271 5.15747 5.42905 5.17667 5.40739 5.19855C5.14572 5.46 5.14572 5.88398 5.40739 6.14565C5.54715 6.28541 5.73313 6.34815 5.91599 6.33855L6.06334 6.4859L2.06041 13.3801C1.96106 13.5511 1.98607 13.767 2.12204 13.911C2.20844 14.0024 2.32677 14.0508 2.44666 14.0508C2.51543 14.0508 2.58442 14.0352 2.64872 14.0024L9.89905 10.3218L11.0529 11.4757L11.6843 10.8443L6.54738 5.70715Z" fill="#FF9800" stroke="#FF9800"/>
    <path d="M18.6728 19.093C18.7601 19.1803 18.8742 19.2238 18.9885 19.2238C19.1028 19.2238 19.2169 19.1803 19.3042 19.093C19.4785 18.9186 19.4785 18.636 19.3042 18.4616L12.9478 12.1055L12.3164 12.7369L18.6728 19.093Z" fill="#FF9800" stroke="#FF9800" stroke-width="0.5"/>
</svg>
