<svg width="32" height="32" viewBox="0 0 32 32" fill="none" xmlns="http://www.w3.org/2000/svg">
<path d="M16 0C7.20625 0 0 7.20625 0 16C0 24.7938 7.20625 32 16 32C24.7938 32 32 24.7938 32 16C32 7.20625 24.7938 0 16 0Z" fill="#FFDA2D"/>
<path d="M16 3.75C9.28744 3.75 3.75 9.28744 3.75 16C3.75 22.7124 9.28744 28.25 16 28.25C22.7126 28.25 28.25 22.7124 28.25 16C28.25 9.28744 22.7126 3.75 16 3.75Z" fill="#FDBF00"/>
<path d="M19.75 13.1875C19.4501 13.1875 19.075 13.2437 18.6812 13.3188C18.7562 12.9249 18.8125 12.5499 18.8125 12.25C18.8125 10.6937 17.5563 9.4375 16 9.4375C14.4437 9.4375 13.1875 10.6937 13.1875 12.25C13.1875 12.5499 13.2438 12.925 13.3188 13.3188C12.9249 13.2437 12.5499 13.1875 12.25 13.1875C10.6937 13.1875 9.4375 14.4437 9.4375 16C9.4375 17.5562 10.6937 18.8125 12.25 18.8125C12.5499 18.8125 12.925 18.7562 13.3188 18.6812C13.2438 19.0751 13.1875 19.4499 13.1875 19.75C13.1875 21.3062 14.4437 22.5625 16 22.5625C17.5563 22.5625 18.8125 21.3062 18.8125 19.75C18.8125 19.4499 18.7562 19.075 18.6812 18.6812C19.0751 18.7562 19.4501 18.8125 19.75 18.8125C21.3063 18.8125 22.5625 17.5562 22.5625 16C22.5625 14.4437 21.3063 13.1875 19.75 13.1875Z" fill="#FFDA2D"/>
<path d="M22.5625 16C22.5625 17.5562 21.3063 18.8125 19.75 18.8125C19.4501 18.8125 19.075 18.7562 18.6812 18.6812C18.7562 19.0751 18.8125 19.4499 18.8125 19.75C18.8125 21.3062 17.5563 22.5625 16 22.5625V9.4375C17.5563 9.4375 18.8125 10.6937 18.8125 12.25C18.8125 12.5499 18.7562 12.925 18.6812 13.3188C19.0751 13.2437 19.4501 13.1875 19.75 13.1875C21.3063 13.1875 22.5625 14.4437 22.5625 16Z" fill="#FFDA2D"/>
</svg>
