<svg width="36" height="36" viewBox="0 0 36 36" fill="none" xmlns="http://www.w3.org/2000/svg">
<g clip-path="url(#clip0)">
<path d="M2.58594 10.0131C3.44038 9.08088 4.33574 8.24205 5.32159 7.46327C5.43753 7.37172 5.60445 7.48134 5.56564 7.62386C5.01306 9.65484 4.0476 11.662 2.55929 13.1541C2.49242 12.1095 2.49144 11.0562 2.58594 10.0131Z" fill="#FF901D"/>
<path d="M2.55966 13.1545C1.70037 12.1175 0.961945 11.0454 0.296649 9.88793C0.22057 9.7556 0.0182111 9.80278 0.0104767 9.95529C-0.109547 12.3263 0.796359 15.1005 3.00347 16.2195C2.78353 15.2112 2.62505 14.1851 2.55966 13.1545Z" fill="#FF901D"/>
<path d="M3.00293 16.2183C3.5437 15.1056 4.14902 14.0704 4.85855 13.067C4.94271 12.9479 5.1315 13.0025 5.13762 13.1482C5.22403 15.1963 4.87261 17.3614 3.89126 19.1593C3.52746 18.2023 3.22062 17.2194 3.00293 16.2183Z" fill="#FF901D"/>
<path d="M3.89298 19.1604C2.77719 18.4432 1.75794 17.6592 0.780243 16.7785C0.667461 16.6768 0.490555 16.783 0.528735 16.9298C1.11774 19.1945 2.80215 21.5186 5.20023 21.9291C4.70171 21.0389 4.25516 20.1149 3.89298 19.1604Z" fill="#FF901D"/>
<path d="M5.19824 21.9292C5.39371 20.7153 5.67327 19.5573 6.06245 18.3996C6.10872 18.2619 6.30426 18.2593 6.35277 18.3962C7.0334 20.3177 7.30909 22.4855 6.89847 24.4778C6.27423 23.6699 5.69676 22.8209 5.19824 21.9292Z" fill="#FF901D"/>
<path d="M6.89846 24.4779C5.62658 24.1176 4.42494 23.667 3.2349 23.1146C3.09744 23.0507 2.95963 23.2037 3.03887 23.3329C4.26245 25.3283 6.55323 27.0559 8.966 26.7582C8.22533 26.0486 7.52544 25.2905 6.89846 24.4779Z" fill="#FF901D"/>
<path d="M8.96642 26.7587C8.79289 25.5357 8.71913 24.3428 8.75324 23.1167C8.75724 22.9713 8.94371 22.9118 9.03006 23.0288C10.2487 24.681 11.1579 26.688 11.3754 28.7227C10.528 28.1272 9.71434 27.4762 8.96642 26.7587Z" fill="#FF901D"/>
<path d="M33.4142 10.0131C32.5597 9.08088 31.6644 8.24205 30.6785 7.46327C30.5626 7.37172 30.3956 7.48134 30.4344 7.62386C30.987 9.65484 31.9525 11.662 33.4408 13.1541C33.5077 12.1095 33.5087 11.0562 33.4142 10.0131Z" fill="#FF901D"/>
<path d="M33.4409 13.1545C34.3002 12.1175 35.0386 11.0454 35.7039 9.88793C35.78 9.7556 35.9823 9.80278 35.9901 9.95529C36.1101 12.3263 35.2042 15.1005 32.9971 16.2195C33.217 15.2112 33.3755 14.1851 33.4409 13.1545Z" fill="#FF901D"/>
<path d="M32.9969 16.2183C32.4561 15.1056 31.8508 14.0704 31.1413 13.067C31.0571 12.9479 30.8683 13.0025 30.8622 13.1482C30.7758 15.1963 31.1272 17.3614 32.1086 19.1593C32.4724 18.2023 32.7792 17.2194 32.9969 16.2183Z" fill="#FF901D"/>
<path d="M32.108 19.1604C33.2238 18.4432 34.2431 17.6592 35.2208 16.7785C35.3335 16.6768 35.5104 16.783 35.4723 16.9298C34.8833 19.1945 33.1989 21.5186 30.8008 21.9291C31.2993 21.0389 31.7458 20.1149 32.108 19.1604Z" fill="#FF901D"/>
<path d="M30.802 21.9292C30.6065 20.7153 30.327 19.5573 29.9378 18.3996C29.8915 18.2619 29.696 18.2593 29.6475 18.3962C28.9668 20.3177 28.6911 22.4855 29.1018 24.4778C29.726 23.6699 30.3035 22.8209 30.802 21.9292Z" fill="#FF901D"/>
<path d="M29.1007 24.4779C30.3726 24.1176 31.5743 23.667 32.7643 23.1146C32.9018 23.0507 33.0396 23.2037 32.9603 23.3329C31.7368 25.3283 29.446 27.0559 27.0332 26.7582C27.7739 26.0486 28.4738 25.2905 29.1007 24.4779Z" fill="#FF901D"/>
<path d="M27.033 26.7587C27.2065 25.5357 27.2803 24.3428 27.2462 23.1167C27.2422 22.9713 27.0557 22.9118 26.9694 23.0288C25.7507 24.681 24.8416 26.688 24.624 28.7227C25.4714 28.1272 26.2851 27.4762 27.033 26.7587Z" fill="#FF901D"/>
<path d="M14.3513 29.8375C13.3776 29.3574 12.4875 28.835 11.7057 28.285C11.7055 28.2848 11.7053 28.2848 11.7051 28.2846C11.705 28.2846 11.7049 28.2844 11.7048 28.2843C10.8323 27.6712 10.0456 27.03 9.3664 26.3784C9.36626 26.3783 9.36612 26.3781 9.36598 26.378C8.60358 25.6477 7.92802 24.9028 7.35792 24.1639C7.35778 24.1637 7.35757 24.1635 7.35743 24.1633C7.35736 24.1632 7.35736 24.1631 7.35729 24.163C6.71421 23.3307 6.15853 22.498 5.70572 21.6878C5.70551 21.6874 5.70523 21.6871 5.70502 21.6866C5.19145 20.7693 4.76444 19.8651 4.43594 18.9992C4.4358 18.9988 4.43566 18.9985 4.43552 18.9982V18.9982C4.06033 18.0109 3.77001 17.05 3.57251 16.1421C3.57251 16.142 3.57244 16.1419 3.57244 16.1419C3.34568 15.1023 3.20062 14.1013 3.14135 13.1667C3.14135 13.1662 3.14121 13.1658 3.14121 13.1654C3.0723 12.0891 3.08088 11.0633 3.16673 10.1164C3.16779 10.1049 3.16779 10.0935 3.16807 10.0821C3.28141 8.61787 3.55247 7.15009 3.97505 5.71874C4.05998 5.43095 3.89552 5.12882 3.60773 5.04388C3.32008 4.95887 3.01781 5.12327 2.93287 5.4112C2.48421 6.931 2.19741 8.49046 2.08048 10.0463C2.0797 10.0569 2.07991 10.0673 2.0797 10.0778C1.99378 11.0637 1.98569 12.1253 2.05678 13.235C2.05678 13.2352 2.05678 13.2354 2.05678 13.2356C2.1195 14.2238 2.27201 15.2785 2.51016 16.3705C2.51037 16.3714 2.51044 16.3723 2.51058 16.3731C2.71948 17.3336 3.02533 18.3467 3.41972 19.3842C3.41979 19.3843 3.41979 19.3845 3.41986 19.3846C3.76741 20.3006 4.21727 21.2539 4.75699 22.2178C4.75706 22.2179 4.75713 22.2181 4.7572 22.2182C4.75741 22.2186 4.75755 22.2188 4.75777 22.2191C4.75777 22.2191 4.75777 22.2191 4.75784 22.2192C5.23673 23.0756 5.82194 23.9531 6.49737 24.8274C6.49765 24.8277 6.49793 24.8279 6.49814 24.8283C7.10079 25.6092 7.81228 26.3942 8.61293 27.1612C8.61314 27.1615 8.61328 27.1617 8.61349 27.1619C9.33244 27.8517 10.1623 28.5285 11.0802 29.1734C11.0803 29.1735 11.0804 29.1736 11.0805 29.1737C11.908 29.7559 12.8468 30.3072 13.8708 30.8121C13.9481 30.8503 14.03 30.8683 14.1107 30.8683C14.311 30.8683 14.5038 30.757 14.5984 30.5652C14.731 30.2961 14.6204 29.9703 14.3513 29.8375Z" fill="#F7BC14"/>
<path d="M33.9216 10.0775C33.9214 10.067 33.9216 10.0566 33.9208 10.0461C33.8039 8.49002 33.5171 6.93049 33.0684 5.41096C32.9835 5.12324 32.6814 4.95913 32.3935 5.04372C32.1057 5.12866 31.9413 5.43086 32.0262 5.71865C32.4487 7.14965 32.7198 8.61735 32.8332 10.0818C32.8336 10.0932 32.8336 10.1047 32.8346 10.1162C32.9205 11.0628 32.929 12.0887 32.8601 13.1654C32.8601 13.1656 32.8601 13.1658 32.8601 13.1659C32.8601 13.1662 32.8601 13.1663 32.8601 13.1665C32.8008 14.1006 32.6557 15.1016 32.4289 16.1416C32.4289 16.1417 32.4288 16.1418 32.4288 16.1419C32.2315 17.0498 31.9411 18.0107 31.5658 18.9979C31.5658 18.998 31.5658 18.9981 31.5657 18.9982C31.5656 18.9985 31.5655 18.9987 31.5653 18.9989C31.2369 19.8648 30.8098 20.7693 30.2958 21.6873C30.2957 21.6874 30.2956 21.6875 30.2956 21.6876C29.8428 22.4975 29.2871 23.3302 28.6439 24.1628C28.6438 24.163 28.6436 24.1632 28.6435 24.1634C28.6434 24.1635 28.6434 24.1635 28.6434 24.1636C28.0735 24.9022 27.3978 25.6471 26.6353 26.3777C26.6352 26.3778 26.635 26.378 26.6349 26.3781C25.9559 27.0295 25.1691 27.6708 24.2964 28.284C24.2962 28.2842 24.296 28.2844 24.2957 28.2846C24.2956 28.2846 24.2956 28.2847 24.2955 28.2847C23.5137 28.8348 22.6236 29.3571 21.6499 29.8372C21.3807 29.9699 21.2701 30.2957 21.4028 30.5648C21.4974 30.7567 21.6901 30.868 21.8905 30.868C21.9712 30.868 22.0531 30.8499 22.1304 30.8118C23.1542 30.3069 24.0929 29.7558 24.9203 29.1736C24.9206 29.1734 24.9209 29.1733 24.9211 29.1731C25.8391 28.5279 26.669 27.8511 27.3878 27.1615C27.388 27.1613 27.3881 27.1611 27.3883 27.1609C28.1893 26.3933 28.901 25.6082 29.5036 24.8273C29.5036 24.8273 29.5036 24.8273 29.5037 24.8272C29.5038 24.8271 29.5038 24.8271 29.5039 24.827C30.1797 23.9522 30.7652 23.0743 31.2441 22.2178C31.2444 22.2173 31.2446 22.2167 31.2449 22.2161C31.7845 21.2523 32.2341 20.2995 32.5813 19.3843C32.5813 19.3842 32.5813 19.3842 32.5813 19.3841C32.5813 19.384 32.5814 19.384 32.5814 19.3839C32.9756 18.347 33.2812 17.3345 33.4901 16.3744C33.4902 16.3742 33.4903 16.3741 33.4904 16.3739C33.7289 15.28 33.8817 14.2241 33.9444 13.2352C33.9445 13.2344 33.9444 13.2337 33.9444 13.233C34.0155 12.1235 34.0074 11.0625 33.9216 10.0775Z" fill="#F7BC14"/>
<path d="M14.913 20.814C13.3467 20.8141 11.8201 20.2591 10.6053 19.2254C9.10664 17.95 8.24707 16.0903 8.24707 14.123V12.2859C8.24707 12.0735 8.3299 11.8738 8.48023 11.7239C8.63006 11.5745 8.82905 11.4922 9.04055 11.4922C9.04125 11.4922 9.04195 11.4922 9.04266 11.4922L13.8526 11.5027C14.1526 11.5034 14.3953 11.7471 14.3947 12.0472C14.394 12.3468 14.1509 12.5893 13.8515 12.5893C13.851 12.5893 13.8506 12.5893 13.8502 12.5893L9.33368 12.5794L9.33361 14.1229C9.33361 15.7711 10.0537 17.3292 11.3094 18.3977C12.5554 19.458 14.1935 19.9167 15.8027 19.6556C15.8585 19.6465 15.9147 19.637 15.9715 19.6271C16.2673 19.5759 16.5486 19.773 16.6003 20.0686C16.6521 20.3641 16.4544 20.6457 16.1589 20.6974C16.0977 20.7081 16.0368 20.7185 15.9766 20.7282C15.6223 20.7857 15.2665 20.814 14.913 20.814Z" fill="#FFB125"/>
<path d="M21.0873 20.8139C20.7336 20.8139 20.3781 20.7857 20.0236 20.7282C19.9633 20.7185 19.9025 20.7081 19.8413 20.6974C19.5457 20.6457 19.3481 20.3641 19.3998 20.0686C19.4516 19.773 19.7335 19.5757 20.0287 19.6271C20.0854 19.6371 20.1416 19.6466 20.1975 19.6556C21.8071 19.9165 23.4448 19.458 24.6908 18.3977C25.9464 17.3293 26.6666 15.7711 26.6666 14.1229V12.5794L22.15 12.5893C22.1496 12.5893 22.1492 12.5893 22.1488 12.5893C21.8493 12.5893 21.6062 12.3469 21.6055 12.0472C21.6048 11.7471 21.8476 11.5034 22.1476 11.5027L26.9578 11.4922C26.9585 11.4922 26.9592 11.4922 26.9599 11.4922C27.1713 11.4922 27.3702 11.5744 27.5201 11.7239C27.6704 11.8739 27.7532 12.0735 27.7532 12.2859V14.123C27.7532 16.0903 26.8937 17.95 25.395 19.2254C24.1802 20.259 22.6535 20.8139 21.0873 20.8139Z" fill="#FFB125"/>
<path d="M14.4277 28.6868H21.5721C18.6127 24.934 18.9215 19.5254 18.9215 19.5254H18H17.0784C17.0784 19.5255 17.3872 24.934 14.4277 28.6868Z" fill="#FED130"/>
<path d="M18.9215 19.5254H17.9999H17.0784C17.0784 19.5254 17.1262 20.3651 17.0032 21.6123C16.7688 23.9897 17.3585 26.3879 18.7498 28.3297C18.8362 28.4502 18.9256 28.5693 19.0182 28.6868H21.5722C18.6127 24.934 18.9215 19.5254 18.9215 19.5254Z" fill="#F7BC14"/>
<path d="M12.6104 9.93555V14.6754C12.6104 17.4796 13.9431 20.1169 16.2008 21.7802C17.2705 22.5682 18.7287 22.5682 19.7984 21.7802C22.0561 20.1169 23.3888 17.4796 23.3888 14.6754V9.93555H12.6104Z" fill="#FED130"/>
<path d="M20.8231 9.93555V14.6754C20.8231 17.4796 19.4903 20.1169 17.2326 21.7802C17.0689 21.9008 16.896 22.0028 16.7168 22.0865C17.7081 22.5496 18.8926 22.4477 19.7986 21.7802C22.0563 20.1169 23.389 17.4796 23.389 14.6754V9.93555H20.8231Z" fill="#F7BC14"/>
<path d="M23.775 10.675H12.2244C12.0503 10.675 11.9092 10.5338 11.9092 10.3598V9.05349C11.9092 8.8794 12.0503 8.73828 12.2244 8.73828H23.775C23.9491 8.73828 24.0903 8.8794 24.0903 9.05349V10.3598C24.0902 10.5338 23.9491 10.675 23.775 10.675Z" fill="#FFB125"/>
<path d="M23.7743 8.73828H21.5234V10.6749H23.7743C23.9484 10.6749 24.0894 10.5338 24.0894 10.3597V9.05342C24.0894 8.8794 23.9483 8.73828 23.7743 8.73828Z" fill="#FF901D"/>
<path d="M24.1286 30.9769H11.9195C11.7425 30.9769 11.6197 30.8007 11.681 30.6347L12.5877 28.1779C12.6245 28.078 12.7197 28.0117 12.8262 28.0117H23.2219C23.3283 28.0117 23.4235 28.078 23.4604 28.1779L24.3671 30.6347C24.4284 30.8007 24.3055 30.9769 24.1286 30.9769Z" fill="#FFB125"/>
<path d="M24.3661 30.6347L23.4594 28.1779C23.4225 28.078 23.3274 28.0117 23.2209 28.0117H20.7412L21.8356 30.9769H24.1275C24.3045 30.9769 24.4273 30.8007 24.3661 30.6347Z" fill="#FF901D"/>
</g>
<defs>
<clipPath id="clip0">
<rect width="36" height="36" fill="white"/>
</clipPath>
</defs>
</svg>
