<svg width="16" height="17" viewBox="0 0 16 17" fill="none" xmlns="http://www.w3.org/2000/svg">
<path d="M3.33337 11.8333H2.66671C2.31309 11.8333 1.97395 11.6929 1.7239 11.4428C1.47385 11.1928 1.33337 10.8536 1.33337 10.5V3.83333C1.33337 3.47971 1.47385 3.14057 1.7239 2.89052C1.97395 2.64048 2.31309 2.5 2.66671 2.5H13.3334C13.687 2.5 14.0261 2.64048 14.2762 2.89052C14.5262 3.14057 14.6667 3.47971 14.6667 3.83333V10.5C14.6667 10.8536 14.5262 11.1928 14.2762 11.4428C14.0261 11.6929 13.687 11.8333 13.3334 11.8333H12.6667" stroke="#FF9800" stroke-width="1.5" stroke-linecap="round" stroke-linejoin="round"/>
<path d="M7.99996 10.5L11.3333 14.5H4.66663L7.99996 10.5Z" stroke="#FF9800" stroke-width="1.5" stroke-linecap="round" stroke-linejoin="round"/>
</svg>
