<svg width="36" height="36" viewBox="0 0 36 36" fill="none" xmlns="http://www.w3.org/2000/svg">
<g clip-path="url(#clip0)">
<path d="M9.56677 8.51051H18.5706C19.0367 8.51051 19.4148 8.13242 19.4148 7.66639C19.4148 7.20018 19.0367 6.82227 18.5706 6.82227H9.56677C9.10057 6.82227 8.72266 7.20018 8.72266 7.66639C8.72266 8.13259 9.10057 8.51051 9.56677 8.51051Z" fill="#B0BAC9"/>
<path d="M9.56678 12.6746H21.8347C22.3007 12.6746 22.6788 12.2967 22.6788 11.8304C22.6788 11.3643 22.3007 10.9863 21.8347 10.9863H9.56678C9.10057 10.9863 8.72266 11.3643 8.72266 11.8304C8.72266 12.2967 9.10057 12.6746 9.56678 12.6746Z" fill="#B0BAC9"/>
<path d="M6.14173 2.53236H25.2598V15.7659C25.593 15.8622 25.8791 16.0064 26.113 16.1375C26.5087 15.9155 27.0529 15.6552 27.7246 15.6552C27.7474 15.6552 27.7696 15.6571 27.7922 15.6577V2.53236C27.7922 1.13382 26.6584 0 25.2598 0H6.14173C4.7432 0 3.60938 1.13382 3.60938 2.53236V30.7507C3.60938 32.1492 4.7432 33.283 6.14173 33.283H21.4765V30.7507H6.14173V2.53236Z" fill="#B0BAC9"/>
<path d="M31.6897 22.0307C31.5013 21.8629 31.2872 21.6727 31.2405 21.5281C31.1892 21.3701 31.2489 21.093 31.3062 20.8248C31.3966 20.4045 31.4989 19.9283 31.239 19.571C30.9769 19.2105 30.4891 19.1611 30.059 19.1175C29.8009 19.0912 29.5086 19.0617 29.3781 18.9665C29.2505 18.8736 29.1337 18.6074 29.0307 18.3726C28.8557 17.9737 28.6575 17.5218 28.228 17.3824C28.149 17.3568 28.0649 17.3438 27.9782 17.3438C27.6494 17.3438 27.3339 17.5269 27.0289 17.7042C26.7882 17.844 26.5392 17.9885 26.3666 17.9885C26.1938 17.9885 25.9451 17.844 25.7042 17.7042C25.3992 17.5269 25.0836 17.3438 24.7549 17.3438C24.6682 17.3438 24.5843 17.3568 24.5051 17.3824C24.0758 17.5218 23.8772 17.9738 23.7022 18.3726C23.5991 18.6074 23.4824 18.8738 23.355 18.9665C23.2241 19.0617 22.9317 19.0913 22.6741 19.1175C22.2439 19.1611 21.7563 19.2106 21.494 19.571C21.234 19.9281 21.3364 20.4044 21.4268 20.8248C21.4843 21.093 21.544 21.3702 21.4925 21.5282C21.4457 21.6727 21.2318 21.8629 21.0433 22.0307C20.7153 22.3225 20.3438 22.6531 20.3438 23.112C20.3438 23.5707 20.7153 23.9014 21.0433 24.1931C21.2318 24.3608 21.4457 24.5511 21.4927 24.6957C21.5438 24.8536 21.4844 25.1309 21.4268 25.399C21.3364 25.8193 21.234 26.2956 21.494 26.6528C21.7563 27.0133 22.244 27.0627 22.6741 27.1064C22.932 27.1327 23.2243 27.1621 23.355 27.2574C23.4826 27.3503 23.5993 27.6164 23.7023 27.8514C23.8772 28.2501 24.0758 28.702 24.5051 28.8414C24.5843 28.8672 24.6683 28.88 24.755 28.88C25.0836 28.88 25.3992 28.6968 25.7042 28.5197C25.9449 28.3799 26.1938 28.2353 26.3666 28.2353C26.5392 28.2353 26.7882 28.3798 27.0289 28.5197C27.3339 28.6968 27.6495 28.88 27.9782 28.88C28.0649 28.88 28.149 28.867 28.2282 28.8414C28.6573 28.702 28.8557 28.25 29.0306 27.8513C29.1338 27.6164 29.2505 27.35 29.3781 27.2574C29.5089 27.1621 29.8012 27.1325 30.059 27.1063C30.4893 27.0627 30.9768 27.0132 31.239 26.6528C31.4989 26.2956 31.3966 25.8193 31.3062 25.399C31.2487 25.1309 31.189 24.8536 31.2406 24.6957C31.2875 24.5511 31.5013 24.3608 31.6897 24.193C32.0178 23.9014 32.3892 23.5707 32.3892 23.112C32.3892 22.6531 32.0177 22.3225 31.6897 22.0307ZM26.3665 25.3041C25.1556 25.3041 24.1742 24.3226 24.1742 23.1118C24.1742 21.9011 25.1556 20.9196 26.3665 20.9196C27.5771 20.9196 28.5585 21.9011 28.5585 23.1118C28.5585 24.3226 27.5771 25.3041 26.3665 25.3041Z" fill="#B0BAC9"/>
<path d="M28.4258 29.453C28.2825 29.4996 28.1317 29.5232 27.9775 29.5232C27.4757 29.5232 27.0486 29.2752 26.7056 29.0759C26.6083 29.0193 26.457 28.9315 26.366 28.8918C26.2748 28.9315 26.1236 29.0194 26.0262 29.0759C25.6833 29.275 25.2561 29.5232 24.7546 29.5232C24.6003 29.5232 24.4495 29.4996 24.3061 29.4531C23.8823 29.3155 23.6114 29.0269 23.418 28.7163V35.6539C23.418 35.7916 23.4994 35.9161 23.6254 35.9716C23.7511 36.0268 23.898 36.0024 23.9997 35.9093L26.3663 33.7331L28.7328 35.9093C28.7979 35.9694 28.8822 36.0009 28.9677 36.0009C29.0147 36.0009 29.0622 35.9913 29.1068 35.9716C29.2329 35.9163 29.3142 35.7916 29.3142 35.6539V28.7129C29.12 29.0225 28.8458 29.3168 28.4258 29.453Z" fill="#B0BAC9"/>
</g>
<defs>
<clipPath id="clip0">
<rect width="36" height="36" fill="white"/>
</clipPath>
</defs>
</svg>
