<svg width="14" height="14" viewBox="0 0 14 14" fill="none" xmlns="http://www.w3.org/2000/svg">
<g clip-path="url(#clip0)">
<path d="M10.2034 3.34251H12.0219L9.24414 0.427734V2.38698C9.24414 2.91666 9.67 3.34251 10.2034 3.34251Z" fill="white"/>
<path d="M8.65035 2.38843V-0.0263672H2.96146C2.22435 -0.0263672 1.61328 0.58107 1.61328 1.31807V12.6292C1.61328 13.3663 2.22435 13.9736 2.96146 13.9736H11.08C11.817 13.9736 12.4281 13.3662 12.4281 12.6292V3.93655H10.2021C9.34291 3.93655 8.65035 3.24399 8.65035 2.38843ZM4.65036 7.21439C4.76881 7.1033 4.95776 7.11067 5.06885 7.22923L6.72443 9.007V4.77737C6.72443 4.61438 6.85773 4.48108 7.02072 4.48108C7.18372 4.48108 7.31702 4.61438 7.31702 4.77737V9.01064L8.9726 7.23287C9.08368 7.11441 9.27263 7.10693 9.39108 7.21802C9.50964 7.32921 9.51701 7.51805 9.40593 7.63661L7.23552 9.96628C7.17998 10.0255 7.10222 10.0588 7.01698 10.0588C6.93186 10.0588 6.85773 10.0255 6.79855 9.96628L4.62814 7.63661C4.52443 7.51431 4.5318 7.32921 4.65036 7.21439ZM10.3651 11.7144C10.3651 11.8774 10.2318 12.0107 10.0688 12.0107H3.97253C3.80954 12.0107 3.67624 11.8774 3.67624 11.7144C3.67624 11.5514 3.80954 11.4181 3.97253 11.4181H10.0725C10.2355 11.4181 10.3651 11.5515 10.3651 11.7144Z" fill="white"/>
</g>
<defs>
<clipPath id="clip0">
<path d="M0 0H14V14H0V0Z" fill="white"/>
</clipPath>
</defs>
</svg>
