<svg width="24" height="24" viewBox="0 0 24 24" fill="none" xmlns="http://www.w3.org/2000/svg">
    <path d="M19 9C17.9 9 17 9.9 17 11C17 12.1 17.9 13 19 13C20.1 13 21 12.1 21 11C21 9.9 20.1 9 19 9ZM19 11.5C18.7 11.5 18.5 11.3 18.5 11C18.5 10.75 18.7 10.5 19 10.5C19.3 10.5 19.5 10.7 19.5 11C19.5 11.25 19.3 11.5 19 11.5Z" fill="#FF9800"/>
    <path d="M11.3 8.6C12.018 8.6 12.6 8.01797 12.6 7.3C12.6 6.58203 12.018 6 11.3 6C10.582 6 10 6.58203 10 7.3C10 8.01797 10.582 8.6 11.3 8.6Z" fill="#FF9800"/>
    <path fill-rule="evenodd" clip-rule="evenodd" d="M17.992 16.5107C17.3455 17.3695 16.5182 18.0841 15.562 18.6002C14.1599 19.3569 12.5533 19.6474 10.975 19.4296C9.39667 19.2119 7.92873 18.4972 6.78392 17.3891C5.6391 16.281 4.87689 14.8372 4.60778 13.2669C4.33866 11.6965 4.57661 10.0813 5.28715 8.65523C5.99769 7.22921 7.14389 6.0665 8.55961 5.33565C9.97533 4.6048 11.587 4.34378 13.161 4.59042C14.2346 4.75864 15.2526 5.15705 16.1481 5.75154L11.4444 10.4363C10.4642 11.4126 10.7475 13.0653 11.9968 13.6595L17.992 16.5107ZM19.9005 16.3108C20.0327 16.0684 19.9255 15.7693 19.6761 15.6507L12.6411 12.3049C12.3287 12.1563 12.2579 11.7432 12.503 11.4991L18.0225 6.00173C18.2182 5.80686 18.2197 5.48912 18.0143 5.30458C16.7215 4.14332 15.1171 3.37862 13.3933 3.1085C11.5044 2.81253 9.5704 3.12576 7.87153 4.00278C6.17266 4.8798 4.79722 6.27505 3.94458 7.98628C3.09193 9.69751 2.80639 11.6358 3.12933 13.5202C3.45227 15.4046 4.36692 17.1373 5.7407 18.4669C7.11448 19.7966 8.87601 20.6543 10.77 20.9156C12.6639 21.1769 14.5919 20.8282 16.2744 19.9202C17.8099 19.0916 19.0681 17.8362 19.9005 16.3108Z" fill="#FF9800"/>
</svg>
