<svg width="24" height="24" viewBox="0 0 24 24" fill="none" xmlns="http://www.w3.org/2000/svg">
<g clip-path="url(#clip0)">
<path d="M21.0972 12.595V12.6182C18.0928 10.8686 15.0912 12.0129 12.3503 13.0579L12.2729 13.0874C9.25348 14.2382 6.5368 15.2423 3.80469 13.3019V13.2936V13.2699V13.2462V13.2224V13.1987V13.175V13.1512V13.1275V13.1037V13.08V13.0562V13.0325V13.0088V12.985V12.9613V12.9375V12.9138V12.89V12.8663V12.8425V12.8188V12.795V12.7712V12.7475V12.7237V12.7V12.6762V12.6525V12.6287V12.6049V12.5812V12.5574V12.5336V12.5099V12.4861V12.4623V12.4386V12.4148V12.391V12.3673V12.3435V12.3197V12.2959V12.2722V12.2484V12.2246V12.2008V12.177V12.1533V12.1295V12.1057V12.0819V12.0581V12.0344V12.0106V11.9868V11.963V11.9392V11.9154V11.8916V11.8678V11.844V11.8203V11.7965V11.7727V11.7489V11.7251V11.7013V11.6775V11.6537V11.6299V11.6061V11.5823V11.5585V11.5347V11.5109V11.4871V11.4633V11.4395V11.4157V11.3919V11.3681V11.3442V11.3204V11.2966V11.2728V11.249V11.2252V11.2014V11.1776V11.1538V11.1299V11.1061V11.0823V11.0585V11.0347V11.0109V10.9871V10.9632V10.9394V10.9156V10.8918V10.868V10.8441V10.8203V10.7965V10.7727V10.7488V10.725V10.7012V10.6774V10.6535V10.6297V10.6059V10.582V10.5582V10.5344V10.5106V10.4867V10.4629V10.4391V10.4152V10.3914V10.3676V10.3437V10.3199V10.2961V10.2722V10.2484V10.2246V10.2007V10.1769V10.153V10.1292V10.1054V10.0815V10.0577V10.0338V10.01V9.98616V9.96231V9.93847V9.91463V9.89078V9.86694V9.84309V9.81925V9.7954V9.77156V9.74771V9.72386V9.70002V9.67617V9.65232V9.62847V9.60462V9.58078V9.55693V9.53308V9.50922V9.48537V9.46152V9.43767V9.41382V9.38997V9.36611V9.34226V9.31841V9.29455V9.2707V9.24685V9.22299V9.19913V9.17528V9.15142V9.12757V9.10371V9.07985V9.056V9.03214V9.00828V8.98442V8.96057V8.93671V8.91285V8.88899V8.86513V8.84127V8.81741V8.79355V8.76969V8.74583V8.72197V8.69811V8.67425V8.65039V8.62652V8.60266V8.5788V8.55494V8.53108V8.50721V8.48335V8.45949V8.43562V8.41176V8.3879V8.36403V8.34017V8.3163V8.29244V8.26857V8.24471V8.22085V8.19698V8.17311V8.14925V8.12538V8.10152V8.07765V8.05379V8.02992V8.00606V7.98219V7.95832V7.93446V7.91059V7.88672V7.86286V7.83899V7.81512V7.79126V7.76739V7.74352V7.71966V7.69579V7.67192V7.64806V7.62419V7.60032V7.57645V7.55259V7.52872V7.50485V7.48099V7.45712V7.43325V7.40938V7.38552V7.36165V7.33778V7.31392V7.29005V7.26618V7.24231V7.21845V7.19458V7.17071V7.14685V7.12298V7.09911V7.07525V7.05138V7.02751V7.00365V6.97978V6.95591V6.93205V6.90818V6.88432V6.86045V6.83658V6.81272V6.78885V6.76499V6.74112V6.71726V6.69339V6.66953V6.64566V6.6218V6.59793V6.57407V6.55021V6.52634V6.50248V6.47861V6.45475V6.43089V6.40702V6.38316V6.3593V6.33544V6.31157V6.28771V6.26385V6.23999V6.21613V6.19227V6.16841V6.14455V6.12069V6.09683V6.07297V6.04911V6.02525V6.00139V5.97753V5.95367V5.92981V5.90595V5.8821V5.85824V5.83438V5.81053V5.78667V5.76281V5.73896V5.7151V5.69125V5.66739V5.64354V5.61968V5.59583V5.57198V5.54812V5.52427V5.50042V5.47657V5.45271V5.42886V5.40501V5.38116V5.35731V5.33346V5.30961V5.28576V5.26192V5.23807V5.21422V5.19037V5.16653V5.14268V5.11883V5.09499V5.07114V5.0473V5.02345V4.99961V4.97577V4.95192V4.92808V4.90424V4.8804V4.85656V4.83272V4.80888V4.78504V4.7612V4.73736V4.71352V4.68968V4.66585V4.64201V4.61818V4.59434V4.57051V4.54667V4.52284V4.499V4.47517V4.45134V4.42751V4.40368V4.37985V4.35602V4.33219V4.30836V4.28453V4.2607V4.23688V4.21305V4.18923V4.1654V4.14158V4.11775V4.09393V4.07011V4.04629V4.02246V3.99864V3.97482V3.951V3.92719V3.90337V3.87955V3.85573V3.83192V3.8081V3.78429V3.76047V3.73666V3.71285V3.68904V3.66523V3.64142V3.61761V3.5938V3.56999V3.54618V3.52238V3.49857V3.47476V3.45096V3.42716V3.40335V3.37955V3.35575V3.33195V3.30815V3.28435V3.26055V3.23675V3.21296V3.18916V3.16537V3.14157V3.11778V3.09398V3.07019V3.0464V3.02261V2.99882V2.97503V2.95125V2.92746V2.90367V2.87989V2.8561V2.83232V2.80854V2.78475V2.76097V2.73719V2.71341V2.68964V2.66586V2.64208V2.61831V2.59453V2.57076V2.54699V2.52321V2.49944V2.47567V2.4519V2.42814V2.40437V2.3806V2.35684V2.33307V2.30931V2.29606C6.80911 4.04561 9.81064 2.9013 12.5516 1.85634C12.5774 1.84649 12.6032 1.83665 12.629 1.82682C15.6484 0.675999 18.3651 -0.328029 21.0972 1.61232V1.62054V1.64426V1.66798V1.6917V1.71542V1.73914V1.76287V1.78659V1.81031V1.83403V1.85775V1.88147V1.90519V1.92891V1.95264V1.97636V2.00008V2.0238V2.04752V2.07124V2.09497V2.11869V2.14241V2.16613V2.18985V2.21358V2.2373V2.26102V2.28474V2.30846V2.33219V2.35591V2.37963V2.40336V2.42708V2.4508V2.47452V2.49825V2.52197V2.54569V2.56942V2.59314V2.61687V2.64059V2.66431V2.68804V2.71176V2.73549V2.75921V2.78294V2.80666V2.83039V2.85411V2.87784V2.90156V2.92529V2.94901V2.97274V2.99646V3.02019V3.04392V3.06764V3.09137V3.1151V3.13882V3.16255V3.18628V3.21001V3.23373V3.25746V3.28119V3.30492V3.32865V3.35237V3.3761V3.39983V3.42356V3.44729V3.47102V3.49475V3.51848V3.54221V3.56594V3.58967V3.6134V3.63713V3.66086V3.68459V3.70833V3.73206V3.75579V3.77952V3.80325V3.82699V3.85072V3.87445V3.89819V3.92192V3.94565V3.96939V3.99312V4.01686V4.04059V4.06433V4.08806V4.1118V4.13553V4.15927V4.18301V4.20674V4.23048V4.25422V4.27796V4.30169V4.32543V4.34917V4.37291V4.39665V4.42039V4.44413V4.46787V4.49161V4.51535V4.53909V4.56283V4.58657V4.61031V4.63405V4.65779V4.68154V4.70528V4.72902V4.75277V4.77651V4.80025V4.824V4.84774V4.87149V4.89523V4.91898V4.94273V4.96647V4.99022V5.01397V5.03771V5.06146V5.08521V5.10896V5.13271V5.15646V5.1802V5.20395V5.22771V5.25146V5.27521V5.29896V5.32271V5.34646V5.37021V5.39397V5.41772V5.44147V5.46523V5.48898V5.51274V5.53649V5.56025V5.584V5.60776V5.63152V5.65527V5.67903V5.70279V5.72655V5.75031V5.77407V5.79783V5.82159V5.84535V5.86911V5.89287V5.91663V5.94039V5.96415V5.98792V6.01168V6.03545V6.05921V6.08297V6.10674V6.13051V6.15427V6.17804V6.2018V6.22557V6.24934V6.27311V6.29688V6.32065V6.34442V6.36819V6.39196V6.41573V6.4395V6.46327V6.48705V6.51082V6.53459V6.55837V6.58214V6.60592V6.62969V6.65347V6.67724V6.70102V6.7248V6.74858V6.77236V6.79613V6.81991V6.84369V6.86747V6.89126V6.91504V6.93882V6.9626V6.98639V7.01017V7.03395V7.05774V7.08152V7.10531V7.1291V7.15288V7.17667V7.20046V7.22425V7.24804V7.27183V7.29562V7.31941V7.3432V7.36699V7.39078V7.41458V7.43837V7.46216V7.48596V7.50975V7.53355V7.55735V7.58114V7.60494V7.62874V7.65254V7.67634V7.70014V7.72394V7.74774V7.77154V7.79535V7.81915V7.84295V7.86676V7.89056V7.91437V7.93817V7.96198V7.98579V8.0096V8.0334V8.05721V8.08102V8.10483V8.12864V8.15246V8.17627V8.20008V8.2239V8.24771V8.27153V8.29534V8.31916V8.34297V8.36679V8.39061V8.41443V8.43825V8.46207V8.48589V8.50971V8.53354V8.55736V8.58118V8.60501V8.62883V8.65266V8.67648V8.70031V8.72414V8.74797V8.7718V8.79563V8.81946V8.84329V8.86712V8.89095V8.91479V8.93862V8.96245V8.98629V9.01013V9.03396V9.0578V9.08164V9.10548V9.12932V9.15316V9.177V9.20084V9.22468V9.24853V9.27237V9.29622V9.32006V9.34391V9.36776V9.39161V9.41545V9.4393V9.46315V9.48701V9.51086V9.53471V9.55856V9.58242V9.60627V9.63013V9.65398V9.67784V9.7017V9.72556V9.74942V9.77328V9.79714V9.821V9.84486V9.86873V9.89259V9.91646V9.94032V9.96419V9.98806V10.0119V10.0358V10.0597V10.0835V10.1074V10.1313V10.1552V10.179V10.2029V10.2268V10.2507V10.2745V10.2984V10.3223V10.3462V10.3701V10.3939V10.4178V10.4417V10.4656V10.4895V10.5134V10.5372V10.5611V10.585V10.6089V10.6328V10.6567V10.6806V10.7045V10.7284V10.7523V10.7762V10.8001V10.8239V10.8478V10.8717V10.8956V10.9195V10.9434V10.9674V10.9913V11.0152V11.0391V11.063V11.0869V11.1108V11.1347V11.1586V11.1825V11.2064V11.2303V11.2543V11.2782V11.3021V11.326V11.3499V11.3738V11.3978V11.4217V11.4456V11.4695V11.4934V11.5174V11.5413V11.5652V11.5891V11.6131V11.637V11.6609V11.6849V11.7088V11.7327V11.7567V11.7806V11.8045V11.8285V11.8524V11.8763V11.9003V11.9242V11.9482V11.9721V11.9961V12.02V12.0439V12.0679V12.0918V12.1158V12.1397V12.1637V12.1876V12.2116V12.2355V12.2595V12.2835V12.3074V12.3314V12.3553V12.3793V12.4032V12.4272V12.4512V12.4751V12.4991V12.5231V12.547V12.571V12.595Z" fill="white" stroke="#282F4A"/>
<path d="M6.35346 5.70637C5.35388 5.55643 4.30431 5.20656 3.30469 4.40692C3.30469 3.40734 3.30469 2.35778 3.30469 1.35815C4.30426 2.10785 5.35384 2.50767 6.35346 2.65761C6.35346 3.65723 6.35346 4.6568 6.35346 5.70637Z" fill="#282F4A"/>
<path d="M9.40033 8.45624C8.40075 8.70612 7.35118 8.85606 6.35156 8.70612C6.35156 7.70655 6.35156 6.65698 6.35156 5.65735C7.35114 5.80729 8.40071 5.65735 9.40033 5.40747C9.40033 6.45704 9.40033 7.45662 9.40033 8.45624Z" fill="#282F4A"/>
<path d="M6.35346 11.8038C5.35388 11.6538 4.30431 11.304 3.30469 10.5043C3.30469 9.50476 3.30469 8.45519 3.30469 7.45557C4.30426 8.20526 5.35384 8.60508 6.35346 8.75502C6.35346 9.75464 6.35346 10.7542 6.35346 11.8038Z" fill="#282F4A"/>
<path d="M9.40033 14.5539C8.40075 14.8038 7.35118 14.9537 6.35156 14.8038C6.35156 13.8042 6.35156 12.7546 6.35156 11.755C7.35114 11.9049 8.40071 11.755 9.40033 11.5051C9.40033 12.5547 9.40033 13.5543 9.40033 14.5539Z" fill="#282F4A"/>
<path d="M12.4511 4.40692C11.4515 4.80674 10.402 5.15661 9.40234 5.45649C9.40234 4.45691 9.40234 3.40735 9.40234 2.40772C10.4019 2.15784 11.4515 1.75797 12.4511 1.35815C12.4511 2.35773 12.4511 3.35735 12.4511 4.40692Z" fill="#282F4A"/>
<path d="M15.5019 6.40741C14.5023 6.65729 13.4527 7.05716 12.4531 7.45698C12.4531 6.45741 12.4531 5.40784 12.4531 4.40821C13.4527 4.00839 14.5023 3.60852 15.5019 3.35864C15.5019 4.40826 15.5019 5.40784 15.5019 6.40741Z" fill="#282F4A"/>
<path d="M12.4511 10.5043C11.4515 10.9042 10.402 11.254 9.40234 11.5539C9.40234 10.5543 9.40234 9.50476 9.40234 8.50514C10.4019 8.25525 11.4515 7.85539 12.4511 7.45557C12.4511 8.45519 12.4511 9.45476 12.4511 10.5043Z" fill="#282F4A"/>
<path d="M15.5019 12.5051C14.5023 12.7549 13.4527 13.1548 12.4531 13.5546C12.4531 12.5551 12.4531 11.5055 12.4531 10.5059C13.4527 10.106 14.5023 9.75618 15.5019 9.4563C15.5019 10.5059 15.5019 11.5054 15.5019 12.5051Z" fill="#282F4A"/>
<path d="M18.5488 3.10786C17.5492 2.95792 16.4996 3.10786 15.5 3.35774C15.5 2.35816 15.5 1.30859 15.5 0.308972C16.4996 0.0590903 17.5491 -0.0908482 18.5488 0.0590903C18.5488 1.05871 18.5488 2.10828 18.5488 3.10786Z" fill="#282F4A"/>
<path d="M21.5995 7.45686C20.6 6.70717 19.5504 6.30735 18.5508 6.15741C18.5508 5.15783 18.5508 4.10826 18.5508 3.10864C19.5504 3.25858 20.5999 3.60845 21.5995 4.40809C21.5995 5.40772 21.5995 6.40729 21.5995 7.45686Z" fill="#282F4A"/>
<path d="M18.5488 9.20503C17.5492 9.05509 16.4996 9.20503 15.5 9.45491C15.5 8.45533 15.5 7.40576 15.5 6.40614C16.4996 6.15626 17.5491 6.00632 18.5488 6.15626C18.5488 7.15583 18.5488 8.20541 18.5488 9.20503Z" fill="#282F4A"/>
<path d="M21.5995 13.5526C20.6 12.8029 19.5504 12.403 18.5508 12.2531C18.5508 11.2535 18.5508 10.204 18.5508 9.20435C19.5504 9.35428 20.5999 9.70415 21.5995 10.5038C21.5995 11.5034 21.5995 12.503 21.5995 13.5526Z" fill="#282F4A"/>
<path d="M3.35197 23.9999H3.20203C2.75222 23.9999 2.40234 23.6501 2.40234 23.2002V0.809453C2.40234 0.359638 2.75222 0.00976562 3.20203 0.00976562H3.35197C3.80179 0.00976562 4.15166 0.359638 4.15166 0.809453V23.2003C4.15161 23.6501 3.80179 23.9999 3.35197 23.9999Z" fill="#282F4A"/>
</g>
<defs>
<clipPath id="clip0">
<path d="M0 0H24V24H0V0Z" fill="white"/>
</clipPath>
</defs>
</svg>
