<svg width="36" height="36" viewBox="0 0 36 36" fill="none" xmlns="http://www.w3.org/2000/svg">
<g clip-path="url(#clip0)">
<path d="M35.1255 12.4644L18.4167 6.76836C18.1463 6.67617 17.8537 6.67617 17.5833 6.76836L0.874536 12.4644C0.351642 12.6428 -0.000198584 13.1343 8.40903e-08 13.687C0.000198752 14.2398 0.352039 14.7312 0.875529 14.9092L7.37077 17.1185V23.85C7.37077 24.1718 7.49077 24.482 7.70752 24.7198C10.3609 27.6316 14.141 29.3016 18.078 29.3016C21.9762 29.3016 25.5981 27.7405 28.2762 24.9057C28.5029 24.6659 28.6288 24.3487 28.6288 24.0189V17.1285L31.3104 16.2122V19.459C31.0085 19.6955 30.8138 20.0624 30.8138 20.4754V23.6253C30.8138 24.3385 31.3919 24.9166 32.1051 24.9166C32.8183 24.9166 33.3965 24.3385 33.3965 23.6253V20.4754C33.3965 20.0622 33.2018 19.6953 32.8998 19.459V15.6693L35.1259 14.9088C35.6486 14.7302 35.9998 14.2387 35.9996 13.6864C35.9998 13.1339 35.6484 12.6426 35.1255 12.4644ZM26.0463 23.4898C23.9009 25.576 21.0908 26.7188 18.0782 26.7188C15.029 26.7188 12.0955 25.491 9.95346 23.3343V17.9971L17.6214 20.6052C17.7563 20.6511 17.8968 20.6739 18.0372 20.6739C18.1783 20.6739 18.3196 20.6509 18.4548 20.6046L26.0465 18.0108V23.4898H26.0463ZM18.0363 18.0183L5.29728 13.6852L17.9999 9.35481L30.7105 13.688L18.0363 18.0183Z" fill="#B0BAC9"/>
</g>
<defs>
<clipPath id="clip0">
<rect width="36" height="36" fill="white"/>
</clipPath>
</defs>
</svg>
