<svg width="14" height="14" viewBox="0 0 14 14" fill="none" xmlns="http://www.w3.org/2000/svg">
<path fill-rule="evenodd" clip-rule="evenodd" d="M7 14C10.866 14 14 10.866 14 7C14 3.13401 10.866 0 7 0C3.13401 0 0 3.13401 0 7C0 10.866 3.13401 14 7 14Z" fill="#CCCCCE"/>
<path d="M6.27734 8.24707C6.27734 7.81413 6.33105 7.46908 6.43848 7.21191C6.5459 6.95475 6.75749 6.67318 7.07324 6.36719C7.39225 6.05794 7.59408 5.83822 7.67871 5.70801C7.80892 5.50944 7.87402 5.2946 7.87402 5.06348C7.87402 4.75749 7.79753 4.52474 7.64453 4.36523C7.49479 4.20247 7.27344 4.12109 6.98047 4.12109C6.70052 4.12109 6.47428 4.20085 6.30176 4.36035C6.13249 4.5166 6.04785 4.72982 6.04785 5H4.86133C4.86784 4.42383 5.06315 3.9681 5.44727 3.63281C5.83464 3.29753 6.3457 3.12988 6.98047 3.12988C7.63477 3.12988 8.14421 3.2959 8.50879 3.62793C8.87663 3.95996 9.06055 4.42383 9.06055 5.01953C9.06055 5.55013 8.81315 6.07259 8.31836 6.58691L7.71777 7.17773C7.50293 7.42188 7.39225 7.77832 7.38574 8.24707H6.27734ZM6.19434 9.76562C6.19434 9.57357 6.25456 9.41895 6.375 9.30176C6.49544 9.18132 6.6582 9.12109 6.86328 9.12109C7.07161 9.12109 7.236 9.18294 7.35645 9.30664C7.47689 9.42708 7.53711 9.58008 7.53711 9.76562C7.53711 9.94466 7.47852 10.0944 7.36133 10.2148C7.24414 10.3353 7.07812 10.3955 6.86328 10.3955C6.64844 10.3955 6.48242 10.3353 6.36523 10.2148C6.2513 10.0944 6.19434 9.94466 6.19434 9.76562Z" fill="white"/>
</svg>
