<svg width="17" height="16" viewBox="0 0 17 16" fill="none" xmlns="http://www.w3.org/2000/svg">
<path d="M13.1667 7.33301H3.83333C3.09695 7.33301 2.5 7.92996 2.5 8.66634V13.333C2.5 14.0694 3.09695 14.6663 3.83333 14.6663H13.1667C13.903 14.6663 14.5 14.0694 14.5 13.333V8.66634C14.5 7.92996 13.903 7.33301 13.1667 7.33301Z" stroke="#F04848" stroke-width="1.5" stroke-linecap="round" stroke-linejoin="round"/>
<path d="M5.16663 7.33301V4.66634C5.16663 3.78229 5.51782 2.93444 6.14294 2.30932C6.76806 1.6842 7.6159 1.33301 8.49996 1.33301C9.38401 1.33301 10.2319 1.6842 10.857 2.30932C11.4821 2.93444 11.8333 3.78229 11.8333 4.66634V7.33301" stroke="#F04848" stroke-width="1.5" stroke-linecap="round" stroke-linejoin="round"/>
</svg>
