<svg width="25" height="25" viewBox="0 0 25 25" fill="none" xmlns="http://www.w3.org/2000/svg">
<g clip-path="url(#clip0)">
<path d="M7.98486 10.5293L2.74365 20.4039L7.50313 19.9642L9.80671 24.1527L15.0479 14.2781L7.98486 10.5293Z" fill="#E95454"/>
<path d="M8.5853 21.2779C8.73237 20.962 8.57855 20.5846 8.2709 20.421L7.96926 20.2604C7.66762 20.0886 7.55282 19.7067 7.71714 19.3975C7.88372 19.0831 8.27541 18.9631 8.5898 19.1297L9.4422 19.5821C9.70558 19.7217 10.0357 19.6204 10.1715 19.3555L10.1926 19.315C10.3486 19.0651 10.2563 18.735 9.99671 18.5977L7.44702 17.2448C7.13637 17.0797 6.98405 16.7038 7.12887 16.3871C7.28869 16.0502 7.69238 15.9174 8.01728 16.09L10.3824 17.3453C10.6458 17.4849 10.9759 17.3836 11.1155 17.1202L11.129 17.0857L11.1327 17.0782C11.2836 16.8021 11.1778 16.4554 10.8994 16.3076L9.57276 15.6038C9.26212 15.4387 9.1098 15.0628 9.25687 14.7424C9.41519 14.4092 9.82038 14.2726 10.1453 14.4452L11.6107 15.2233C11.8846 15.3689 12.2118 15.2473 12.3536 14.9712C12.3558 14.9675 12.3558 14.9675 12.3573 14.9637C12.3596 14.96 12.3596 14.96 12.3611 14.9562C12.5104 14.6838 12.4279 14.3447 12.1532 14.1999L10.5722 13.361C10.2653 13.1981 10.113 12.8222 10.2578 12.5056C10.4177 12.1687 10.8213 12.0358 11.1463 12.2084L15.0466 14.2786L9.80537 24.1533L8.36095 21.5278C8.45399 21.4648 8.53503 21.3867 8.5853 21.2779Z" fill="#ED6362"/>
<path d="M17.7886 10.5293L23.0299 20.4039L18.2704 19.9642L15.9668 24.1527L10.7256 14.2781L17.7886 10.5293Z" fill="#ED6362"/>
<path d="M17.1891 21.2791C17.042 20.9632 17.1958 20.5858 17.5035 20.4222L17.8051 20.2616C18.1068 20.0898 18.2216 19.7079 18.0572 19.3987C17.8907 19.0843 17.499 18.9643 17.1846 19.1309L16.3322 19.5833C16.0688 19.7229 15.7387 19.6216 15.6028 19.3567L15.5818 19.3162C15.4258 19.0663 15.518 18.7362 15.7777 18.5989L18.3281 17.2452C18.6388 17.0802 18.7911 16.7042 18.6463 16.3876C18.4864 16.0507 18.0827 15.9179 17.7578 16.0904L15.3927 17.3458C15.1294 17.4853 14.7992 17.384 14.6596 17.1207L14.6461 17.0862L14.6424 17.0787C14.4916 16.8025 14.5974 16.4559 14.8757 16.308L16.2024 15.6042C16.513 15.4391 16.6653 15.0632 16.5183 14.7428C16.3599 14.4097 15.9548 14.2731 15.6298 14.4457L14.1629 15.2253C13.889 15.3709 13.5619 15.2493 13.4201 14.9732C13.4178 14.9694 13.4178 14.9694 13.4163 14.9657C13.4141 14.9619 13.4141 14.9619 13.4126 14.9582C13.2632 14.6858 13.3458 14.3466 13.6204 14.2018L15.2014 13.3629C15.5083 13.2001 15.6606 12.8242 15.5158 12.5075C15.356 12.1706 14.9523 12.0378 14.6274 12.2104L10.7271 14.2806L15.9683 24.1552L17.4127 21.5297C17.3204 21.466 17.2394 21.3879 17.1891 21.2791Z" fill="#E95454"/>
<path d="M12.8872 17.669C17.7238 17.669 21.6446 13.7482 21.6446 8.91165C21.6446 4.0751 17.7238 0.154297 12.8872 0.154297C8.05068 0.154297 4.12988 4.0751 4.12988 8.91165C4.12988 13.7482 8.05068 17.669 12.8872 17.669Z" fill="#FFCC5B"/>
<path d="M14.0764 7.90782H8.52679C8.09533 7.90782 7.74117 7.55366 7.74117 7.12221L7.74717 7.06818V7.05618C7.74117 6.60071 8.11259 6.22854 8.56881 6.22854H12.4151C12.9246 6.22854 13.3748 5.85111 13.4048 5.34087C13.4288 4.80737 13.0034 4.35716 12.4691 4.35716H8.39472C7.94526 4.35716 7.60911 3.97973 7.61511 3.52952C7.61511 3.52352 7.61511 3.52352 7.61511 3.51752C7.61511 3.51151 7.61511 3.51151 7.61511 3.50551C7.60911 3.05605 7.94451 2.67787 8.39472 2.67787H12.6582C13.1617 2.67787 13.6119 2.30045 13.6419 1.79621C13.6659 1.25671 13.2405 0.8125 12.7062 0.8125L9.58403 0.8125C6.40029 2.12486 4.15674 5.25533 4.15674 8.91255C4.15674 12.5698 6.40029 15.6995 9.58478 17.0103H13.5489C14.0524 17.0103 14.5026 16.6329 14.5326 16.1287C14.5566 15.5892 14.1312 15.1457 13.5969 15.1457L9.0873 15.145C8.5553 15.145 8.12685 14.7 8.15536 14.1613C8.18162 13.657 8.63484 13.2781 9.13982 13.2781H10.8881C11.3909 13.2638 11.7968 12.8519 11.7968 12.3454C11.7968 11.8299 11.3774 11.4097 10.8611 11.4097H8.21089C7.77944 11.4097 7.42527 11.0563 7.43127 10.6241V10.5581C7.40126 10.1326 7.74342 9.77245 8.16887 9.77245H14.0224C14.5319 9.77245 14.9821 9.39502 15.0121 8.89079C15.0361 8.35203 14.6099 7.90782 14.0764 7.90782Z" fill="#FDBC4B"/>
<path d="M12.8859 15.1618C9.43883 15.1618 6.63477 12.357 6.63477 8.91059C6.63477 5.46422 9.43883 2.66016 12.8859 2.66016C16.3331 2.66016 19.1371 5.46497 19.1371 8.91134C19.1371 12.3577 16.3331 15.1618 12.8859 15.1618Z" fill="#FFDB70"/>
<path opacity="0.2" d="M19.1394 8.9109C19.1394 5.58535 16.5267 2.86532 13.2469 2.67773H12.6646C12.2804 2.67773 11.9375 2.96587 11.9143 3.35005C11.8962 3.76124 12.2204 4.1004 12.6278 4.1004L16.0674 4.10115C16.4734 4.10115 16.7998 4.44031 16.778 4.8515C16.7578 5.23643 16.4126 5.52532 16.0269 5.52532H14.6936C14.3101 5.53657 14.0002 5.85022 14.0002 6.23665C14.0002 6.62984 14.3206 6.95024 14.7138 6.95024H16.7353C17.0647 6.95024 17.334 7.22036 17.3295 7.54902V7.59854C17.352 7.92344 17.0917 8.19732 16.7668 8.19732H12.3029C11.9142 8.19732 11.5713 8.48546 11.5481 8.86964C11.5301 9.28083 11.8542 9.61999 12.2617 9.61999H16.4936C16.823 9.61999 17.0924 9.89011 17.0924 10.2188L17.0879 10.26V10.269C17.0924 10.6165 16.8088 10.9001 16.4614 10.9001H13.5275C13.1388 10.9001 12.7959 11.1882 12.7727 11.5769C12.7546 11.9836 13.0788 12.3273 13.4862 12.3273H16.5934C16.9363 12.3273 17.1922 12.6154 17.1877 12.9583C17.1877 12.9628 17.1877 12.9628 17.1877 12.9673C17.1877 12.9718 17.1877 12.9718 17.1877 12.9763C17.1922 13.3192 16.9363 13.6074 16.5934 13.6074H13.3422C12.958 13.6074 12.6151 13.8955 12.5918 14.2797C12.5738 14.6916 12.898 15.03 13.3054 15.03H14.1631C17.0016 14.4387 19.1394 11.9198 19.1394 8.9109Z" fill="white"/>
<path d="M17.2517 7.52785H14.2112L13.271 4.63599C13.1502 4.26457 12.6242 4.26457 12.5034 4.63599L11.564 7.52785H8.52357C8.13264 7.52785 7.96981 8.02833 8.28646 8.25794L10.7461 10.0453L9.80667 12.9371C9.68587 13.3086 10.1113 13.6177 10.428 13.3881L12.8876 11.6008L15.3473 13.3881C15.6639 13.6177 16.0894 13.3086 15.9686 12.9371L15.0291 10.0453L17.4888 8.25794C17.8047 8.02833 17.6426 7.52785 17.2517 7.52785Z" fill="#EC9922"/>
</g>
<defs>
<clipPath id="clip0">
<rect x="0.887695" y="0.154297" width="24" height="24" fill="white"/>
</clipPath>
</defs>
</svg>
