<svg width="24" height="24" viewBox="0 0 24 24" fill="none" xmlns="http://www.w3.org/2000/svg">
    <path d="M12 2.67188C10.3341 2.67188 9.00138 3.86799 9.00138 5.33731V7.33639H6.00276C5.83751 7.33548 5.67782 7.396 5.55468 7.50621C5.43155 7.61642 5.35375 7.76845 5.3364 7.93279L4.00368 20.5936C3.99384 20.6868 4.00377 20.7811 4.03282 20.8702C4.06188 20.9593 4.1094 21.0412 4.17228 21.1107C4.23517 21.1802 4.31201 21.2357 4.39778 21.2734C4.48355 21.3112 4.57633 21.3305 4.67004 21.33H19.33C19.4237 21.3305 19.5165 21.3112 19.6022 21.2734C19.688 21.2357 19.7648 21.1802 19.8277 21.1107C19.8906 21.0412 19.9381 20.9593 19.9672 20.8702C19.9962 20.7811 20.0062 20.6868 19.9963 20.5936L18.6636 7.93279C18.6463 7.76845 18.5685 7.61642 18.4453 7.50621C18.3222 7.396 18.1625 7.33548 17.9972 7.33639H14.9986V5.33731C14.9986 3.86799 13.6659 2.67188 12 2.67188ZM10.3341 5.33731C10.3341 4.60099 11.0804 4.00459 12 4.00459C12.9196 4.00459 13.6659 4.60099 13.6659 5.33731V7.33639H10.3341V5.33731ZM17.3975 8.66911L18.5903 19.9972H5.4097L6.60249 8.66911H9.00138V10.0018C9.00138 10.1786 9.07159 10.3481 9.19656 10.473C9.32152 10.598 9.49101 10.6682 9.66774 10.6682C9.84447 10.6682 10.014 10.598 10.1389 10.473C10.2639 10.3481 10.3341 10.1786 10.3341 10.0018V8.66911H13.6659V10.0018C13.6659 10.1786 13.7361 10.3481 13.8611 10.473C13.986 10.598 14.1555 10.6682 14.3323 10.6682C14.509 10.6682 14.6785 10.598 14.8035 10.473C14.9284 10.3481 14.9986 10.1786 14.9986 10.0018V8.66911H17.3975Z" fill="#FF9800"/>
</svg>
