<svg width="144" height="96" viewBox="0 0 144 96" fill="none" xmlns="http://www.w3.org/2000/svg">
<path d="M113.097 84.9023H30.9023V48.4883H113.097V84.9023Z" fill="#E9E9ED"/>
<path d="M94.9141 66.697C94.9141 76.7516 103.056 84.9023 113.099 84.9023C123.142 84.9023 131.284 76.7516 131.284 66.697C131.284 56.6424 123.142 48.4917 113.099 48.4917C103.056 48.4917 94.9141 56.6424 94.9141 66.697Z" fill="#E9E9ED"/>
<path d="M12.7168 66.697C12.7168 76.7516 20.8585 84.9023 30.902 84.9023C40.945 84.9023 49.0868 76.7516 49.0868 66.697C49.0868 56.6424 40.945 48.4917 30.902 48.4917C20.8585 48.4917 12.7168 56.6424 12.7168 66.697Z" fill="#E9E9ED"/>
<path d="M84 48.4908C84 56.5343 90.5136 63.0547 98.5478 63.0547C106.583 63.0547 113.096 56.5343 113.096 48.4908C113.096 40.4472 106.583 33.9268 98.5478 33.9268C90.5136 33.9268 84 40.4472 84 48.4908Z" fill="#E9E9ED"/>
<path d="M33.1348 48.4906C33.1348 53.557 37.2373 57.6641 42.2981 57.6641C47.3589 57.6641 51.4618 53.557 51.4618 48.4906C51.4618 43.4242 47.3589 39.3171 42.2981 39.3171C37.2373 39.3171 33.1348 43.4242 33.1348 48.4906Z" fill="#E9E9ED"/>
<path d="M38.6562 38.2977C38.6562 53.3791 50.8686 65.6055 65.9338 65.6055C80.9986 65.6055 93.211 53.3791 93.211 38.2977C93.211 23.2162 80.9986 10.9899 65.9338 10.9899C50.8686 10.9899 38.6562 23.2162 38.6562 38.2977Z" fill="#E9E9ED"/>
<path d="M30.9018 87.4531C19.4693 87.4531 10.168 78.1419 10.168 66.6963C10.168 55.2639 19.449 45.9603 30.8645 45.9399C31.5437 42.8768 33.4263 40.2033 36.1071 38.5354C36.1062 38.4551 36.1058 38.3755 36.1058 38.2964C36.1058 21.8321 49.4859 8.43715 65.9321 8.43715C80.0029 8.43715 92.0203 18.2634 95.029 31.74C96.1801 31.4976 97.3568 31.3759 98.5496 31.3759C107.158 31.3759 114.301 37.7776 115.477 46.0755C125.793 47.2607 133.832 56.0566 133.832 66.6963C133.832 78.1419 124.53 87.4531 113.098 87.4531H30.9018Z" stroke="#FF9800" stroke-width="1.33333" stroke-miterlimit="10"/>
<path d="M81.5073 95.5547H62.4941V67.4032H81.5073V95.5547Z" fill="#FF9800"/>
<path d="M71.0941 51.7685L54.9873 70.8715C54.3361 71.6433 54.8841 72.8242 55.8929 72.8242H88.1073C89.1162 72.8242 89.6641 71.6433 89.0134 70.8715L72.9062 51.7685C72.4326 51.2067 71.5677 51.2067 71.0941 51.7685Z" fill="#FF9800"/>
</svg>
