<svg width="24" height="24" viewBox="0 0 24 24" fill="none" xmlns="http://www.w3.org/2000/svg">
<path d="M15.75 18.75V17.25C15.75 16.4544 15.4339 15.6913 14.8713 15.1287C14.3087 14.5661 13.5456 14.25 12.75 14.25H6.75C5.95435 14.25 5.19129 14.5661 4.62868 15.1287C4.06607 15.6913 3.75 16.4544 3.75 17.25V18.75" stroke="currentColor" stroke-width="1.5" stroke-linecap="round" stroke-linejoin="round"/>
<path d="M9.75 11.25C11.4069 11.25 12.75 9.90685 12.75 8.25C12.75 6.59315 11.4069 5.25 9.75 5.25C8.09315 5.25 6.75 6.59315 6.75 8.25C6.75 9.90685 8.09315 11.25 9.75 11.25Z" stroke="currentColor" stroke-width="1.5" stroke-linecap="round" stroke-linejoin="round"/>
<path d="M20.25 18.7492V17.2492C20.2495 16.5845 20.0283 15.9388 19.621 15.4134C19.2138 14.8881 18.6436 14.5129 18 14.3467" stroke="currentColor" stroke-width="1.5" stroke-linecap="round" stroke-linejoin="round"/>
<path d="M15 5.34668C15.6453 5.51191 16.2173 5.88721 16.6257 6.41341C17.0342 6.93962 17.2559 7.5868 17.2559 8.25293C17.2559 8.91906 17.0342 9.56624 16.6257 10.0924C16.2173 10.6187 15.6453 10.994 15 11.1592" stroke="currentColor" stroke-width="1.5" stroke-linecap="round" stroke-linejoin="round"/>
</svg>
