<svg width="244" height="192" viewBox="0 0 244 192" fill="none" xmlns="http://www.w3.org/2000/svg">
<path d="M121.988 0.795164L138.479 34.21L175.355 39.5686L148.672 65.5788L154.971 102.306L121.988 84.9652L89.005 102.306L95.3042 65.5788L68.621 39.5686L105.497 34.21L121.988 0.795164Z" fill="#F1BC54" fill-opacity="0.05"/>
<path d="M121.994 85.004L154.977 102.344L148.678 65.6176L175.361 39.6074L138.485 34.2488L121.994 0.833935V85.004Z" fill="#F1BC54" fill-opacity="0.05"/>
<path d="M100.468 149.094L97.4838 138.183L86.5751 141.152C77.1974 143.704 71.6758 153.377 74.2413 162.757L74.4411 163.489C68.1628 158.056 62.5614 151.896 57.7438 145.109L61.5009 145.353C71.1995 145.981 79.5605 138.622 80.177 128.918L80.8937 117.628L69.6121 116.897C59.9135 116.269 51.5525 123.627 50.936 133.332L50.8897 134.057C48.8551 130.271 47.0387 126.337 45.455 122.268C43.7724 117.947 42.3923 113.559 41.2996 109.13L44.0661 110.52C52.7499 114.883 63.3205 111.371 67.6751 102.676L72.7407 92.5611L62.6387 87.486C53.9543 83.1226 43.3843 86.6349 39.0297 95.3302L38.8908 95.6073C37.9781 87.3757 38.0542 79.0863 39.1165 70.882L45.9332 74.3068C54.6177 78.6697 65.1877 75.158 69.5423 66.4627L74.6078 56.3481L64.5059 51.273C56.3155 47.1575 46.4495 50.0502 41.7004 57.6876C42.8077 53.4852 44.1821 49.3278 45.8235 45.2364L51.0888 43.2602C62.8227 38.8555 68.7819 25.7961 64.3993 14.0915L59.3014 0.476544L45.6522 5.60046C33.9184 10.0052 27.9592 23.0645 32.3417 34.7692L34.2787 39.9419C32.6474 43.947 31.2496 48.0105 30.0763 52.1146C28.3265 44.2432 21.3075 38.357 12.909 38.357H1.60903V49.6583C1.60903 59.3733 9.48485 67.2492 19.1999 67.2492H26.8049C25.8638 73.6396 25.4629 80.0834 25.5929 86.5246C21.6576 83.3706 16.403 81.9213 11.0749 83.0065L0 85.2599L2.25467 96.3341C4.19287 105.854 13.4817 112 23.0015 110.061L28.2472 108.993C29.5613 115.028 31.3517 121.004 33.6349 126.87C34.1062 128.08 34.6021 129.276 35.1095 130.465C30.2596 129.103 24.8636 129.821 20.3866 132.896L11.0704 139.293L17.4679 148.61C22.9679 156.618 33.9184 158.651 41.9268 153.152L45.9618 150.381C49.5375 155.658 53.5262 160.615 57.8916 165.213C53.0226 165.613 48.3426 168.024 45.202 172.255L38.4658 181.329L47.5397 188.065C55.3401 193.857 66.3585 192.228 72.1496 184.428L75.27 180.225C81.6687 184.733 88.564 188.637 95.8938 191.859L100.998 180.246C95.3826 177.778 90.0519 174.863 85.0428 171.542L88.1353 170.7C97.5123 168.148 103.035 158.474 100.468 149.094Z" fill="#F1BC54" fill-opacity="0.05"/>
<path d="M232.927 82.9403C227.567 81.8488 222.281 83.3208 218.338 86.5135C218.477 80.0983 218.09 73.6343 217.152 67.1829H224.801C234.516 67.1829 242.392 59.3078 242.392 49.592V38.2908H231.091C222.684 38.2908 215.658 44.1903 213.918 52.0738C212.753 47.9741 211.359 43.9005 209.719 39.8687L211.701 34.5755C216.124 22.7681 210.114 9.59965 198.277 5.16197L184.507 0L179.362 13.7342C174.94 25.5416 180.95 38.71 192.787 43.1477L198.175 45.1677C199.817 49.2661 201.183 53.412 202.277 57.5852C197.52 49.9745 187.672 47.0976 179.493 51.2068L169.392 56.2819L174.457 66.3965C178.812 75.0917 189.382 78.6041 198.066 74.2406L204.847 70.8335C205.898 79.0785 205.951 87.3361 205.059 95.4422L204.97 95.2639C200.615 86.5687 190.044 83.0564 181.361 87.4198L171.259 92.4949L176.324 102.61C180.679 111.305 191.249 114.816 199.933 110.454L202.63 109.099C200.507 117.723 197.306 126.055 193.102 133.878L193.063 133.267C192.448 123.562 184.086 116.203 174.387 116.831L163.106 117.562L163.822 128.852C164.438 138.557 172.8 145.916 182.498 145.287L186.164 145.05C181.418 151.726 175.871 157.887 169.575 163.36L169.758 162.692C172.324 153.311 166.802 143.638 157.424 141.086L146.516 138.117L143.531 149.029C140.965 158.409 146.487 168.082 155.865 170.634L158.931 171.468C153.963 174.772 148.648 177.698 143.002 180.18L148.107 191.793C155.491 188.547 162.373 184.628 168.717 180.142L171.85 184.361C177.642 192.162 188.66 193.79 196.46 187.999L205.534 181.262L198.797 172.189C195.64 167.934 190.926 165.521 186.029 165.14C190.431 160.495 194.418 155.516 197.975 150.271L202.073 153.086C210.082 158.585 221.032 156.552 226.532 148.543L232.93 139.227L223.613 132.83C219.115 129.74 213.689 129.029 208.821 130.417C211.784 123.493 214.086 116.291 215.686 108.914L220.998 109.996C230.518 111.934 239.807 105.788 241.745 96.2679L244 85.1943L232.927 82.9403Z" fill="#F1BC54" fill-opacity="0.05"/>
</svg>
