<svg width="32" height="32" viewBox="0 0 32 32" fill="none" xmlns="http://www.w3.org/2000/svg">
<circle cx="16" cy="16" r="16" fill="#4B729F"/>
<path d="M21.9368 16.7343C21.6458 16.3843 21.729 16.2286 21.9368 15.9157C21.9405 15.9121 24.3428 12.7507 24.5904 11.6786L24.5919 11.6779C24.7149 11.2871 24.5919 11 23.9971 11H22.029C21.528 11 21.297 11.2464 21.1732 11.5221C21.1732 11.5221 20.1712 13.8064 18.7537 15.2871C18.2961 15.715 18.0846 15.8521 17.8349 15.8521C17.7119 15.8521 17.5206 15.715 17.5206 15.3243V11.6779C17.5206 11.2093 17.3804 11 16.9656 11H13.871C13.5567 11 13.37 11.2186 13.37 11.4221C13.37 11.8664 14.0787 11.9686 14.1522 13.2186V15.9307C14.1522 16.525 14.039 16.6343 13.7877 16.6343C13.1187 16.6343 11.4949 14.3407 10.5326 11.7157C10.3384 11.2064 10.1486 11.0007 9.64384 11.0007H7.67502C7.11325 11.0007 7 11.2471 7 11.5229C7 12.01 7.66902 14.4321 10.1111 17.6321C11.7387 19.8164 14.0307 21 16.1158 21C17.3691 21 17.5221 20.7371 17.5221 20.285C17.5221 18.1979 17.4089 18.0007 18.0366 18.0007C18.3276 18.0007 18.8287 18.1379 19.9987 19.1914C21.336 20.4407 21.5558 21 22.3043 21H24.2723C24.8334 21 25.1176 20.7371 24.9541 20.2186C24.5799 19.1279 22.0508 16.8843 21.9368 16.7343Z" fill="white"/>
</svg>
